<svg xmlns="http://www.w3.org/2000/svg" width="162" height="24" viewBox="0 0 162 24">
    <g fill="none" fill-rule="evenodd">
        <path fill="#FFF" d="M.008 11.85C.008 5.436 8.66.235 19.325.235c10.674 0 19.325 5.2 19.325 11.615 0 6.398-8.651 11.599-19.325 11.599-10.666 0-19.317-5.2-19.317-11.599"/>
        <path fill="#EC111A" d="M0 11.858C0 5.452 8.643.26 19.309.26c3.987 0 7.686.726 10.765 1.964-.777-.057-5.573-.429-9.394-.206-4.921.28-16.94 2.626-16.94 8.75 0 5.143 9.419 6.754 13.06 6.555a23.746 23.746 0 0 0 5.447-.9c-1.551 1.008-3.631 1.908-6.208 2.56 0 0-6.447 1.527-10.153 1.23C2.254 18.1 0 15.136 0 11.858M32.724 3.52c3.632 2.113 5.894 5.07 5.894 8.338 0 6.415-8.644 11.607-19.31 11.607-3.987 0-7.694-.726-10.773-1.973.776.066 5.573.438 9.403.215 4.92-.29 16.94-2.616 16.94-8.759 0-5.126-9.419-6.753-13.068-6.555a24.057 24.057 0 0 0-5.44.908c1.552-.998 3.624-1.907 6.2-2.559 0 0 6.455-1.535 10.154-1.222M15.816 7.681c.892-.247 1.833-.38 2.774-.38 3.93 0 7.083 2.039 7.083 4.524 0 1.33-.966 2.848-2.872 4.227-.892.24-1.842.38-2.773.38-3.93 0-7.084-2.056-7.084-4.54 0-1.321.965-2.84 2.872-4.211M155.979 13.758h-3.522l2.541-5.22.981 5.22zm.647 3.253l.628 2.852h4.519l-3.639-16.376h-4.62l-8.78 16.376h4.495l1.564-2.852h5.833zM146.217 3.487h-4.237l-2.513 16.376h4.254l2.496-16.376zm-14.747 3.25h.414c1.387 0 2.903.266 2.63 2.05-.278 1.777-1.87 2.038-3.253 2.038h-.414l.623-4.089zm3.217 6.414c2.376-.412 3.923-2.37 4.281-4.632.531-3.494-1.676-5.032-4.897-5.032h-6.34l-2.509 16.376h4.242l.965-6.306 3.076 6.306h5.275l-4.093-6.712zM122.38 7.086h3.502l.555-3.599H115.19l-.555 3.599h3.51l-1.966 12.777h4.246l1.954-12.777zm-13.738 6.672h-3.526l2.553-5.22.973 5.22zm.651 3.253l.624 2.852h4.514l-3.626-16.376h-4.64l-8.767 16.376h4.487l1.567-2.852h5.841zM93.498 6.915h.713c1.64 0 3.044.024 2.724 2.085-.293 2-1.81 2-3.357 2h-.711l.63-4.085zm-6.222 12.948h4.23l.84-5.434h2.402c3.695 0 6.029-1.69 6.626-5.556.565-3.763-1.608-5.386-5.104-5.386h-6.485l-2.509 16.376zM83.569 3.487h-4.245L76.82 19.863h9.313l.56-3.606h-5.087l1.962-12.77zM68.456 7.064c2.525 0 4.288 2.062 3.938 4.318-.432 2.83-2.82 4.893-5.347 4.893-2.533 0-4.296-2.063-3.863-4.893.345-2.256 2.735-4.318 5.272-4.318zm.621-4.13c-4.686 0-9.542 3.477-10.298 8.428-.81 5.304 2.396 9.048 7.637 9.048 5.224 0 9.583-3.744 10.395-9.048.756-4.951-3.042-8.429-7.734-8.429zm-10.087.942c-1.17-.527-2.388-.83-3.745-.83-2.294 0-4.76.999-6.62 2.653-1.797 1.606-2.97 3.761-3.315 5.995-.368 2.43.125 4.563 1.667 6.183 1.453 1.554 3.486 2.416 5.757 2.416 1.315 0 2.384-.325 3.86-.76l.778-5.104c-1.05 1.072-2.537 1.741-3.926 1.741-2.632 0-4.123-1.875-3.713-4.455.378-2.544 2.436-4.546 5.031-4.546 1.448 0 2.754.637 3.444 1.809l.782-5.102z"/>
    </g>
</svg>
