<svg xmlns="http://www.w3.org/2000/svg" width="180" height="34" viewBox="0 0 180 34">
    <g fill="#EC111A" fill-rule="nonzero">
        <path d="M76.434 11.047a7.077 7.077 0 1 0-.02 14.155 7.077 7.077 0 0 0 .02-14.155zm0 10.19a3.123 3.123 0 1 1-.039-6.245 3.123 3.123 0 0 1 .04 6.245zM92.517 11.38H90.59V7.21H86.36v4.17h-1.928v3.827h1.928v9.642h4.229v-9.642h1.928zM94.456 11.38h4.229v13.469h-4.229zM96.57 4.85a2.36 2.36 0 1 0-.02 4.72 2.36 2.36 0 0 0 .02-4.72zM157.182 15.012a2.526 2.526 0 0 1 2.526 2.515v7.322h4.229v-7.9c0-3.592-2.076-5.872-5.345-5.872a4.503 4.503 0 0 0-3.916 2.466V11.38h-4.228v13.47h4.228v-7.323a2.526 2.526 0 0 1 2.506-2.515zM179.344 24.85l-5.198-6.725 4.836-6.745h-4.943l-3.887 5.452V5.184h-4.219v19.665h4.22V19.3l4.267 5.55zM54.81 21.228c.314-.79.46-1.637.432-2.487a5.002 5.002 0 0 0-1.156-3.416 10.122 10.122 0 0 0-4.59-2.447 7.625 7.625 0 0 1-1.283-.45 2.721 2.721 0 0 1-.89-.666 1.498 1.498 0 0 1-.382-1.087c.01-.594.35-1.133.88-1.4a4.111 4.111 0 0 1 3.339 0c.472.173.928.39 1.36.647l1.801-3.573c-.799-.507-1.666-.9-2.574-1.165a11.541 11.541 0 0 0-2.878-.362 7.704 7.704 0 0 0-2.614.47 6.157 6.157 0 0 0-2.075 1.37 6.265 6.265 0 0 0-1.37 2.046 6.5 6.5 0 0 0-.47 2.457 5.227 5.227 0 0 0 1.595 3.573 8.653 8.653 0 0 0 3.182 1.781c.558.216 1.184.402 1.576.558.408.148.795.345 1.155.587.263.17.475.407.617.686.128.268.175.567.137.861-.041.446-.251.86-.588 1.155a2.81 2.81 0 0 1-1.957.539 5.873 5.873 0 0 1-2.34-.539 16.484 16.484 0 0 1-1.958-.979l-2.065 3.622a9.603 9.603 0 0 0 5.99 2.183 10.268 10.268 0 0 0 3.182-.509 7.547 7.547 0 0 0 2.418-1.38 6.402 6.402 0 0 0 1.527-2.075z"/>
        <path d="M66.381 20.073a3.123 3.123 0 1 1 0-3.916l2.81-2.81a7.077 7.077 0 1 0 0 9.515l-2.81-2.79zM115.218 24.85V11.38h-4.121v1.42l-.382-.343a5.14 5.14 0 0 0-3.554-1.41 7.087 7.087 0 0 0 0 14.145 5.149 5.149 0 0 0 3.554-1.42l.382-.342v1.42h4.12zm-7.4-3.505a3.181 3.181 0 1 1 3.18-3.181 3.191 3.191 0 0 1-3.18 3.181zM148.421 24.85V11.38h-4.12v1.42l-.383-.343a5.14 5.14 0 0 0-3.553-1.41 7.087 7.087 0 0 0 0 14.145 5.149 5.149 0 0 0 3.553-1.42l.382-.342v1.42h4.121zm-7.4-3.505a3.181 3.181 0 1 1 3.181-3.181 3.191 3.191 0 0 1-3.181 3.181zM121.522 24.85v-1.42l.381.343a5.149 5.149 0 0 0 3.554 1.42 7.087 7.087 0 0 0 0-14.146 5.14 5.14 0 0 0-3.554 1.41l-.381.342V5.184H117.4v19.665h4.12zm.107-6.735a3.191 3.191 0 1 1 6.382.078 3.191 3.191 0 0 1-6.382-.078z"/>
        <g>
            <path d="M24.554 6.232H15.09a10.49 10.49 0 0 0-10.425 9.324A10.49 10.49 0 0 1 13.843 0h16.315l-5.604 6.232zM5.62 27.213h9.471a10.499 10.499 0 0 0 10.425-9.324 10.49 10.49 0 0 1-9.185 15.556H0l5.62-6.232z"/>
            <circle cx="15.091" cy="16.723" r="8.427"/>
        </g>
    </g>
</svg>
