<svg xmlns="http://www.w3.org/2000/svg" width="46" height="43" viewBox="0 0 46 43">
    <path fill="#FFF" fill-rule="evenodd" d="M44.563 7.906H1.078v-5.21a1.62 1.62 0 0 1 1.617-1.618h40.25a1.62 1.62 0 0 1 1.617 1.617v5.211zM42.944 0H2.695A2.699 2.699 0 0 0 0 2.695V35.04a2.699 2.699 0 0 0 2.695 2.695H6.11v-1.078H2.695a1.62 1.62 0 0 1-1.617-1.617V8.984h43.484V35.04a1.62 1.62 0 0 1-1.617 1.617h-9.403v1.078h9.403a2.699 2.699 0 0 0 2.696-2.695V2.695A2.699 2.699 0 0 0 42.945 0zM11.68 2.875a1.62 1.62 0 0 0-1.617 1.617A1.62 1.62 0 0 0 11.68 6.11a1.62 1.62 0 0 0 1.617-1.617 1.62 1.62 0 0 0-1.617-1.617zm-7.188 0a1.62 1.62 0 0 0-1.617 1.617A1.62 1.62 0 0 0 4.492 6.11 1.62 1.62 0 0 0 6.11 4.492a1.62 1.62 0 0 0-1.617-1.617zm3.594 0a1.62 1.62 0 0 0-1.617 1.617A1.62 1.62 0 0 0 8.086 6.11a1.62 1.62 0 0 0 1.617-1.617 1.62 1.62 0 0 0-1.617-1.617zm27.666 23.112c0 .298.242.54.54.54h3.06a.539.539 0 1 0 0-1.079h-3.06a.54.54 0 0 0-.54.54zm2.26-8.603l-2.164 2.163a.54.54 0 1 0 .763.763l2.163-2.164a.538.538 0 1 0-.761-.762zM30.71 29.16v-6.345a3.535 3.535 0 0 1 1.983 3.172c0 1.372-.79 2.588-1.983 3.173zm-1.078 6.758c-4.04-3.562-11.34-5.361-13.204-5.776v-3.645a.54.54 0 0 0-1.078 0v3.542H9.767a1.504 1.504 0 0 1-1.501-1.501v-5.101c0-.827.673-1.5 1.501-1.5h5.582v.48a.539.539 0 1 0 1.078 0v-.564c1.907-.338 9.167-1.84 13.204-5.706v19.771zm-12.472.753h-.251a.539.539 0 1 0 0 1.078h.84l.803 1.472h-.622a.54.54 0 0 0 0 1.078h.976c.002.037.015.074.015.111v.88c0 .265-.217.48-.481.48h-4.477a.985.985 0 0 1-.949-.701l-3.028-9.951h5.435l.288 2.013c.048.336.127.665.225.99h-.555a.539.539 0 1 0 0 1.078h.989c.03.06.056.12.088.18l.704 1.292zm13.55-15.017v-6.888a.54.54 0 0 0-.96-.337c-3.775 4.72-13.211 6.317-13.901 6.43h-6.08a2.582 2.582 0 0 0-2.58 2.578v5.101A2.58 2.58 0 0 0 8.8 30.925l3.182 10.458a2.059 2.059 0 0 0 1.98 1.466h4.477a1.56 1.56 0 0 0 1.559-1.559v-.88c0-.515-.13-1.027-.378-1.48l-2.22-4.068a5.548 5.548 0 0 1-.624-1.884l-.244-1.702c2.402.568 9.95 2.595 13.236 6.292a.539.539 0 0 0 .941-.358V30.32a4.607 4.607 0 0 0 3.06-4.334 4.606 4.606 0 0 0-3.06-4.332z"/>
</svg>
