<svg xmlns="http://www.w3.org/2000/svg" xmlns:xlink="http://www.w3.org/1999/xlink" width="49" height="40" viewBox="0 0 49 40">
    <defs>
        <path id="a" d="M0 0h49v40H0z"/>
    </defs>
    <g fill="none" fill-rule="evenodd">
        <mask id="b" fill="#fff">
            <use xlink:href="#a"/>
        </mask>
        <path fill="#FFF" d="M37.72 29.593l-2.447 2.073.543.65 1.51-1.28v5.96h.844v-6.02l1.713 1.265.038.028.498-.686-2.669-1.968-.03-.022zm-3.06-.297h6.055v-.848h-6.054v.848zm11.668-3.357A1.837 1.837 0 0 1 44.5 24.1c0-1.016.82-1.842 1.828-1.842s1.829.826 1.829 1.841c0 1.015-.82 1.841-1.829 1.841zm-19.277-.709l-.022-.041a3.42 3.42 0 0 1-3.108.075L1.548 14.494a1.225 1.225 0 0 1-.704-1.103c-.01-.482.24-.904.664-1.128L22.503 1.2a3.04 3.04 0 0 1 2.83-.003l21.77 11.411a.944.944 0 0 1 .511.842.942.942 0 0 1-.499.849l.023.041L27.05 25.23zm15.225 1.701a6.668 6.668 0 0 1 1.766 2.298c1.64 3.424.215 7.562-3.174 9.224a6.905 6.905 0 0 1-2.254.669c-.344.04-1.223.04-1.567 0-2.916-.342-5.36-2.608-5.943-5.512a6.942 6.942 0 0 1 2.313-6.679c.97-.819 2.07-1.325 3.36-1.55.216-.038.616-.06 1.07-.06.454 0 .854.022 1.07.06 1.29.225 2.388.731 3.359 1.55zm-12.113 6.044c-3.662 1.216-7.392 1.283-11.088.201-3.114-.912-5.544-2.452-7.033-3.584a2.732 2.732 0 0 1-1.071-2.164v-7.457l12.586 6.059a4.267 4.267 0 0 0 3.872-.094l11.138-6.038v4.596c-.668-.043-1.524-.02-1.933.05-1.441.251-2.67.819-3.758 1.737a7.777 7.777 0 0 0-2.713 6.694zm16.544-11.537v-5.954l.808-.438c.586-.318.947-.931.942-1.602a1.802 1.802 0 0 0-.964-1.588L25.723.443a3.883 3.883 0 0 0-3.61.004L1.116 11.51A2.09 2.09 0 0 0 0 13.407c.015.798.468 1.509 1.184 1.854l8.944 4.305v7.862c0 1.11.525 2.173 1.406 2.842 2.23 1.694 6.857 4.537 12.784 4.537 1.977 0 3.986-.328 5.97-.974.675 3.233 3.407 5.751 6.662 6.131.191.023.522.036.884.036.36 0 .687-.013.876-.035.87-.1 1.72-.352 2.528-.748 3.805-1.867 5.404-6.513 3.564-10.357a7.48 7.48 0 0 0-1.984-2.58 7.659 7.659 0 0 0-3.408-1.663V19.44l6.454-3.5v5.511a2.67 2.67 0 0 0-2.207 2.646 2.684 2.684 0 0 0 2.671 2.69A2.684 2.684 0 0 0 49 24.098a2.688 2.688 0 0 0-2.293-2.66z" mask="url(#b)"/>
    </g>
</svg>
