<svg xmlns="http://www.w3.org/2000/svg" width="46" height="43" viewBox="0 0 46 43">
    <path fill="#FFF" fill-rule="evenodd" d="M19.484 4.26c0-1.853 1.204-3.199 2.863-3.199 1.66 0 2.863 1.346 2.863 3.198v1.244c0 1.852-1.204 3.196-2.863 3.196s-2.863-1.344-2.863-3.196V4.259zm2.863 5.5c2.238 0 3.925-1.83 3.925-4.257V4.259c0-2.428-1.687-4.26-3.925-4.26-2.237 0-3.924 1.832-3.924 4.26v1.244c0 2.427 1.687 4.258 3.924 4.258zM4.94 7.14c0-1.86 1.204-3.209 2.863-3.209s2.863 1.35 2.863 3.209v1.248c0 1.859-1.204 3.208-2.863 3.208-1.66 0-2.863-1.35-2.863-3.208V7.139zm2.863 5.518c2.237 0 3.924-1.836 3.924-4.27V7.139c0-2.435-1.687-4.27-3.924-4.27-2.238 0-3.925 1.835-3.925 4.27v1.248c0 2.434 1.687 4.27 3.925 4.27zm22.256 6.695h-1.884l-.053.472c-.01.086-.218 2.103.901 3.407H16.641c1.119-1.304.91-3.321.9-3.407l-.052-.472h-2.853v-3.347c0-2.166 5.094-3.348 7.71-3.348 2.619 0 7.713 1.182 7.713 3.348v3.347zm12.166-4.847h-3.13l-4.847 4.847H31.12v-3.347c0-3.364-6.43-4.41-8.773-4.41-2.342 0-8.773 1.046-8.773 4.41v3.347h-2.157l-4.849-4.847H3.44A3.443 3.443 0 0 0 0 17.944V28.61a5.384 5.384 0 0 0 5.379 5.379h5.435l2.788 8.363 1.007-.335-3.03-9.09h-6.2a4.322 4.322 0 0 1-4.317-4.317V17.944a2.38 2.38 0 0 1 2.378-2.378h2.689l4.848 4.848H16.5c-.012.57-.126 1.528-.688 2.157-.397.444-.955.66-1.706.66H8.507l-3.722-3.723-.751.75 2.754 2.754v5.159h4.719c1.146 0 2.61.275 3.061 1.565l3.878 12.605 1.015-.313-3.885-12.624c-.518-1.48-1.963-2.295-4.07-2.295H7.85v-3.036l.219.22h29.528l.22-.22v3.036h-3.658c-2.106 0-3.552.815-4.076 2.314l-3.879 12.605 1.015.313 3.872-12.586c.458-1.309 1.921-1.584 3.068-1.584h4.72v-5.16l2.752-2.753-.75-.75-3.723 3.723h-5.598c-.75 0-1.306-.215-1.703-.657-.569-.633-.68-1.59-.693-2.16h5.525l4.847-4.848h2.69a2.38 2.38 0 0 1 2.378 2.378V28.61a4.323 4.323 0 0 1-4.317 4.317h-6.2l-3.03 9.09 1.006.335 2.788-8.363h5.436a5.385 5.385 0 0 0 5.379-5.38V17.945a3.444 3.444 0 0 0-3.44-3.44zm-6.257-7.366c0-1.86 1.204-3.209 2.863-3.209s2.863 1.35 2.863 3.209v1.248c0 1.859-1.204 3.208-2.863 3.208s-2.863-1.35-2.863-3.208V7.139zm2.863 5.518c2.238 0 3.924-1.836 3.924-4.27V7.139c0-2.435-1.686-4.27-3.924-4.27s-3.925 1.835-3.925 4.27v1.248c0 2.434 1.687 4.27 3.925 4.27z"/>
</svg>
