<svg xmlns="http://www.w3.org/2000/svg" width="47" height="47" viewBox="0 0 47 47">
    <path fill="#FFF" fill-rule="evenodd" d="M42.138 26.438a3.238 3.238 0 0 1-3.234-3.234 3.238 3.238 0 0 1 3.234-3.234 3.238 3.238 0 0 1 3.234 3.234 3.238 3.238 0 0 1-3.234 3.234zM27.494 41.105a4.273 4.273 0 0 0-4.139-3.238 4.275 4.275 0 0 0-4.156 3.302c-6.848-1.526-12.347-6.98-13.928-13.818a4.274 4.274 0 0 0 3.27-4.147 4.276 4.276 0 0 0-3.27-4.148A18.3 18.3 0 0 1 19.198 5.238a4.275 4.275 0 0 0 4.156 3.304 4.274 4.274 0 0 0 4.139-3.239 18.36 18.36 0 0 1 13.645 13.753 4.276 4.276 0 0 0-3.272 4.148 4.274 4.274 0 0 0 3.271 4.148 18.345 18.345 0 0 1-13.644 13.753zm-4.139 4.267a3.238 3.238 0 0 1-3.234-3.234 3.238 3.238 0 0 1 3.234-3.234 3.238 3.238 0 0 1 3.234 3.234 3.238 3.238 0 0 1-3.234 3.234zM1.037 23.204a3.238 3.238 0 0 1 3.234-3.234 3.238 3.238 0 0 1 3.234 3.234 3.238 3.238 0 0 1-3.234 3.234 3.238 3.238 0 0 1-3.234-3.234zM23.355 1.037A3.238 3.238 0 0 1 26.59 4.27a3.238 3.238 0 0 1-3.234 3.234 3.238 3.238 0 0 1-3.234-3.234 3.238 3.238 0 0 1 3.234-3.234zm18.82 17.898A19.399 19.399 0 0 0 27.626 4.27 4.276 4.276 0 0 0 23.356 0a4.274 4.274 0 0 0-4.267 4.2A19.333 19.333 0 0 0 4.234 18.935 4.274 4.274 0 0 0 0 23.205a4.273 4.273 0 0 0 4.234 4.268 19.326 19.326 0 0 0 14.854 14.734 4.274 4.274 0 0 0 4.267 4.201 4.276 4.276 0 0 0 4.27-4.268 19.381 19.381 0 0 0 14.55-14.667 4.273 4.273 0 0 0 4.234-4.269 4.275 4.275 0 0 0-4.233-4.269zm-9.174 13.3H13.408v-3.649l8.202-2.252a.519.519 0 0 0 .38-.502l-.003-1.38c.441.2.904.322 1.389.322.468 0 .916-.114 1.344-.302l.01 1.284c0 .23.153.43.372.494l7.9 2.307v3.678zm-14.038-15.03a4.418 4.418 0 0 1 4.413-4.413 4.418 4.418 0 0 1 4.413 4.413c0 2.46-2.063 6.532-4.413 6.532s-4.413-4.072-4.413-6.532zM33.665 27.67l-7.902-2.308-.01-1.528c1.849-1.496 3.073-4.48 3.073-6.63a5.456 5.456 0 0 0-5.45-5.45 5.456 5.456 0 0 0-5.45 5.45c0 2.13 1.202 5.079 3.022 6.589l.005 1.645-8.201 2.252a.52.52 0 0 0-.381.5v4.562c0 .287.232.519.518.519h20.63a.519.519 0 0 0 .519-.519v-4.585a.518.518 0 0 0-.373-.497z"/>
</svg>
