<svg xmlns="http://www.w3.org/2000/svg" width="41" height="40" viewBox="0 0 41 40">
    <path fill="#FFF" fill-rule="evenodd" d="M26.958 2.19l.109-.12h-.01a2.896 2.896 0 0 1 2.016-.833h.498c.77 0 1.496.3 2.042.845a2.87 2.87 0 0 1 .83 2.353l-.225 2.156a2.87 2.87 0 0 1-1.072 1.934 2.88 2.88 0 0 1-2.125.609 2.878 2.878 0 0 1-2.543-2.543l-.25-2.157a2.889 2.889 0 0 1 .73-2.243zM25.21 6.706a4.131 4.131 0 0 0 4.554 3.648 4.102 4.102 0 0 0 3.647-3.648l.224-2.158A4.13 4.13 0 0 0 29.569 0h-.447c-1.102 0-2.138.429-2.917 1.209a4.1 4.1 0 0 0-1.194 3.259h-.034l.233 2.237zm11.935 15.69h-2.587v-3.75a.619.619 0 0 0-1.237 0v3.75h-8.05v-3.75a.619.619 0 0 0-1.236 0v3.75h-2.04v-4.128a5.035 5.035 0 0 1 5.013-5.013h5.118a5.034 5.034 0 0 1 5.02 5.013v4.129zm-18.027 4.99c0 .863-.702 1.566-1.566 1.566h-.474V15.914a.62.62 0 0 0-.618-.62H6.627a.62.62 0 0 0-.618.62V28.95h-.474a1.568 1.568 0 0 1-1.567-1.567V16.148a2.905 2.905 0 0 1 2.894-2.894h9.363a2.905 2.905 0 0 1 2.893 2.894v11.236zM7.246 32.228h8.595V16.532H7.246v15.697zm32.703-9.833h-1.567v-4.129c-.006-3.44-2.81-6.244-6.25-6.25h-5.124c-3.44.006-6.244 2.81-6.25 6.25v4.129h-.403v-6.248a4.142 4.142 0 0 0-4.13-4.13H6.862a4.142 4.142 0 0 0-4.13 4.13v6.248H.617a.62.62 0 0 0 0 1.237h.474v15.223a.62.62 0 0 0 1.237 0V23.633h.402v3.751a2.806 2.806 0 0 0 2.804 2.803h.474v2.66c0 .341.277.618.618.618h4.298v4.772H8.812a.62.62 0 0 0 0 1.237h5.463a.62.62 0 0 0 0-1.237h-2.113v-4.772h4.298a.62.62 0 0 0 .618-.618v-2.66h.474a2.806 2.806 0 0 0 2.803-2.803v-3.75h17.883v15.222a.619.619 0 0 0 1.236 0V23.633h.475a.62.62 0 0 0 0-1.237zM9.412 2.19a2.892 2.892 0 0 1 2.131-.953h.45c.77 0 1.496.3 2.04.845a2.869 2.869 0 0 1 .83 2.353L14.64 6.59a2.874 2.874 0 0 1-1.072 1.934c-.604.48-1.36.694-2.126.609A2.877 2.877 0 0 1 8.9 6.593l-.202-2.159a2.894 2.894 0 0 1 .714-2.244zM7.447 4.612h.027l.218 2.093a4.131 4.131 0 0 0 4.553 3.648 4.101 4.101 0 0 0 3.647-3.648l.225-2.158a4.1 4.1 0 0 0-.904-3.025A4.095 4.095 0 0 0 12.013 0h-.47c-1.102 0-2.137.429-2.916 1.209A4.098 4.098 0 0 0 7.44 4.547l.007.065z"/>
</svg>
