<svg xmlns="http://www.w3.org/2000/svg" width="48" height="44" viewBox="0 0 48 44">
    <path fill="#FFF" fill-rule="evenodd" d="M13.068 12.111l9.06-11.52a.362.362 0 0 0-.33-.587.358.358 0 0 0-.244.135l-9.058 11.52a.363.363 0 0 0 .06.512h.002a.368.368 0 0 0 .513-.06h-.003zM31.17 25.693a.367.367 0 0 0 .513-.062l9.057-11.52a.364.364 0 0 0-.062-.512.364.364 0 0 0-.512.06l-9.057 11.52a.364.364 0 0 0 .061.514zm14.964 12.23c.457 0 .83-.375.83-.834v-1.517c0-2.676-2.126-4.85-4.738-4.85H27.073c-2.613 0-4.738 2.174-4.738 4.85v1.517c0 .459.372.833.83.833h22.968zm-22.616-2.351c0-2.027 1.595-3.675 3.556-3.675h15.152c1.961 0 3.555 1.648 3.555 3.675v1.174H23.517v-1.174zm22.92 3.49H23.339a.658.658 0 0 0-.66.653v.155c0 .362.295.655.66.655h23.096a.658.658 0 0 0 .66-.654v-.155a.657.657 0 0 0-.658-.655zM22.567 17.65l1.427 1.126.491.343.002-.004 6.162 4.795 7.64-9.716L22.497 1.902l-7.642 9.72 4.91 3.822 1.873 1.478L9.19 32.116a1.377 1.377 0 0 0-1.44.444L.313 41.554a1.358 1.358 0 0 0 .188 1.92l.123.102a1.377 1.377 0 0 0 1.93-.188l7.437-8.995a1.357 1.357 0 0 0 .126-1.547l12.45-15.196zm-1.113-2.376l.006-.008-2.13-1.662-.003.003-2.81-2.188L22.7 3.555l13.929 10.84-6.184 7.864-5.698-4.435-.444-.305-2.849-2.245z"/>
</svg>
