<svg xmlns="http://www.w3.org/2000/svg" width="58" height="40" viewBox="0 0 58 40">
    <path fill="#FFF" fill-rule="evenodd" d="M56.013 35.783l-1.708 2.485a.246.246 0 0 1-.345.064l-11.766-8.089a.247.247 0 0 1-.064-.345l1.709-2.484a.247.247 0 0 1 .344-.064L55.95 35.44c.074.05.096.12.103.159a.246.246 0 0 1-.04.185zM24.774 4.735h.527c1.004 0 1.817.813 1.817 1.818v13.056h-.048a1.868 1.868 0 0 1-1.865 1.866h-.479c.383-.527.67-1.149.67-1.866V6.553c0-.67-.24-1.292-.622-1.818zm.36 24.522c-5.012 0-9.41-2.68-11.835-6.682H25.205c1.626 0 3.013-1.34 3.013-3.013V6.552a2.98 2.98 0 0 0-2.965-2.965h-6.744v-.289a13.745 13.745 0 0 1 6.625-1.693c7.624 0 13.826 6.203 13.826 13.826 0 7.624-6.202 13.826-13.826 13.826zM5.787 21.475v-.048H2.965a1.817 1.817 0 0 1-1.817-1.818v-6.6c.526.383 1.148.622 1.817.622h7.03a15.164 15.164 0 0 0 1.142 7.844h-5.35zm-4.64-15.21c0-.86.67-1.53 1.531-1.53H14.28a15.228 15.228 0 0 0-4.114 7.796h-7.2a1.816 1.816 0 0 1-1.818-1.818V6.265zM8.897 2.44c0-.717.574-1.291 1.291-1.291h5.931c.67 0 1.208.502 1.277 1.152a15.35 15.35 0 0 0-1.85 1.287h-6.65V2.44zm13.487 10.092h-7.796v-1.148c0-1.052-.86-1.865-1.865-1.865-.03 0-.058.007-.088.009a13.914 13.914 0 0 1 3.749-4.792h6.048c1.004 0 1.818.813 1.818 1.818v4.113a1.868 1.868 0 0 1-1.866 1.865zm-9.709-1.865c.383 0 .765.287.765.717v2.535c0 .43-.334.718-.717.718-.383 0-.765-.335-.765-.718v-2.535c0-.43.335-.717.717-.717zm-1.367 4.765c0-.099.005-.196.007-.294.345.368.83.598 1.36.598 1.005 0 1.865-.86 1.865-1.865v-.24h7.796c.718 0 1.34-.238 1.865-.669v6.648a1.867 1.867 0 0 1-1.865 1.866h-9.634a13.734 13.734 0 0 1-1.394-6.044zM57.45 35.34a1.656 1.656 0 0 0-.696-1.072l-11.766-8.089a1.653 1.653 0 0 0-1.25-.265c-.438.081-.818.328-1.071.696l-.447.65-4.582-3.117a15.156 15.156 0 0 0 2.743-8.71c0-8.409-6.84-15.249-15.247-15.249-2.417 0-4.703.568-6.735 1.573C18.099.748 17.17 0 16.07 0h-5.93A2.45 2.45 0 0 0 7.7 2.44v1.147H2.678A2.673 2.673 0 0 0 0 6.265V19.61a2.98 2.98 0 0 0 2.965 2.966h8.702c2.566 4.816 7.639 8.104 13.467 8.104 4.66 0 8.835-2.103 11.634-5.408l4.647 3.159-.457.663c-.521.76-.328 1.8.43 2.322l11.766 8.088a1.67 1.67 0 0 0 2.322-.43l1.708-2.484c.253-.368.347-.812.266-1.25z"/>
</svg>
