<svg xmlns="http://www.w3.org/2000/svg" width="49" height="36" viewBox="0 0 49 36">
    <g fill="#FFF" fill-rule="evenodd">
        <path d="M37.99 34.208c-5.258 0-9.536-4.279-9.536-9.538 0-5.258 4.278-9.536 9.537-9.536 5.258 0 9.537 4.278 9.537 9.536 0 5.26-4.28 9.538-9.537 9.538M5.677 17.879c0-8.848 7.198-16.046 16.046-16.046 7.462 0 13.743 5.122 15.53 12.033-5.634.381-10.105 5.075-10.105 10.804 0 2.702 1 5.17 2.64 7.07a15.945 15.945 0 0 1-8.065 2.184c-8.848 0-16.046-7.197-16.046-16.045m-4.371 0c0-7.896 5.733-14.473 13.254-15.799C8.557 4.813 4.371 10.864 4.371 17.88c0 7.011 4.184 13.06 10.183 15.794C7.036 32.346 1.306 25.772 1.306 17.88m37.29-4.02C36.777 6.224 29.906.527 21.723.527c-.743 0-1.474.052-2.193.144a17.178 17.178 0 0 0-2.178-.144C7.783.527 0 8.31 0 17.879c0 9.567 7.783 17.35 17.352 17.35.742 0 1.473-.048 2.19-.141a17.237 17.237 0 0 0 11.185-2.39 10.789 10.789 0 0 0 7.264 2.815c5.978 0 10.842-4.864 10.842-10.843 0-5.774-4.54-10.494-10.237-10.811"/>
        <path d="M23.97 15.89c-.498-.2-1.135-.388-1.911-.567-.724-.168-1.254-.336-1.59-.503-.335-.168-.503-.42-.503-.756 0-.346.147-.622.44-.826.294-.205.678-.307 1.15-.307.324 0 .631.04.92.118.288.08.559.184.81.314.252.132.415.219.488.26.22.116.388.195.504.236.115.043.236.063.362.063.252 0 .472-.115.66-.346.19-.23.284-.504.284-.818 0-.22-.04-.407-.118-.56a1.164 1.164 0 0 0-.401-.416c-.83-.525-1.679-.855-2.55-.991v-.74c0-.325-.102-.587-.307-.786-.204-.2-.469-.3-.795-.3-.314 0-.577.103-.786.307a1.04 1.04 0 0 0-.315.779v.787c-.965.2-1.742.608-2.33 1.227-.587.62-.88 1.349-.88 2.188 0 .734.183 1.319.55 1.755.368.435.803.755 1.307.96.503.204 1.148.406 1.935.606.494.126.869.23 1.125.314.257.084.473.197.646.339a.67.67 0 0 1 .26.543c0 .367-.145.643-.433.826-.289.183-.711.275-1.267.275-.451 0-.876-.052-1.275-.157-.4-.105-.829-.284-1.29-.536a2.848 2.848 0 0 0-.488-.236 1.198 1.198 0 0 0-.378-.062c-.252 0-.47.116-.653.346a1.275 1.275 0 0 0-.276.818c0 .242.04.436.118.582.08.148.213.279.402.394.829.535 1.826.876 2.99 1.023v.708c0 .325.102.587.307.787.205.2.469.299.795.299.325 0 .59-.1.794-.3.205-.199.307-.46.307-.786v-.77c.986-.19 1.77-.584 2.353-1.182.582-.597.873-1.321.873-2.171 0-.745-.18-1.338-.543-1.779a3.184 3.184 0 0 0-1.29-.96M38.164 23.702l.61-.732L35 19.82l-3.893 3.146.6.741 2.812-2.272v4.406h.953v-4.386zM44.275 24.922l-2.812 2.272v-4.406h-.953v4.386l-2.692-2.247-.61.732 3.774 3.15 3.892-3.145z"/>
    </g>
</svg>
