<svg xmlns="http://www.w3.org/2000/svg" width="52" height="30" viewBox="0 0 52 30">
    <g fill="#EC1C24" fill-rule="evenodd">
        <path d="M31.39 8.64a1.437 1.437 0 0 1 1.16.58l5.693 7.592c.031.04.058.082.083.123l.764 1.273c.1.167.276.271.47.28l3.685-.424c.252-.004.377-.052.493-.162a.572.572 0 0 0 .178-.418V7.418a.578.578 0 0 0-.578-.577h-2.85a1.44 1.44 0 0 1-1.026-.427L35.057 2.01a.574.574 0 0 0-.408-.17h-6.3c-.156 0-.301.061-.41.17L21.972 7.98a.559.559 0 0 0-.139.22c-.246.74-.931 3.23.626 4.268a4.864 4.864 0 0 0 3.647.727.558.558 0 0 0 .283-.156l3.974-3.974a1.454 1.454 0 0 1 1.027-.425zm8.202 10.718c-.558-.02-.999-.284-1.25-.701l-.762-1.274-5.728-7.64a.567.567 0 0 0-.422-.229.562.562 0 0 0-.451.167l-3.971 3.974c-.201.2-.452.338-.724.394a5.777 5.777 0 0 1-4.31-.855c-2.072-1.381-1.264-4.385-.968-5.271.07-.21.187-.4.349-.56l5.969-5.97a1.438 1.438 0 0 1 1.024-.425h6.3c.389 0 .751.151 1.027.425L40.08 5.8a.577.577 0 0 0 .41.168h2.85c.8 0 1.449.651 1.449 1.451v10.066c0 .399-.159.771-.447 1.048a1.44 1.44 0 0 1-1.065.4l-3.684.426z"/>
        <path d="M25.337 29.072a3.796 3.796 0 0 1-1.792-.468l-.069.016c-.071.017-.138.03-.2.051-1.8.575-2.927-.401-3.307-1.048l-8.119-8.119a.584.584 0 0 0-.41-.168H9.909a2.77 2.77 0 0 1-2.767-2.767V8.378A2.77 2.77 0 0 1 9.908 5.61h2.053c.74 0 1.437-.288 1.96-.813l3.31-3.31a2.978 2.978 0 0 1 2.117-.876h4.947c.387 0 .751.151 1.025.425l1.487 1.487a.436.436 0 0 1-.615.618l-1.489-1.488a.574.574 0 0 0-.408-.17h-4.947c-.567 0-1.1.221-1.503.623l-3.307 3.309a3.62 3.62 0 0 1-2.577 1.067H9.908c-1.045 0-1.895.85-1.895 1.895v8.19c0 1.047.85 1.896 1.895 1.896h1.533c.387 0 .753.15 1.026.425l8.161 8.16c.03.031.056.065.075.103.068.123.724 1.199 2.305.69a2.95 2.95 0 0 1 .275-.072c.066-.016.134-.03.203-.05a.431.431 0 0 1 .344.044c.901.538 1.93.577 2.75.105.58-.334.998-.904 1.182-1.603.093-.359.335-.662.682-.855a1.48 1.48 0 0 1 1.616.124c.875.662 1.89.8 2.648.365.925-.536 1.283-1.825.865-3.14a.433.433 0 0 1 .184-.5l.668-.42a.438.438 0 0 1 .51.033c.892.735 1.98.914 2.773.456.543-.315.903-.883 1.014-1.604.115-.757-.057-1.58-.486-2.322a3.914 3.914 0 0 0-.637-.811.431.431 0 0 1-.125-.357l.019-.168a.424.424 0 0 1 .481-.386.438.438 0 0 1 .388.445c.255.276.462.553.63.841.525.911.735 1.937.59 2.89-.149.986-.66 1.777-1.438 2.226-1.031.596-2.381.456-3.509-.343l-.14.086c.382 1.594-.15 3.136-1.35 3.827-1.068.619-2.454.455-3.613-.423a.597.597 0 0 0-.654-.061.527.527 0 0 0-.274.318c-.241.926-.805 1.686-1.588 2.138a3.35 3.35 0 0 1-1.679.447M1.907 6.483c-.571 0-1.035.464-1.035 1.035v9.909c0 .573.464 1.035 1.035 1.035h2.056c.571 0 1.036-.462 1.036-1.035V7.518c0-.571-.465-1.035-1.036-1.035H1.907zm2.056 12.853H1.907A1.911 1.911 0 0 1 0 17.426V7.519C0 6.466.856 5.61 1.907 5.61h2.056c1.051 0 1.908.857 1.908 1.91v9.908c0 1.053-.857 1.91-1.908 1.91zM47.61 6.483c-.572 0-1.036.464-1.036 1.035v9.909c0 .573.464 1.035 1.036 1.035h2.054c.573 0 1.035-.462 1.035-1.035V7.518c0-.571-.462-1.035-1.035-1.035H47.61zm2.054 12.853H47.61a1.911 1.911 0 0 1-1.91-1.91V7.519c0-1.052.857-1.909 1.91-1.909h2.054c1.052 0 1.909.857 1.909 1.91v9.908c0 1.053-.857 1.91-1.91 1.91z"/>
        <path d="M48.884 8.445c.067.03.145.03.213.001a.266.266 0 0 0 .151-.148.27.27 0 0 0 .004-.212.269.269 0 0 0-.148-.152.274.274 0 0 0-.214-.003.281.281 0 0 0-.155.361c.03.068.08.121.15.153m.108.893c-.153 0-.307-.03-.453-.091a1.15 1.15 0 0 1-.603-1.511 1.147 1.147 0 0 1 1.51-.604c.283.12.502.346.616.63.114.285.109.597-.013.88-.12.282-.344.5-.629.614a1.138 1.138 0 0 1-.428.082M2.469 17.014c.068.03.143.03.213.001a.271.271 0 0 0 .151-.148.264.264 0 0 0 .003-.211.272.272 0 0 0-.148-.155.278.278 0 0 0-.364.147.278.278 0 0 0 .145.366m.109.894a1.15 1.15 0 0 1-1.054-1.604 1.15 1.15 0 1 1 1.054 1.604"/>
    </g>
</svg>
