<svg xmlns="http://www.w3.org/2000/svg" width="48" height="30" viewBox="0 0 48 30">
    <g fill="#EC1C24" fill-rule="evenodd">
        <path d="M22.115 26.8c-6.79 4.207-15.74 2.104-19.947-4.685-4.207-6.79-2.104-15.74 4.686-19.947C13.644-2.039 22.592.064 26.8 6.854a14.39 14.39 0 0 1 2.161 8.189.5.5 0 0 1-.999-.039c.108-2.69-.59-5.327-2.011-7.623C22.033 1.058 13.703-.898 7.38 3.019 1.058 6.937-.898 15.266 3.02 21.587c3.916 6.323 12.245 8.279 18.566 4.362a13.426 13.426 0 0 0 3.596-3.246.5.5 0 0 1 .793.61 14.416 14.416 0 0 1-3.86 3.487"/>
        <path d="M19.4 22.418C15.026 25.13 9.26 23.774 6.55 19.4 3.838 15.025 5.193 9.26 9.567 6.55c4.375-2.712 10.141-1.356 12.852 3.02a9.227 9.227 0 0 1 1.37 4.151.502.502 0 0 1-.457.54.502.502 0 0 1-.54-.457 8.259 8.259 0 0 0-1.224-3.71C19.148 6.188 14.001 4.98 10.095 7.4c-3.908 2.42-5.115 7.567-2.696 11.475 2.421 3.906 7.568 5.115 11.474 2.695a8.277 8.277 0 0 0 1.56-1.246.5.5 0 1 1 .714.7 9.312 9.312 0 0 1-1.746 1.395"/>
        <path d="M16.686 18.038a4.242 4.242 0 0 1-1.297.53 4.19 4.19 0 0 1-4.46-1.881 4.188 4.188 0 0 1 1.352-5.757 4.184 4.184 0 0 1 6.129 2.112.504.504 0 0 1-.296.643.503.503 0 0 1-.643-.297 3.183 3.183 0 0 0-4.662-1.608 3.185 3.185 0 0 0-1.03 4.38 3.182 3.182 0 0 0 4.38 1.028.5.5 0 1 1 .528.85"/>
        <path d="M37.55 26.179l6.239 2.215-1.755-3.62a.488.488 0 0 1-.021-.385.511.511 0 0 1 .258-.286l3.645-1.706-6.24-2.212-2.193 1.023a.5.5 0 0 1-.378.016l-14.939-5.3c-.391-.139-.796-.1-1.18.154a.541.541 0 0 1-.39.067.587.587 0 0 1-.102-.036l-3.43-1.213c-1.204-.43-1.336-.243-1.466.121-.13.363-.141.59 1.063 1.016l3.468 1.231a.53.53 0 0 1 .321.323c.13.41.43.724.82.864l14.938 5.3a.497.497 0 0 1 .282.253l1.06 2.175zm7.485 3.519a.507.507 0 0 1-.432.046l-7.582-2.69a.498.498 0 0 1-.28-.253l-1.061-2.175-14.744-5.232a2.323 2.323 0 0 1-1.35-1.263l-3.26-1.155c-.577-.204-1.028-.403-1.346-.706-.302-.288-.603-.8-.324-1.589.534-1.513 2.026-.982 2.743-.729l3.261 1.157a2.325 2.325 0 0 1 1.842-.128l14.745 5.232 2.193-1.021a.5.5 0 0 1 .378-.02l7.581 2.691a.498.498 0 0 1 .047.924l-4.292 2.007 2.067 4.26a.499.499 0 0 1-.186.644z"/>
    </g>
</svg>
