<svg xmlns="http://www.w3.org/2000/svg" width="35" height="36" viewBox="0 0 35 36">
    <g fill="#EC1C24" fill-rule="evenodd">
        <path d="M30.693 35.105h-2.616a.438.438 0 1 1 0-.876h2.616a3.165 3.165 0 0 0 3.161-3.161V4.038a3.166 3.166 0 0 0-3.16-3.164H5.787a3.166 3.166 0 0 0-3.163 3.163v27.031a3.166 3.166 0 0 0 3.163 3.161h16.444a.438.438 0 0 1 0 .876H5.788a4.044 4.044 0 0 1-4.039-4.037V4.038A4.043 4.043 0 0 1 5.79 0h24.904a4.04 4.04 0 0 1 4.036 4.037v27.031a4.041 4.041 0 0 1-4.036 4.037"/>
        <path d="M28.068 35.105H25.45a.437.437 0 0 1 0-.876h2.618a.438.438 0 0 1 0 .876M6.922 35.105H4.037A4.043 4.043 0 0 1 0 31.068V4.038A4.042 4.042 0 0 1 4.037 0h3.324a.438.438 0 0 1 0 .874H4.037a3.166 3.166 0 0 0-3.16 3.163v27.031a3.165 3.165 0 0 0 3.16 3.161h2.885a.438.438 0 1 1 0 .876"/>
        <path d="M7.023 18.692h2.838v-2.837H7.023v2.837zm3.009.876h-3.18a.707.707 0 0 1-.705-.705v-3.18c0-.387.318-.704.705-.704h3.18c.387 0 .705.317.705.704v3.18a.707.707 0 0 1-.705.705zM13.365 18.692h2.837v-2.837h-2.837v2.837zm3.008.876h-3.18a.707.707 0 0 1-.704-.705v-3.18c0-.387.317-.704.704-.704h3.18c.388 0 .703.317.703.704v3.18a.705.705 0 0 1-.703.705zM7.751 31.313c.132.031.35.062.64.062h12.785c.29 0 .507-.03.637-.062v-2.715c-.13-.031-.348-.06-.637-.06H8.39c-.29 0-.508.029-.64.06v2.715zm13.425.938H8.39c-.691 0-1.514-.122-1.514-.706v-3.179c0-.582.823-.704 1.514-.704h12.785c.69 0 1.513.122 1.513.704v3.179c0 .584-.822.706-1.513.706zM19.706 18.692h2.837v-2.837h-2.837v2.837zm3.007.876h-3.177a.707.707 0 0 1-.706-.705v-3.18c0-.387.317-.704.706-.704h3.177c.39 0 .706.317.706.704v3.18a.706.706 0 0 1-.706.705zM26.047 18.692h2.837v-2.837h-2.837v2.837zm3.008.876h-3.178a.706.706 0 0 1-.704-.705v-3.18c0-.387.315-.704.704-.704h3.178c.39 0 .705.317.705.704v3.18a.706.706 0 0 1-.705.705zM7.023 25.033h2.838v-2.837H7.023v2.837zm3.009.876h-3.18a.706.706 0 0 1-.705-.705v-3.178c0-.39.318-.706.705-.706h3.18c.387 0 .705.317.705.706v3.178c0 .39-.318.705-.705.705zM13.365 25.033h2.837v-2.837h-2.837v2.837zm3.008.876h-3.18a.706.706 0 0 1-.704-.705v-3.178c0-.39.317-.706.704-.706h3.18c.388 0 .703.317.703.706v3.178c0 .39-.315.705-.703.705zM19.706 25.033h2.837v-2.837h-2.837v2.837zm3.007.876h-3.177a.706.706 0 0 1-.706-.705v-3.178c0-.39.317-.706.706-.706h3.177c.39 0 .706.317.706.706v3.178c0 .39-.316.705-.706.705zM26.047 25.033h2.837v-2.837h-2.837v2.837zm3.008.876h-3.178a.705.705 0 0 1-.704-.705v-3.178c0-.39.315-.706.704-.706h3.178c.39 0 .705.317.705.706v3.178c0 .39-.315.705-.705.705zM26.047 31.376h2.837v-2.837h-2.837v2.837zm3.008.874h-3.178a.705.705 0 0 1-.704-.706v-3.177c0-.389.315-.704.704-.704h3.178c.39 0 .705.315.705.704v3.177c0 .39-.315.706-.705.706zM27.743 4.312H7.837a1.892 1.892 0 0 0-1.894 1.892v3.619c0 1.044.847 1.89 1.894 1.89h19.906a1.893 1.893 0 0 0 1.893-1.89V6.204a1.893 1.893 0 0 0-1.893-1.892"/>
    </g>
</svg>
