<svg xmlns="http://www.w3.org/2000/svg" width="42" height="42" viewBox="0 0 42 42">
    <g fill="#EC1C24" fill-rule="evenodd">
        <path d="M25.447 21.39l12.325 8.629a16.462 16.462 0 0 0 2.724-8.63H25.447zm12.456 9.844a.505.505 0 0 1-.292-.092l-14.062-9.844a.507.507 0 1 1 .292-.92l17.17-.001c.28 0 .506.228.506.507 0 3.662-1.107 7.167-3.2 10.135a.506.506 0 0 1-.414.215zM22.585 17.736h16.15c-.262-8.788-7.364-15.887-16.15-16.15v16.15zm16.663 1.013H22.08a.508.508 0 0 1-.508-.507V1.072c0-.28.228-.507.508-.507 9.747 0 17.675 7.93 17.675 17.677 0 .28-.226.507-.507.507z"/>
        <path d="M18.93 4.226c-8.954.27-16.157 7.64-16.157 16.658 0 2.58.575 5.051 1.704 7.35a16.696 16.696 0 0 0 2.873 4.12 16.707 16.707 0 0 0 3.956 3.078c3.671 2.057 8.156 2.635 12.226 1.607a16.652 16.652 0 0 0 3.026-1.085 16.772 16.772 0 0 0 6.23-5.106l-13.641-9.55a.507.507 0 0 1-.217-.414V4.226zm.506 34.334a17.69 17.69 0 0 1-8.623-2.244 17.715 17.715 0 0 1-4.197-3.265 17.649 17.649 0 0 1-3.046-4.37 17.502 17.502 0 0 1-1.81-7.797c0-9.749 7.93-17.677 17.676-17.677.28 0 .507.226.507.507V20.62l13.847 9.694a.504.504 0 0 1 .123.706 17.71 17.71 0 0 1-6.924 5.85 17.547 17.547 0 0 1-7.553 1.69z"/>
        <path d="M17.676 41.202a17.659 17.659 0 0 1-12.821-5.509 17.672 17.672 0 0 1-3.045-4.37A17.512 17.512 0 0 1 0 23.527c0-3.15 0-10.522 9.462-17.145a.506.506 0 1 1 .58.829C1.013 13.53 1.013 20.28 1.013 23.525c0 2.578.572 5.053 1.703 7.35a16.727 16.727 0 0 0 6.83 7.198c3.67 2.057 8.16 2.635 12.224 1.61 1.041-.266 2.06-.63 3.025-1.088.956-.454 1.874-1 2.727-1.626 1.399-1.028 4.423-5.024 5.59-6.691a.507.507 0 0 1 .828.581c-.989 1.415-4.182 5.723-5.819 6.925a17.78 17.78 0 0 1-2.891 1.726 17.662 17.662 0 0 1-3.212 1.153 17.732 17.732 0 0 1-4.342.538"/>
    </g>
</svg>
