<svg xmlns="http://www.w3.org/2000/svg" width="34" height="20" viewBox="0 0 34 20">
    <path fill="#EC1C24" fill-rule="evenodd" d="M17 0c6.872 0 12.813 4.295 15.747 6.872A3.618 3.618 0 0 1 34 9.592c0 1.037-.465 2.04-1.253 2.72-2.934 2.576-8.875 6.871-15.747 6.871S4.187 14.888 1.253 12.312A3.618 3.618 0 0 1 0 9.592c0-1.038.465-2.04 1.253-2.72C4.187 4.295 10.128 0 17 0zm0 2.219c-4.08 0-7.373 3.328-7.373 7.373 0 4.044 3.293 7.372 7.373 7.372a7.362 7.362 0 0 0 7.373-7.372A7.362 7.362 0 0 0 17 2.219zm-6.37.859c-3.544 1.36-6.478 3.579-8.232 5.118-.43.358-.644.859-.644 1.396 0 .536.214 1.037.644 1.467 1.754 1.539 4.688 3.722 8.231 5.118-1.682-1.682-2.755-3.973-2.755-6.55 0-2.576 1.038-4.903 2.755-6.55zm12.74-.072c1.683 1.682 2.756 3.973 2.756 6.55s-1.038 4.903-2.755 6.55c3.543-1.36 6.478-3.58 8.231-5.119a1.94 1.94 0 0 0 .644-1.467c0-.537-.25-1.038-.644-1.396-1.753-1.539-4.688-3.722-8.231-5.118zM17 4.94a4.643 4.643 0 0 1 4.653 4.653A4.643 4.643 0 0 1 17 14.244a4.643 4.643 0 0 1-4.653-4.652c0-.86.251-1.682.68-2.362.251.751.967 1.288 1.79 1.288a1.925 1.925 0 0 0 1.933-1.933c0-.644-.323-1.18-.788-1.539.322-.071.68-.107 1.038-.107z"/>
</svg>
