<svg xmlns="http://www.w3.org/2000/svg" width="37" height="40" viewBox="0 0 37 40">
    <path fill="#EC1C24" fill-rule="evenodd" d="M23.599 23.666a6.273 6.273 0 0 0-3.345-4.657 4.242 4.242 0 0 0 1.509-3.255 4.27 4.27 0 0 0-4.265-4.265 4.27 4.27 0 0 0-4.266 4.265c0 1.23.528 2.38 1.422 3.18a6.237 6.237 0 0 0-3.49 4.73 8.622 8.622 0 0 1-2.437-6.008C8.727 12.884 12.61 9 17.383 9c4.773 0 8.656 3.883 8.656 8.656a8.62 8.62 0 0 1-2.44 6.01m-6.216 2.646a8.606 8.606 0 0 1-5.283-1.814 5.252 5.252 0 0 1 3.745-4.956.5.5 0 0 0 .094-.918 3.266 3.266 0 1 1 4.824-2.87 3.251 3.251 0 0 1-1.787 2.909.501.501 0 0 0 .07.92 5.276 5.276 0 0 1 3.62 4.915 8.603 8.603 0 0 1-5.283 1.814m0-18.312c-5.325 0-9.656 4.332-9.656 9.656 0 5.325 4.331 9.657 9.656 9.657s9.656-4.332 9.656-9.657C27.04 12.332 22.708 8 17.383 8M35.62 27.366a1.292 1.292 0 0 1-1.08.593h-2.807a.5.5 0 0 0-.5.5v2.248c0 1.97-1.513 3.574-3.372 3.574h-2.74a.5.5 0 0 0-.5.5V39H6.828c-.074-5.008-1.29-7.521-3.738-12.13-1.59-2.994-2.293-6.405-2.038-9.865.63-8.514 7.205-15.377 15.295-15.963 4.463-.322 8.76 1.208 12.095 4.31 3.551 3.303 5.588 8.059 5.588 13.074-.003 2.179.375 4.213 1.124 6.048l.607 1.485a1.5 1.5 0 0 1-.14 1.407m1.066-1.785l-.607-1.485c-.7-1.713-1.053-3.621-1.05-5.697 0-5.264-2.153-10.287-5.907-13.78C25.58 1.327 21.013-.297 16.274.046 7.693.666.72 7.926.054 16.931c-.27 3.648.474 7.247 2.152 10.407C4.654 31.95 5.83 34.395 5.83 39.5a.5.5 0 0 0 .5.5h18.79a.5.5 0 0 0 .5-.5v-4.22h2.24c2.41 0 4.372-2.051 4.372-4.573V28.96h2.306c.772 0 1.469-.378 1.91-1.035a2.498 2.498 0 0 0 .237-2.343"/>
</svg>
