<svg xmlns="http://www.w3.org/2000/svg" width="50" height="41" viewBox="0 0 50 41">
    <path fill="#696969" fill-rule="evenodd" d="M35.055 29.774h.144v.145h3.053l-2.637 2.234.736.88 1.399-1.185v5.859h1.144V31.76l1.658 1.223.674-.928-2.897-2.137h3.14v-1.148h-6.414v1.003zm12-3.54H47a1.715 1.715 0 0 1-1.704-1.715c0-.947.764-1.717 1.703-1.717.94 0 1.705.77 1.705 1.716 0 .928-.735 1.686-1.65 1.715zm-19.492-.77l-.022-.04-.129.069c-.93.503-2.057.53-3.01.072L1.772 14.672a1.098 1.098 0 0 1-.628-.987c-.01-.43.213-.808.593-1.009L22.972 1.488a2.925 2.925 0 0 1 2.726-.003l22.018 11.54a.81.81 0 0 1 .439.726.804.804 0 0 1-.428.727l-.131.07.024.043-20.057 10.873zm15.245 2.029a6.65 6.65 0 0 1 1.748 2.276c1.624 3.39.214 7.49-3.143 9.136a6.812 6.812 0 0 1-2.232.662c-.333.039-1.218.039-1.55 0-2.889-.339-5.308-2.583-5.886-5.459a6.875 6.875 0 0 1 2.29-6.615c.96-.81 2.05-1.312 3.33-1.535.208-.037.603-.059 1.057-.059.454 0 .85.022 1.057.06 1.279.221 2.368.723 3.329 1.534zm-12.312 5.9c-3.639 1.185-7.346 1.24-11.018.165-3.133-.917-5.572-2.464-7.065-3.6a2.63 2.63 0 0 1-1.026-2.073v-7.31l12.52 6.027a4.48 4.48 0 0 0 4.048-.099l11.05-5.99v4.25c-.657-.03-1.436-.006-1.835.062-1.483.259-2.749.843-3.87 1.789a8.012 8.012 0 0 0-2.804 6.778zm17.032-11.689v-5.813l.741-.401a1.968 1.968 0 0 0 1.03-1.748 1.965 1.965 0 0 0-1.054-1.735L26.228.464a4.072 4.072 0 0 0-3.786.005L1.207 11.657a2.245 2.245 0 0 0-1.206 2.05c.015.864.506 1.631 1.28 2.004l8.962 4.313v7.86c0 1.17.553 2.287 1.48 2.99 2.27 1.725 6.98 4.619 13.017 4.619 1.962 0 3.956-.317 5.93-.943.75 3.252 3.535 5.773 6.828 6.157.197.024.529.038.911.038.37 0 .707-.014.903-.036a7.973 7.973 0 0 0 2.604-.771c3.919-1.924 5.566-6.709 3.672-10.666a7.77 7.77 0 0 0-2.044-2.66 7.923 7.923 0 0 0-3.396-1.688v-5.032l6.237-3.381v5.21a2.838 2.838 0 0 0-2.233 2.794A2.866 2.866 0 0 0 47 27.382a2.865 2.865 0 0 0 2.847-2.865 2.882 2.882 0 0 0-2.32-2.813z"/>
</svg>
