<svg xmlns="http://www.w3.org/2000/svg" width="14" height="147" viewBox="0 0 14 147">
    <path fill="#222220" fill-rule="nonzero" d="M8.792 141.467l-4.816 1.732v-1.062l3.528-1.23-3.528-1.173v-1.006l4.816 1.732v1.007zm0-5.31H3.976v-.95h4.816v.95zM7 129.897h-.784v-2.068H8.12c.224.223.392.503.504.894.168.391.224.782.224 1.174 0 .503-.112.95-.336 1.285-.224.391-.504.67-.896.839-.392.167-.84.279-1.288.279-.504 0-.952-.112-1.344-.335a2.295 2.295 0 0 1-.896-.895c-.168-.28-.224-.67-.224-1.173 0-.615.112-1.062.392-1.398.224-.335.616-.559 1.008-.67l.168.95c-.224.056-.448.167-.56.391a1.197 1.197 0 0 0-.224.67c0 .448.112.783.392 1.007.28.223.672.391 1.176.391.56 0 1.008-.112 1.288-.391.28-.28.448-.56.448-1.006 0-.224-.056-.392-.112-.615a1.08 1.08 0 0 0-.28-.503h-.616L7 129.897zm1.736-5.087H3.92v-.95h4.816v.95zm0-4.08h-4.76v-.95h3.976v-2.404h.784v3.354zm0-10.508v1.062l-1.064.447v1.9l1.064.392v1.006l-4.816-1.845v-1.006l4.816-1.956zm-1.904 1.789l-1.792.67 1.792.671v-1.341zm-2.912-4.416v-1.789c0-.39.056-.726.112-.894.056-.28.224-.503.448-.726.224-.224.448-.336.784-.448.28-.111.672-.167 1.12-.167.392 0 .728.056 1.008.167.336.112.616.28.84.503.168.168.28.392.392.671.056.224.112.503.112.839v1.844H3.92zm.84-1.006h3.192v-.727c0-.28 0-.447-.056-.559a.9.9 0 0 0-.224-.39c-.112-.113-.224-.169-.448-.28a3.516 3.516 0 0 0-.896-.112c-.392 0-.672.056-.84.112-.224.056-.336.167-.448.28-.112.111-.168.279-.224.446-.056.112-.056.392-.056.783v.447zm1.624-5.813c-.504 0-.896-.056-1.232-.224-.224-.111-.448-.279-.672-.447a2.482 2.482 0 0 1-.448-.615c-.112-.279-.168-.67-.168-1.006 0-.726.224-1.285.672-1.676.448-.448 1.064-.615 1.848-.615s1.4.223 1.792.615c.448.447.672 1.006.672 1.676 0 .727-.224 1.286-.672 1.677-.448.391-1.064.615-1.792.615zm-.056-1.006c.56 0 .952-.112 1.232-.391.28-.28.392-.56.392-.95 0-.392-.168-.727-.392-.95-.28-.224-.672-.392-1.232-.392-.56 0-.952.112-1.232.335-.28.224-.392.56-.392.95 0 .392.112.727.392.95.28.336.672.448 1.232.448zM3.92 91.61l-.056-.727c.28-.056.448-.112.56-.224.112-.111.168-.335.168-.559 0-.223-.056-.39-.168-.503-.112-.111-.224-.167-.336-.167-.056 0-.168 0-.224.056a1.221 1.221 0 0 0-.168.279c-.056.112-.112.28-.168.615-.112.391-.224.67-.336.838-.224.224-.448.336-.728.336-.224 0-.336-.056-.504-.168-.168-.112-.28-.28-.392-.447-.056-.224-.112-.447-.112-.727 0-.447.112-.782.28-1.062a1.14 1.14 0 0 1 .84-.335l.056.726c-.168 0-.336.056-.392.168a1.051 1.051 0 0 0 0 .95.425.425 0 0 0 .224.112.425.425 0 0 0 .224-.112c.112-.056.168-.28.28-.67.112-.336.168-.615.28-.783.112-.168.224-.28.392-.391a.947.947 0 0 1 .56-.168c.224 0 .392.056.616.168.168.112.336.28.392.503.056.223.112.503.112.782 0 .448-.112.839-.336 1.062-.336.224-.672.392-1.064.448zM1.4 87.753v-.727h2.632c.168-.056.28-.112.336-.223.112-.112.112-.28.112-.503 0-.224 0-.392-.112-.503a.308.308 0 0 0-.28-.168c-.112-.056-.336-.056-.616-.056H1.456v-.727H3.36c.448 0 .784 0 .952.056.168 0 .336.112.448.224.112.112.224.223.28.447a2.587 2.587 0 0 1 0 1.51 3.1 3.1 0 0 1-.336.446c-.112.112-.28.168-.392.224-.224.056-.504.056-.952.056l-1.96-.056zm3.696-3.913H1.4v-1.173c0-.448 0-.727.056-.895a1.16 1.16 0 0 1 .336-.559c.224-.167.448-.223.728-.223.224 0 .392.056.56.112.168.111.28.167.336.335.112.112.168.28.168.391.056.168.056.447.056.783v.447h1.4l.056.782zm-3.08-.726H3.08v-.392c0-.335 0-.503-.056-.614-.056-.056-.112-.168-.168-.224-.112-.056-.168-.056-.28-.056-.112 0-.224.056-.336.112-.112.112-.112.168-.168.335v.503l-.056.336zm3.08-2.907H1.4v-2.739h.616v2.013h.84v-1.845h.616v1.845H4.48v-2.068h.616v2.794zm0-3.689H1.4v-1.565c0-.391 0-.67.112-.838a.87.87 0 0 1 .336-.447 1.13 1.13 0 0 1 .616-.168c.28 0 .504.112.672.224.168.167.28.39.336.726.112-.167.168-.28.28-.391.112-.112.336-.224.616-.391l.728-.447v.894l-.784.559c-.28.167-.504.335-.56.391a.772.772 0 0 0-.168.224c0 .111-.056.223-.056.39v.169H5.04l.056.67zm-2.128-.726v-.56c0-.39 0-.614-.056-.67 0-.056-.112-.168-.168-.224a.428.428 0 0 0-.28-.111c-.112 0-.224.056-.336.111a.427.427 0 0 0-.112.28v1.118l.952.056zm2.128-3.13H1.4v-.727h3.696v.727zm0-1.677H1.4v-.727l2.464-1.509H1.4v-.727h3.696v.727l-2.408 1.51h2.408v.726zm-.056-4.751H1.96v1.062h-.616v-2.907h.616v1.062h3.08v.783zm0-2.515H1.344v-2.74h.616v1.957h.84v-1.844h.616v1.844h1.008v-2.068h.616v2.85zm0-3.69H1.344v-.726l2.464-1.51H1.344v-.67H5.04v.727l-2.408 1.453H5.04v.727zM1.4 56.174v-1.341c0-.336 0-.56.056-.727a1.16 1.16 0 0 1 .336-.559c.168-.168.392-.28.616-.335.224-.056.504-.112.84-.112.336 0 .56.056.784.112.28.111.504.223.672.39.112.113.224.28.28.504.056.168.056.391.056.67v1.398H1.4zm.616-.783H4.48v-.558c0-.224 0-.336-.056-.448a.307.307 0 0 0-.168-.28.861.861 0 0 0-.336-.223c-.168-.056-.392-.056-.672-.056s-.504 0-.672.056c-.168.056-.28.112-.336.224-.112.112-.112.224-.168.335 0 .112-.056.28-.056.615v.335zm3.024-3.185H1.344v-2.74h.616v2.013h.84v-1.845h.616v1.845h1.008V49.41h.616v2.795zm0-3.634H1.344v-.726l2.464-1.51H1.344v-.67H5.04v.727L2.632 47.9H5.04v.67zm-1.344-6.315l.224-.727c.392.112.728.28.896.559.168.223.28.559.28 1.006 0 .503-.168.894-.504 1.174-.336.335-.784.447-1.344.447-.616 0-1.064-.168-1.456-.447a1.642 1.642 0 0 1-.504-1.23c0-.447.112-.838.392-1.118.168-.168.392-.28.672-.391l.168.727c-.224.055-.336.111-.448.279-.112.168-.168.28-.168.503 0 .28.112.503.28.67.224.168.504.28.952.28.448 0 .784-.056 1.008-.223.168-.224.28-.392.28-.671 0-.168-.056-.391-.168-.503-.112-.168-.28-.28-.56-.335zm1.344-1.51H1.344v-.726H5.04v.726zm0-4.974v.782l-.84.336v1.453l.84.28v.782l-3.696-1.397v-.783l3.696-1.453zm-1.456 1.341l-1.4.503 1.4.503v-1.006zm1.456-3.41H1.344V31.19h.616v1.788h.896v-1.565h.616v1.565H5.04v.727zm0-3.353H1.344v-.726H5.04v.726zm0-1.677H1.344v-.726l2.464-1.51H1.344v-.67H5.04v.727l-2.408 1.509H5.04v.67zm-.056-7.21v.839l-.84.335v1.453l.84.28v.782L1.288 23.7v-.783l3.696-1.453zm-1.4 1.342l-1.4.503 1.4.503v-1.006zm1.4-1.957H1.288v-.726l2.464-1.51H1.288v-.67h3.696v.726l-2.408 1.454h2.408v.726zm-1.344-6.26l.224-.726c.392.055.728.28.896.503.168.28.28.614.28 1.006 0 .503-.168.894-.504 1.173-.336.336-.784.504-1.344.504-.616 0-1.064-.168-1.456-.504a1.642 1.642 0 0 1-.504-1.23c0-.446.112-.838.392-1.117.168-.168.392-.28.672-.391l.168.726c-.224 0-.336.112-.448.224a.943.943 0 0 0-.168.559c0 .28.112.503.28.615.224.167.504.28.952.28.448 0 .784-.113 1.008-.28a.925.925 0 0 0 .28-.671c0-.224-.056-.391-.168-.503-.056-.056-.28-.112-.56-.168zm1.344-1.565H1.288v-.726h3.696v.726zm0-1.677H1.288V8.608h.616v2.012h.84V8.775h.616v1.845h1.008V8.552h.616v2.794zm0-3.633H1.288V6.148c0-.391 0-.67.112-.838a.87.87 0 0 1 .336-.447 1.13 1.13 0 0 1 .616-.168c.28 0 .504.056.672.224.168.167.28.39.336.726.112-.167.168-.28.28-.391.112-.112.336-.224.616-.447l.728-.447v.894l-.784.559c-.28.168-.504.335-.56.391-.056.056-.112.112-.168.224 0 .112-.056.223-.056.391v.168h1.512l.056.726zm-2.128-.726v-.56c0-.335 0-.558-.056-.67 0-.112-.112-.168-.168-.224-.056-.055-.168-.055-.28-.055-.112 0-.224.055-.336.111a.427.427 0 0 0-.112.28v1.174l.952-.056zM4.984.447v.839l-.84.335v1.453l.84.336v.782L1.288 2.739v-.783L4.984.447zM3.528 1.844l-1.4.504 1.4.503V1.844zM8.064 65.06V63.72c0-.28 0-.56.056-.727a1.16 1.16 0 0 1 .336-.559c.168-.168.336-.28.56-.335.224-.056.56-.112.896-.112.28 0 .56.056.784.112.28.112.504.223.672.391.112.112.224.335.28.503.056.168.112.391.112.67v1.398H8.064zm.616-.727h2.464v-.558c0-.224 0-.392-.056-.448-.056-.111-.112-.223-.168-.28a.903.903 0 0 0-.392-.223c-.168-.056-.392-.056-.672-.056s-.504 0-.672.056c-.168.056-.28.112-.336.224l-.168.335c-.056.112-.056.336-.056.615l.056.335zm3.08-3.185H8.064v-2.74h.616v1.957h.84v-1.844h.616v1.844h1.008v-2.068h.616v2.85zm-1.4-7.658l.224-.727c.392.112.728.28.896.56.224.223.28.558.28.95 0 .503-.168.894-.504 1.173-.336.336-.784.503-1.344.503-.616 0-1.12-.167-1.4-.503-.336-.28-.504-.726-.504-1.23 0-.446.112-.838.392-1.117.168-.168.392-.28.672-.391l.168.726c-.224.056-.336.168-.448.28a.9.9 0 0 0-.168.503c0 .28.112.503.28.67.224.168.504.28.952.28.448 0 .784-.112 1.008-.28.224-.167.28-.39.28-.67 0-.224-.056-.336-.168-.503a9.79 9.79 0 0 1-.616-.224zm-.448-1.397c-.392 0-.728-.056-.952-.168a.816.816 0 0 1-.504-.335 1.32 1.32 0 0 1-.336-.503 1.782 1.782 0 0 1-.168-.783c0-.559.168-1.006.504-1.285.336-.336.84-.503 1.4-.503.616 0 1.064.167 1.4.503.336.335.504.726.504 1.285 0 .56-.168 1.006-.504 1.286-.336.335-.784.503-1.344.503zm-.056-.783c.392 0 .728-.112.952-.28.224-.167.336-.446.336-.726 0-.335-.112-.559-.336-.726-.224-.224-.56-.28-.952-.28-.392 0-.728.112-.952.28-.224.167-.336.447-.336.726 0 .28.112.56.336.727.224.223.56.28.952.28zm1.848-3.633H8.008v-.726h3.08v-1.845h.616v2.571zm-1.792-3.13c-.392 0-.728-.056-.952-.168a1.955 1.955 0 0 1-.504-.335 1.32 1.32 0 0 1-.336-.503 1.782 1.782 0 0 1-.168-.782c0-.56.168-.95.504-1.286.336-.335.84-.503 1.4-.503.616 0 1.064.168 1.4.503.336.28.504.727.504 1.286 0 .558-.168 1.006-.504 1.285-.336.335-.784.503-1.344.503zm-.056-.782c.392 0 .728-.112.952-.28.224-.223.336-.447.336-.726 0-.28-.112-.56-.336-.727-.224-.168-.56-.28-.952-.28-.392 0-.728.112-.952.28-.224.168-.336.447-.336.727 0 .335.112.558.336.726.224.168.56.28.952.28zm1.848-3.578H8.008V39.07l2.52-.671-2.52-.67V36.61h3.696v.671H8.792l2.912.727v.726l-2.912.727h2.912v.726zM8.008 35.66v-1.453c0-.28 0-.503.056-.67.056-.169.056-.28.168-.392a.674.674 0 0 1 .28-.28c.112-.055.28-.111.448-.111.168 0 .336.056.448.167.168.112.28.224.336.392a.814.814 0 0 1 .336-.503.947.947 0 0 1 .56-.168c.168 0 .336.056.504.112.168.056.28.167.392.28a.9.9 0 0 1 .168.502c0 .112.056.447.056.894v1.23H8.008zm.616-.727h.84v-.503-.559a.427.427 0 0 0-.112-.279.428.428 0 0 0-.28-.112.428.428 0 0 0-.28.112.427.427 0 0 0-.112.28v.67l-.056.391zm1.456 0h1.008v-.726-.503c0-.112-.056-.168-.168-.28-.056-.056-.168-.111-.336-.111-.112 0-.168.055-.28.111a.772.772 0 0 0-.168.224c-.056.112-.056.335-.056.67v.615zm1.624-3.185H8.008v-.727h3.696v.727zm0-4.975v.783l-.84.335v1.453l.84.28v.782l-3.696-1.341v-.783l3.696-1.509zm-1.456 1.341l-1.4.503 1.4.504v-1.007zM.392 146.721h1.176l-.056-52.037H.336l.056 52.037zm12.096 0h1.176l-.056-52.037h-1.176l.056 52.037z"/>
</svg>
