<svg xmlns="http://www.w3.org/2000/svg" width="36" height="38" viewBox="0 0 36 38">
    <path fill="#FFF" fill-rule="evenodd" d="M19.126 0c.822 0 1.568.335 2.108.876.541.54.877 1.286.877 2.108v2.44c6.787 1.894 7.227 9.032 7.613 15.311.12 1.95.235 3.812.546 5.327.11.536.569 1.255 1.014 1.952.587.919 1.154 1.809 1.21 2.672.078 1.25-.653 2.132-3.066 2.3a.92.92 0 0 1-.121.007h-6.45c-.19 1.06-.699 2.01-1.43 2.74a5.162 5.162 0 0 1-3.663 1.518c-1.43 0-2.725-.58-3.663-1.518a5.169 5.169 0 0 1-1.431-2.74H6.22l-.058-.001c-2.463-.158-3.208-1.045-3.128-2.306.055-.863.622-1.753 1.21-2.672.445-.697.903-1.416 1.013-1.952.312-1.515.426-3.376.545-5.327.386-6.278.829-13.414 7.615-15.309V2.984c0-.822.335-1.568.875-2.108A2.974 2.974 0 0 1 16.4 0zm1.843 32.993h-6.41a3.334 3.334 0 0 0 5.563 1.435c.393-.393.689-.885.847-1.435zM18.107 6.78l-.322.005a.51.51 0 0 1-.11-.002c-9.158-.17-9.628 7.477-10.032 14.06-.124 2.012-.241 3.932-.582 5.587-.178.867-.73 1.732-1.267 2.573-.455.712-.895 1.402-.92 1.799-.01.153.32.277 1.35.345h23.08c1.03-.068 1.36-.192 1.35-.345-.025-.397-.466-1.087-.92-1.8-.537-.84-1.09-1.705-1.267-2.572-.34-1.655-.458-3.575-.582-5.587-.405-6.6-.876-14.269-10.1-14.058zm14.158 6.18c.83.384 1.547.972 2.084 1.7a5.351 5.351 0 0 1 1.047 3.186 5.39 5.39 0 0 1-3.13 4.886h-.001v-1.708a3.878 3.878 0 0 0 1.642-3.178 3.877 3.877 0 0 0-1.642-3.178zm-29.134.001v1.707a3.875 3.875 0 0 0-1.642 3.178 3.874 3.874 0 0 0 1.642 3.178v1.708a5.401 5.401 0 0 1-1.94-1.513A5.352 5.352 0 0 1 0 17.846c0-1.19.389-2.293 1.047-3.186a5.4 5.4 0 0 1 2.084-1.699zM19.126 1.846h-2.725c-.312 0-.596.128-.802.335-.207.206-.335.49-.335.803v2.083a17.055 17.055 0 0 1 2.43-.122.756.756 0 0 1 .049-.003v.003h.02c.906-.02 1.732.026 2.501.121V2.984c0-.312-.128-.597-.335-.803a1.132 1.132 0 0 0-.803-.335z"/>
</svg>
