<svg xmlns="http://www.w3.org/2000/svg" width="38" height="47" viewBox="0 0 38 47">
    <path fill="#FFF" fill-rule="evenodd" d="M9.611 17.556a.513.513 0 0 0-.484.54.512.512 0 0 0 .532.49h19.323a.512.512 0 0 0 .515-.508.512.512 0 0 0-.5-.522H9.61zm26.6 8.927c-.181 9.85-9.47 15.02-17.241 18.529-7.772-3.509-17.06-8.68-17.182-18.53l-.303-16.19C8.405 9.37 13.99 7.4 18.97 2.353c5.039 5.047 10.624 7.017 17.545 7.94l-.303 16.19zM18.972 0C12.781 6.567 8.77 7.787 0 8.834l.286 17.492c.23 11.1 10.03 16.214 18.685 20.224 8.655-4.01 18.513-9.124 18.685-20.224L38 8.834C29.288 7.787 25.218 6.625 18.971 0zm-6.817 13.43a.513.513 0 0 0-.485.54.512.512 0 0 0 .533.492h14.237a.512.512 0 0 0 .516-.508.513.513 0 0 0-.501-.523h-14.3zM9.15 29.415h20.34v-8.765H9.15v8.765zm-.556-9.796a.512.512 0 0 0-.461.515v9.796c0 .285.227.516.508.516h21.357a.512.512 0 0 0 .508-.516v-9.796a.512.512 0 0 0-.508-.515H8.595zm2.288-4.125a.514.514 0 0 0-.485.54.512.512 0 0 0 .532.491h16.78a.512.512 0 0 0 .516-.508.513.513 0 0 0-.501-.523H10.883zm3.367 9.023h-2.557a.513.513 0 0 0-.532.54.512.512 0 0 0 .532.49h2.542a.511.511 0 0 0 .516-.507.512.512 0 0 0-.501-.523zm5.07 2.578a2.04 2.04 0 0 1-2.034-2.062 2.04 2.04 0 0 1 2.034-2.063c1.13 0 2.034.917 2.034 2.063a2.04 2.04 0 0 1-2.034 2.062zm0-5.156c-1.679 0-3.05 1.39-3.05 3.094 0 1.702 1.371 3.093 3.05 3.093 1.68 0 3.051-1.391 3.051-3.093 0-1.703-1.372-3.094-3.05-3.094zm7.642 2.578h-2.557a.513.513 0 0 0-.532.54.512.512 0 0 0 .532.49h2.543a.512.512 0 0 0 .516-.507.513.513 0 0 0-.502-.523z"/>
</svg>
