<svg xmlns="http://www.w3.org/2000/svg" width="41" height="42" viewBox="0 0 41 42">
    <path fill="#FFF" fill-rule="evenodd" d="M18.987 4.105c.446 0 .805.361.805.806a.805.805 0 0 1-.805.807H2.24a.628.628 0 0 0-.63.625v19.378h33.68v-3.548a.806.806 0 1 1 1.61 0v8.085a2.242 2.242 0 0 1-2.241 2.238h-12.26v3.725a4.043 4.043 0 0 1 3.625 4.018.806.806 0 0 1-.806.806H11.682a.806.806 0 0 1-.806-.806A4.042 4.042 0 0 1 14.5 36.22v-3.725H2.24A2.242 2.242 0 0 1 0 30.258V6.343a2.242 2.242 0 0 1 2.24-2.238zm3.003 33.71h-7.08a2.429 2.429 0 0 0-2.285 1.617h11.65a2.43 2.43 0 0 0-2.285-1.618zm-1.202-5.32h-4.676v3.706h4.676v-3.706zm14.501-5.161H1.611v2.924c0 .344.282.625.629.625h32.419c.347 0 .63-.28.63-.625v-2.924zm-16.838 1.398c.18 0 .355.073.483.2a.687.687 0 0 1 0 .967.692.692 0 0 1-.483.201.688.688 0 0 1-.684-.684.688.688 0 0 1 .684-.684zM11.93 8.209c2.347 0 4.257 2 4.257 4.459 0 .884-.25 1.705-.674 2.4 1.28.762 1.57 1.87 1.57 2.712v3.571c0 .299-.231.54-.518.54a.529.529 0 0 1-.517-.54v-3.57c0-.842-.388-1.44-1.209-1.866a4.197 4.197 0 0 1-1.85 1.068l.775 2.513a.556.556 0 0 1-.106.524l-1.314 1.532a.509.509 0 0 1-.386.18.508.508 0 0 1-.386-.18L10.26 20.02a.551.551 0 0 1-.108-.521l.761-2.504a4.2 4.2 0 0 1-1.89-1.076c-.783.425-1.153 1.023-1.153 1.861v3.57c0 .3-.232.54-.519.54a.528.528 0 0 1-.517-.54v-3.57c0-.84.28-1.942 1.517-2.706a4.586 4.586 0 0 1-.679-2.406c0-2.46 1.91-4.459 4.259-4.459zm24.286 10.946a.69.69 0 0 1 .485.2.69.69 0 0 1 0 .967.688.688 0 0 1-.968 0 .687.687 0 0 1 0-.967.688.688 0 0 1 .483-.2zM12.05 17.46h-.193l-.63 2.072.732.852.73-.852-.64-2.072zM36.663.447c2.167 0 3.93 1.821 3.93 4.06v8.69c0 2.239-1.763 4.059-3.93 4.059h-7.85l-2.574 2.66a.77.77 0 0 1-.855.175.813.813 0 0 1-.486-.75v-2.11c-1.958-.23-3.484-1.952-3.484-4.035V4.507c0-2.239 1.763-4.06 3.93-4.06zm0 1.624H25.344c-1.3 0-2.359 1.093-2.359 2.436v8.69c0 1.343 1.059 2.435 2.36 2.435h.34a.8.8 0 0 1 .786.813v.935l1.462-1.51a.773.773 0 0 1 .555-.238h8.175c1.3 0 2.359-1.092 2.359-2.436V4.507c0-1.343-1.06-2.436-2.36-2.436zM11.929 9.287c-1.777 0-3.223 1.517-3.223 3.38 0 1.866 1.446 3.383 3.223 3.383s3.222-1.517 3.222-3.382c0-1.864-1.445-3.38-3.222-3.38zm24.167 1.658c.444 0 .804.307.804.685 0 .377-.36.684-.804.684H26.77c-.444 0-.804-.307-.804-.684 0-.378.36-.685.804-.685zm0-2.736c.444 0 .804.306.804.684 0 .378-.36.684-.804.684H26.77c-.444 0-.804-.306-.804-.684 0-.378.36-.684.804-.684zm-.67-3.42c.436 0 .79.305.79.684 0 .377-.354.684-.79.684h-5.934c-.438 0-.792-.307-.792-.684 0-.379.354-.684.792-.684zm-8.776 0a.685.685 0 0 1 0 1.368.687.687 0 0 1-.683-.684.688.688 0 0 1 .683-.684z"/>
</svg>
