<?xml version="1.0" standalone="no"?>
<!DOCTYPE svg PUBLIC "-//W3C//DTD SVG 1.1//EN" "http://www.w3.org/Graphics/SVG/1.1/DTD/svg11.dtd" >
<svg xmlns="http://www.w3.org/2000/svg" xmlns:xlink="http://www.w3.org/1999/xlink" version="1.1">
<metadata>
Created by FontForge 20181214 at Fri Nov  4 18:41:07 2005
 By convertio
Version 1.2/ created on 26-09-94/Copr.1994 by Dutch Type Library
</metadata>
<defs>
<font id="GoogleSans-Light" horiz-adv-x="557" >
  <font-face 
    font-family="GoogleSans Light"
    font-weight="300"
    font-stretch="normal"
    units-per-em="1000"
    panose-1="2 0 5 3 6 0 0 2 0 4"
    ascent="774"
    descent="-226"
    x-height="508"
    cap-height="706"
    bbox="-208 -226 937 951"
    underline-thickness="20"
    underline-position="-133"
    stemh="58"
    stemv="86"
    unicode-range="U+0020-FB02"
  />
<missing-glyph horiz-adv-x="500" 
 />
    <glyph glyph-name=".notdef" horiz-adv-x="500" 
 />
    <glyph glyph-name="Eth" unicode="&#xd0;" horiz-adv-x="689" 
d="M641 364c0 -159 -57 -270 -166 -325c-57 -28 -122 -39 -236 -39h-157v341h-82v56h82v309h189c129 0 180 -10 235 -45c88 -56 135 -161 135 -297zM546 355c0 133 -42 227 -119 266c-39 19 -79 26 -158 26h-98v-250h139v-56h-139v-282h84c79 0 130 9 170 30
c78 41 121 135 121 266z" />
    <glyph glyph-name="eth" unicode="&#xf0;" horiz-adv-x="560" 
d="M512 314c0 -205 -88 -325 -238 -325c-141 0 -230 100 -230 257c0 163 94 273 233 273c52 0 88 -13 130 -49c-18 76 -54 133 -107 168l-78 -64l-34 39l62 53c-26 13 -59 19 -105 19h-18v59c97 1 130 -5 180 -31l74 62l35 -40l-58 -48c99 -70 154 -203 154 -373zM424 256
c0 131 -50 204 -140 204c-94 0 -147 -74 -147 -205c0 -137 49 -207 145 -207c90 0 142 77 142 208z" />
    <glyph glyph-name="Lslash" unicode="&#x141;" horiz-adv-x="444" 
d="M429 0h-347v306l-82 -63v68l82 63v332h89v-282l142 109v-68l-142 -109v-295h258v-61z" />
    <glyph glyph-name="lslash" unicode="&#x142;" horiz-adv-x="237" 
d="M237 450l-76 -58v-392h-85v343l-76 -59v64l76 58v368h85v-319l76 59v-64z" />
    <glyph glyph-name="Scaron" unicode="&#x160;" horiz-adv-x="509" 
d="M435 906l-174 -147l-173 147l33 28l140 -72l140 72zM461 191c0 -120 -91 -200 -229 -200c-46 0 -104 11 -184 36v54c81 -19 119 -25 166 -25c106 0 157 40 157 123c0 47 -19 80 -62 105l-141 83c-74 43 -109 96 -109 166c0 113 81 182 215 182c43 0 85 -9 162 -34v-53
c-60 18 -103 25 -147 25c-96 0 -144 -36 -144 -107c0 -51 22 -78 94 -118l115 -65c73 -42 107 -96 107 -172z" />
    <glyph glyph-name="scaron" unicode="&#x161;" horiz-adv-x="413" 
d="M378 739l-168 -159l-168 159l31 28l137 -85l137 85zM368 143c0 -93 -71 -152 -181 -152c-33 0 -78 8 -141 26v55c57 -15 94 -20 140 -20c66 0 101 28 101 79c0 30 -14 50 -45 67l-94 48c-65 33 -94 74 -94 132c0 84 64 139 161 139c34 0 67 -6 130 -25v-54
c-44 13 -82 19 -119 19c-61 0 -92 -23 -92 -66c0 -32 15 -50 62 -74l95 -51c53 -28 77 -66 77 -123z" />
    <glyph glyph-name="Yacute" unicode="&#xdd;" horiz-adv-x="567" 
d="M439 877l-176 -118l-37 31l134 149zM566 706l-231 -416v-290h-89v289l-240 417h99l194 -353l178 353h89z" />
    <glyph glyph-name="yacute" unicode="&#xfd;" horiz-adv-x="479" 
d="M375 718l-163 -133l-38 26l119 161zM474 508l-246 -629c-30 -78 -64 -105 -130 -105c-13 0 -28 3 -51 9v50c13 -1 21 -2 30 -2c53 0 67 13 97 90l31 79l-200 508h99l145 -409l143 409h82z" />
    <glyph glyph-name="Thorn" unicode="&#xde;" horiz-adv-x="531" 
d="M510 430c0 -84 -36 -151 -100 -188c-41 -24 -94 -34 -178 -34h-61v-208h-89v706h89v-74h74c97 0 144 -9 183 -35c53 -35 82 -94 82 -167zM415 424c0 106 -50 152 -166 152h-78v-312h75c116 0 169 50 169 160z" />
    <glyph glyph-name="thorn" unicode="&#xfe;" horiz-adv-x="565" 
d="M520 268c0 -157 -105 -274 -246 -274c-38 0 -79 9 -113 25v-245h-85v1000h85v-297c5 2 8 3 11 4c83 30 108 37 137 37c127 0 211 -100 211 -250zM427 260c0 122 -60 192 -166 192c-34 0 -71 -4 -100 -12v-376c23 -6 57 -10 86 -10c114 0 180 75 180 206z" />
    <glyph glyph-name="Zcaron" unicode="&#x17d;" horiz-adv-x="571" 
d="M474 906l-174 -147l-173 147l33 28l140 -72l140 72zM541 0h-510v59l399 588h-374v59h474v-59l-399 -588h410v-59z" />
    <glyph glyph-name="zcaron" unicode="&#x17e;" horiz-adv-x="474" 
d="M406 739l-168 -159l-168 159l31 28l137 -85l137 85zM434 0h-393v63l288 391h-274v54h367v-60l-285 -394h297v-54z" />
    <glyph glyph-name="onehalf" unicode="&#xbd;" horiz-adv-x="824" 
d="M224 282h-61v361c-32 -6 -66 -12 -96 -17v38c53 12 92 27 118 46h39v-428zM680 706l-477 -706h-59l477 706h59zM777 0h-270v51c57 49 103 94 143 140c47 54 60 80 60 119c0 48 -30 72 -94 72c-30 0 -64 -5 -102 -14v40c58 16 88 22 122 22c92 0 141 -39 141 -112
s-47 -133 -207 -268h207v-50z" />
    <glyph glyph-name="onequarter" unicode="&#xbc;" horiz-adv-x="824" 
d="M224 282h-61v361c-32 -6 -66 -12 -96 -17v38c53 12 92 27 118 46h39v-428zM680 706l-477 -706h-59l477 706h59zM806 107h-56v-107h-60v107h-207v48l216 272h51v-273h56v-47zM690 154v194l-150 -194h150z" />
    <glyph glyph-name="onesuperior" unicode="&#xb9;" horiz-adv-x="352" 
d="M225 282h-61v361c-35 -7 -67 -12 -97 -17v38c54 12 93 27 119 46h39v-428z" />
    <glyph glyph-name="threequarters" unicode="&#xbe;" horiz-adv-x="824" 
d="M305 403c0 -75 -63 -127 -154 -127c-30 0 -59 5 -123 23v40c41 -11 75 -16 108 -16c67 0 102 29 102 82s-32 78 -102 78h-27v40h18c64 0 96 26 96 76c0 45 -27 67 -82 67c-28 0 -57 -5 -95 -15v38c53 18 82 24 113 24c81 0 129 -39 129 -104c0 -50 -19 -76 -76 -103
c62 -11 93 -44 93 -103zM680 706l-477 -706h-59l477 706h59zM806 107h-56v-107h-60v107h-207v48l216 272h51v-273h56v-47zM690 154v194l-150 -194h150z" />
    <glyph glyph-name="threesuperior" unicode="&#xb3;" horiz-adv-x="352" 
d="M305 403c0 -75 -63 -127 -154 -127c-30 0 -59 5 -123 23v40c41 -11 75 -16 108 -16c67 0 102 29 102 82s-32 78 -102 78h-27v40h18c64 0 96 26 96 76c0 45 -27 67 -82 67c-28 0 -57 -5 -95 -15v38c53 18 82 24 113 24c81 0 129 -39 129 -104c0 -50 -19 -76 -76 -103
c62 -11 93 -44 93 -103z" />
    <glyph glyph-name="twosuperior" unicode="&#xb2;" horiz-adv-x="352" 
d="M305 283h-270v51c57 49 103 94 143 140c47 54 60 80 60 119c0 48 -30 72 -94 72c-31 0 -62 -4 -102 -14v39c56 17 87 23 122 23c92 0 141 -39 141 -112s-47 -133 -207 -268h207v-50z" />
    <glyph glyph-name="brokenbar" unicode="&#xa6;" horiz-adv-x="530" 
d="M307 352h-85v354h85v-354zM307 -177h-85v339h85v-339z" />
    <glyph glyph-name="minus" unicode="&#x2212;" 
d="M501 334h-445v61h445v-61z" />
    <glyph glyph-name="multiply" unicode="&#xd7;" 
d="M499 192l-48 -49l-174 174l-172 -173l-47 47l173 172l-174 174l49 49l173 -174l173 172l46 -46l-172 -172z" />
    <glyph glyph-name="space" unicode=" " horiz-adv-x="200" 
 />
    <glyph glyph-name="exclam" unicode="!" horiz-adv-x="288" 
d="M196 706l-21 -548h-62l-21 548h104zM206 46c0 -41 -22 -63 -63 -63c-40 0 -61 21 -61 61c0 41 22 63 63 63c40 0 61 -21 61 -61z" />
    <glyph glyph-name="quotedbl" unicode="&#x22;" horiz-adv-x="274" 
d="M226 706l-11 -216h-48l-10 216h69zM117 706l-11 -216h-47l-11 216h69z" />
    <glyph glyph-name="numbersign" unicode="#" horiz-adv-x="554" 
d="M549 490l-9 -48h-126l-31 -178h126l-9 -48h-125l-39 -216h-57l38 216h-128l-38 -216h-57l38 216h-126l8 48h126l32 178h-126l8 48h126l38 216h58l-39 -216h128l39 216h57l-38 -216h126zM357 442h-128l-31 -178h128z" />
    <glyph glyph-name="dollar" unicode="$" 
d="M470 202c0 -97 -62 -165 -165 -182v-74h-46v70c-49 1 -98 10 -173 33v51c76 -18 110 -23 155 -23c2 0 10 0 18 1v252l-61 36c-70 40 -102 90 -102 155c0 93 60 154 163 167v72h46v-70c33 -1 80 -11 142 -32v-49c-58 17 -93 22 -142 23v-233l65 -37
c69 -38 100 -89 100 -160zM259 425v202c-55 -11 -83 -43 -83 -95c0 -46 16 -67 83 -107zM386 191c0 44 -18 75 -57 98l-24 14v-219c54 14 81 49 81 107z" />
    <glyph glyph-name="percent" horiz-adv-x="650" 
d="M346 565c0 -87 -65 -154 -150 -154c-92 0 -152 59 -152 150c0 92 61 155 151 155c93 0 151 -58 151 -151zM593 706l-477 -706h-59l477 706h59zM605 145c0 -89 -64 -155 -150 -155c-93 0 -152 58 -152 151c0 91 62 155 151 155c94 0 151 -57 151 -151zM283 563
c0 68 -32 105 -89 105c-54 0 -87 -40 -87 -106c0 -64 33 -102 87 -102s89 41 89 103zM542 143c0 67 -32 105 -89 105c-54 0 -87 -40 -87 -106c0 -64 33 -102 87 -102s89 41 89 103z" />
    <glyph glyph-name="ampersand" unicode="&#x26;" horiz-adv-x="651" 
d="M636 0h-112l-39 45c-55 -37 -122 -56 -196 -56c-150 0 -244 76 -244 199c0 84 33 128 141 190l-18 19c-51 56 -74 106 -74 160c0 98 70 160 178 160c105 0 169 -59 169 -155c0 -81 -40 -131 -151 -185l217 -238c25 29 33 66 33 141v36h84v-35c0 -79 -24 -138 -76 -185z
M361 563c0 65 -31 100 -90 100s-92 -35 -92 -98c0 -47 18 -85 62 -132l19 -20c74 43 101 84 101 150zM448 86l-230 256c-54 -30 -80 -74 -80 -138c0 -97 62 -153 169 -153c58 0 108 12 141 35z" />
    <glyph glyph-name="quotesingle" unicode="'" horiz-adv-x="165" 
d="M117 706l-11 -216h-47l-11 216h69z" />
    <glyph glyph-name="parenleft" unicode="(" horiz-adv-x="337" 
d="M286 -193l-45 -33c-78 109 -93 135 -119 194c-44 102 -63 195 -63 306c0 125 26 237 82 346c21 41 39 69 100 154l45 -33c-104 -169 -139 -288 -139 -467s35 -298 139 -467z" />
    <glyph glyph-name="parenright" unicode=")" horiz-adv-x="337" 
d="M278 274c0 -125 -26 -236 -82 -346c-21 -41 -40 -70 -100 -154l-45 33c102 165 139 288 139 467s-35 298 -139 467l45 33c71 -98 92 -132 119 -194c43 -100 63 -195 63 -306z" />
    <glyph glyph-name="asterisk" unicode="*" 
d="M429 567l-29 -50l-108 83l18 -136h-58l16 136l-106 -83l-30 50l125 52l-129 50l30 53l110 -82l-16 135h58l-18 -135l108 82l29 -50l-125 -53z" />
    <glyph glyph-name="plus" unicode="+" 
d="M501 334h-189v-192h-68v192h-188v61h188v192h68v-192h189v-61z" />
    <glyph glyph-name="comma" unicode="," horiz-adv-x="277" 
d="M203 19c0 -75 -23 -108 -102 -144l-27 40c45 26 58 44 57 78h-3c-38 3 -55 21 -55 55c0 38 23 59 62 59c46 0 68 -29 68 -88z" />
    <glyph glyph-name="hyphen" unicode="-" horiz-adv-x="321" 
d="M282 232h-243v76h243v-76z" />
    <glyph glyph-name="period" unicode="." horiz-adv-x="274" 
d="M201 54c0 -43 -22 -65 -65 -65c-41 0 -63 22 -63 63c0 42 23 65 65 65c41 0 63 -22 63 -63z" />
    <glyph glyph-name="slash" unicode="/" horiz-adv-x="355" 
d="M292 774l-189 -1000h-64l189 1000h64z" />
    <glyph glyph-name="zero" unicode="0" 
d="M507 368c0 -254 -77 -380 -232 -380c-150 0 -226 120 -226 357c0 246 80 373 236 373c148 0 222 -116 222 -350zM411 360c0 219 -35 301 -130 301s-136 -95 -136 -312c0 -213 41 -305 135 -305c95 0 131 87 131 316z" />
    <glyph glyph-name="one" unicode="1" 
d="M351 0h-88v613c-50 -11 -108 -22 -155 -29v53c81 19 140 43 186 75h57v-712z" />
    <glyph glyph-name="two" unicode="2" 
d="M481 0h-424v78c107 99 171 164 230 236c76 92 98 138 98 205c0 87 -52 129 -157 129c-47 0 -99 -7 -160 -22v55c86 26 137 36 191 36c145 0 222 -64 222 -184c0 -92 -37 -161 -153 -281c-49 -51 -118 -116 -191 -179h344v-73z" />
    <glyph glyph-name="three" unicode="3" 
d="M480 197c0 -123 -99 -208 -242 -208c-50 0 -104 10 -193 37v55c56 -15 116 -24 169 -24c110 0 170 51 170 143c0 94 -55 138 -171 138h-38v57h24c105 0 160 46 160 135c0 80 -46 120 -139 120c-44 0 -90 -7 -147 -24v53c85 29 130 39 177 39c126 0 202 -64 202 -172
c0 -85 -47 -144 -139 -176c105 -8 167 -72 167 -173z" />
    <glyph glyph-name="four" unicode="4" 
d="M527 181h-90v-181h-85v181h-333v73l345 458h73v-463h90v-68zM352 249v352l-259 -352h259z" />
    <glyph glyph-name="five" unicode="5" 
d="M489 234c0 -145 -101 -245 -247 -245c-48 0 -89 9 -171 37v55c62 -17 103 -23 152 -23c112 0 176 62 176 172c0 103 -54 155 -162 155c-50 0 -94 -6 -143 -21v342h372v-73h-303v-201c45 11 76 15 109 15c136 0 217 -79 217 -213z" />
    <glyph glyph-name="six" unicode="6" 
d="M510 239c0 -150 -90 -247 -229 -247c-154 0 -229 109 -229 333c0 260 96 389 289 389c36 0 79 -9 146 -32v-54c-50 14 -90 21 -132 21c-132 0 -204 -84 -204 -235c69 22 106 29 151 29c130 0 208 -76 208 -204zM420 225c0 106 -49 156 -154 156c-29 0 -55 -2 -85 -8
c-7 -1 -11 -2 -21 -4c-8 -2 -11 -3 -11 -3l-1 -55c0 -183 43 -263 142 -263c78 0 130 71 130 177z" />
    <glyph glyph-name="seven" unicode="7" 
d="M484 638l-246 -638h-100l277 633h-366v73h435v-68z" />
    <glyph glyph-name="eight" unicode="8" 
d="M496 176c0 -113 -90 -190 -223 -190c-128 0 -212 69 -212 175c0 81 45 136 159 193l-24 14c-81 48 -115 99 -115 174c0 109 78 178 202 178c116 0 191 -64 191 -163c0 -79 -38 -126 -139 -175l37 -23c93 -57 124 -103 124 -183zM395 556c0 67 -44 108 -115 108
c-74 0 -118 -40 -118 -107c0 -52 22 -84 85 -122l45 -27c78 55 103 91 103 148zM406 167c0 55 -25 90 -93 131l-50 30c-77 -50 -112 -100 -112 -163c0 -78 48 -123 129 -123c78 0 126 48 126 125z" />
    <glyph glyph-name="nine" unicode="9" 
d="M505 380c0 -254 -99 -386 -289 -386c-37 0 -81 10 -146 32v55c49 -15 91 -22 133 -22c96 0 152 35 181 112c14 39 22 82 22 118c-70 -22 -106 -29 -151 -29c-131 0 -208 76 -208 206c0 149 90 246 229 246c154 0 229 -109 229 -332zM409 337v62c0 173 -47 257 -142 257
c-78 0 -130 -72 -130 -178s49 -156 154 -156c30 0 55 2 85 8c7 2 11 2 21 5c8 1 12 2 12 2z" />
    <glyph glyph-name="colon" unicode=":" horiz-adv-x="271" 
d="M197 447c0 -41 -22 -63 -62 -63c-41 0 -62 21 -62 61c0 41 22 63 63 63c40 0 61 -21 61 -61zM197 52c0 -41 -22 -63 -63 -63c-40 0 -61 21 -61 61c0 42 22 63 63 63c40 0 61 -21 61 -61z" />
    <glyph glyph-name="semicolon" unicode=";" horiz-adv-x="277" 
d="M203 447c0 -41 -22 -63 -62 -63c-41 0 -62 21 -62 61c0 42 22 63 63 63c40 0 61 -21 61 -61zM203 15c0 -68 -27 -106 -98 -139c-2 0 -5 -2 -8 -3l-20 42c40 20 60 43 60 70v6h-11c-31 0 -53 24 -53 58c0 36 23 58 61 58c46 0 69 -30 69 -92z" />
    <glyph glyph-name="less" unicode="&#x3c;" horiz-adv-x="530" 
d="M494 103l-459 218v73l459 217v-84l-368 -170l368 -170v-84z" />
    <glyph glyph-name="equal" unicode="=" 
d="M501 404h-445v61h445v-61zM501 263h-445v61h445v-61z" />
    <glyph glyph-name="greater" unicode="&#x3e;" horiz-adv-x="530" 
d="M495 320l-459 -217v85l369 169l-369 170v84l459 -218v-73z" />
    <glyph glyph-name="question" unicode="?" horiz-adv-x="454" 
d="M409 540c0 -67 -24 -115 -93 -189l-71 -77c-32 -34 -34 -38 -34 -68v-48h-73v54c0 39 4 49 44 98l86 106c32 40 45 73 45 117c0 78 -46 115 -142 115c-44 0 -91 -6 -157 -21v52c90 28 140 38 181 38c140 0 214 -62 214 -177zM240 46c0 -41 -22 -63 -63 -63
c-40 0 -61 21 -61 61c0 42 22 63 63 63c40 0 61 -21 61 -61z" />
    <glyph glyph-name="at" unicode="@" horiz-adv-x="802" 
d="M754 400c0 -143 -88 -245 -212 -245c-45 0 -66 13 -74 44c-51 -27 -82 -36 -118 -36c-71 0 -115 57 -115 148c0 140 85 238 206 238c24 0 44 -3 70 -11l56 11l-44 -276c-3 -14 -4 -29 -4 -40c0 -25 10 -34 36 -34c85 0 147 86 147 204c0 156 -117 264 -286 264
c-173 0 -312 -140 -312 -314c0 -188 131 -315 323 -315c82 0 151 15 223 49l16 -51c-73 -34 -151 -50 -239 -50c-222 0 -379 152 -379 367c0 203 163 366 366 366c199 0 340 -132 340 -319zM504 502c-14 3 -29 5 -49 5c-100 0 -158 -71 -158 -195c0 -65 27 -99 77 -99
c27 0 56 6 85 18z" />
    <glyph glyph-name="A" unicode="A" horiz-adv-x="616" 
d="M610 0h-92l-88 249h-254l-85 -249h-83l266 706h81zM408 308l-105 305l-104 -305h209z" />
    <glyph glyph-name="B" unicode="B" 
d="M509 196c0 -75 -37 -139 -100 -170c-40 -20 -78 -26 -170 -26h-157v706h162c94 0 136 -7 172 -31c44 -28 68 -76 68 -138c0 -84 -50 -144 -139 -168c104 -13 164 -76 164 -173zM389 527c0 89 -43 123 -155 123h-64v-255h70c99 0 149 44 149 132zM414 199
c0 97 -48 139 -162 139h-82v-282h70c69 0 100 7 129 30c28 23 45 64 45 113z" />
    <glyph glyph-name="C" unicode="C" horiz-adv-x="609" 
d="M581 25c-115 -26 -162 -33 -212 -33c-206 0 -321 123 -321 342c0 233 137 380 353 380c54 0 106 -10 180 -34v-52c-56 16 -111 24 -167 24c-173 0 -270 -109 -270 -304c0 -187 88 -288 251 -288c55 0 129 8 186 20v-55z" />
    <glyph glyph-name="D" unicode="D" horiz-adv-x="689" 
d="M641 363c0 -158 -57 -269 -166 -324c-57 -28 -122 -39 -236 -39h-157v706h189c129 0 180 -10 235 -45c88 -56 135 -161 135 -298zM546 354c0 133 -42 228 -119 267c-39 19 -80 26 -159 26h-97v-588h84c79 0 129 9 170 30c78 41 121 135 121 265z" />
    <glyph glyph-name="E" unicode="E" horiz-adv-x="496" 
d="M469 0h-387v706h370v-59h-281v-249h225v-59h-225v-280h298v-59z" />
    <glyph glyph-name="F" unicode="F" horiz-adv-x="469" 
d="M452 647h-281v-249h224v-59h-224v-339h-89v706h370v-59z" />
    <glyph glyph-name="G" unicode="G" horiz-adv-x="679" 
d="M609 26c-123 -28 -167 -35 -220 -35c-224 0 -341 119 -341 347c0 235 138 377 367 377c56 0 93 -7 187 -33v-52c-61 16 -118 23 -177 23c-181 0 -281 -106 -281 -299c0 -203 89 -299 277 -299c36 0 80 4 102 9v259h86v-297z" />
    <glyph glyph-name="H" unicode="H" horiz-adv-x="692" 
d="M610 0h-89v335h-350v-335h-89v706h89v-310h350v310h89v-706z" />
    <glyph glyph-name="I" unicode="I" horiz-adv-x="253" 
d="M171 0h-89v706h89v-706z" />
    <glyph glyph-name="J" unicode="J" horiz-adv-x="264" 
d="M182 -84c0 -100 -41 -142 -136 -142c-17 0 -28 1 -76 9v54c10 -1 16 -1 25 -1c79 0 98 16 98 82v788h89v-790z" />
    <glyph glyph-name="K" unicode="K" horiz-adv-x="581" 
d="M575 0h-117l-279 367l289 339h100l-294 -323zM171 0h-89v706h89v-706z" />
    <glyph glyph-name="L" unicode="L" horiz-adv-x="444" 
d="M429 0h-347v706h89v-645h258v-61z" />
    <glyph glyph-name="M" unicode="M" horiz-adv-x="829" 
d="M747 0h-82v647l-214 -647h-81l-217 641v-641h-71v706h130l209 -604l200 604h126v-706z" />
    <glyph glyph-name="N" unicode="N" horiz-adv-x="684" 
d="M602 0h-102l-347 608v-608h-71v706h108l341 -598v598h71v-706z" />
    <glyph glyph-name="O" unicode="O" horiz-adv-x="726" 
d="M678 370c0 -239 -117 -382 -311 -382c-203 0 -319 127 -319 348c0 239 117 382 312 382c201 0 318 -127 318 -348zM582 361c0 194 -76 297 -220 297c-141 0 -218 -109 -218 -308s75 -302 220 -302c142 0 218 109 218 313z" />
    <glyph glyph-name="P" unicode="P" horiz-adv-x="531" 
d="M510 504c0 -83 -36 -150 -100 -187c-41 -24 -94 -34 -178 -34h-61v-283h-89v706h163c97 0 144 -9 184 -35c52 -35 81 -94 81 -167zM415 498c0 107 -50 152 -166 152h-78v-311h75c116 0 169 50 169 159z" />
    <glyph glyph-name="Q" unicode="Q" horiz-adv-x="726" 
d="M678 365c0 -220 -96 -350 -277 -373c-1 -67 49 -100 152 -100c38 0 72 4 114 13v-51c-76 -18 -124 -25 -157 -25c-120 0 -198 61 -198 157v6c-175 27 -264 144 -264 347c0 236 117 379 312 379c203 0 318 -127 318 -353zM582 356c0 199 -75 302 -220 302
c-140 0 -218 -109 -218 -306c0 -202 74 -305 220 -305c141 0 218 110 218 309z" />
    <glyph glyph-name="R" unicode="R" horiz-adv-x="574" 
d="M565 0h-116l-251 342h-27v-342h-89v706h165c97 0 133 -6 170 -27c51 -29 77 -78 77 -144c0 -113 -70 -183 -192 -190zM400 523c0 91 -42 127 -148 127h-81v-260h79c101 0 150 44 150 133z" />
    <glyph glyph-name="S" unicode="S" horiz-adv-x="509" 
d="M461 191c0 -120 -91 -200 -229 -200c-46 0 -104 11 -184 36v54c81 -19 119 -25 166 -25c106 0 157 40 157 123c0 47 -19 80 -62 105l-141 83c-74 43 -109 96 -109 166c0 113 81 182 215 182c43 0 85 -9 162 -34v-53c-60 18 -103 25 -147 25c-96 0 -144 -36 -144 -107
c0 -51 22 -78 94 -118l115 -65c73 -42 107 -96 107 -172z" />
    <glyph glyph-name="T" unicode="T" horiz-adv-x="537" 
d="M522 645h-209v-645h-89v645h-208v61h506v-61z" />
    <glyph glyph-name="U" unicode="U" horiz-adv-x="663" 
d="M595 256c0 -95 -16 -146 -61 -194c-49 -51 -114 -75 -208 -75c-169 0 -258 87 -258 252v467h89v-460c0 -133 56 -195 177 -195s180 64 180 195v460h81v-450z" />
    <glyph glyph-name="V" unicode="V" horiz-adv-x="618" 
d="M612 706l-268 -706h-80l-256 706h91l215 -601l212 601h86z" />
    <glyph glyph-name="W" unicode="W" horiz-adv-x="931" 
d="M917 706l-195 -706h-94l-163 604l-159 -604h-97l-195 706h95l154 -610l163 610h91l163 -610l157 610h80z" />
    <glyph glyph-name="X" unicode="X" horiz-adv-x="602" 
d="M596 0h-101l-207 311l-183 -311h-99l246 364l-226 342h101l181 -277l161 277h94l-218 -330z" />
    <glyph glyph-name="Y" unicode="Y" horiz-adv-x="567" 
d="M566 706l-231 -416v-290h-89v289l-240 417h99l194 -353l178 353h89z" />
    <glyph glyph-name="Z" unicode="Z" horiz-adv-x="571" 
d="M541 0h-510v59l399 588h-374v59h474v-59l-399 -588h410v-59z" />
    <glyph glyph-name="bracketleft" unicode="[" horiz-adv-x="337" 
d="M270 -226h-170v1000h170v-54h-92v-892h92v-54z" />
    <glyph glyph-name="backslash" unicode="\" horiz-adv-x="355" 
d="M317 -226h-64l-189 1000h64z" />
    <glyph glyph-name="bracketright" unicode="]" horiz-adv-x="337" 
d="M237 -226h-170v54h92v892h-92v54h170v-1000z" />
    <glyph glyph-name="asciicircum" unicode="^" horiz-adv-x="530" 
d="M506 383h-92l-150 258l-149 -258h-91l185 326h112z" />
    <glyph glyph-name="underscore" unicode="_" horiz-adv-x="530" 
d="M530 -144h-530v78h530v-78z" />
    <glyph glyph-name="grave" unicode="`" horiz-adv-x="530" 
d="M330 611l-38 -26l-163 133l83 54z" />
    <glyph glyph-name="a" unicode="a" horiz-adv-x="497" 
d="M423 0h-82v31c-4 -1 -7 -2 -9 -3c-103 -35 -104 -35 -136 -35c-91 0 -151 57 -151 143s50 135 148 145c48 5 71 6 145 6v71c0 67 -27 93 -96 93c-42 0 -93 -6 -152 -16v50c98 24 143 32 182 32c52 0 93 -14 118 -41s33 -57 33 -132v-344zM338 68v172
c-69 -3 -76 -3 -109 -8c-63 -8 -93 -37 -93 -89c0 -57 37 -86 109 -86c30 0 58 3 93 11z" />
    <glyph glyph-name="b" unicode="b" horiz-adv-x="565" 
d="M521 267c0 -166 -110 -276 -277 -276c-45 0 -93 8 -168 29v754h85v-296c88 33 115 40 151 40c123 0 209 -103 209 -251zM428 253c0 125 -61 198 -165 198c-37 0 -60 -2 -102 -11v-389c22 -3 41 -5 57 -5c136 0 210 73 210 207z" />
    <glyph glyph-name="c" unicode="c" horiz-adv-x="469" 
d="M438 21c-86 -22 -125 -29 -161 -29c-150 0 -233 89 -233 249c0 174 96 275 261 275c38 0 74 -7 133 -26v-49c-45 11 -78 15 -123 15c-120 0 -178 -67 -178 -205c0 -135 57 -195 186 -195c33 0 82 5 115 13v-48z" />
    <glyph glyph-name="d" unicode="d" horiz-adv-x="565" 
d="M488 0h-85v30c-4 -1 -7 -2 -9 -3c-80 -29 -110 -37 -140 -37c-127 0 -211 100 -211 250c0 156 106 274 246 274c39 0 77 -8 114 -25v285h85v-774zM403 68v376c-24 6 -58 10 -86 10c-115 0 -181 -75 -181 -206c0 -122 61 -192 166 -192c36 0 70 4 101 12z" />
    <glyph glyph-name="e" unicode="e" horiz-adv-x="518" 
d="M473 254h-337c1 -3 1 -6 1 -7v-18c2 -120 58 -173 183 -173c34 0 71 3 130 11v-48c-87 -20 -137 -28 -173 -28c-151 0 -233 87 -233 248c0 174 86 278 228 278c99 0 164 -47 188 -138c9 -31 12 -61 13 -125zM379 305c0 114 -33 159 -115 159s-127 -56 -128 -159h243z" />
    <glyph glyph-name="f" unicode="f" horiz-adv-x="314" 
d="M344 714c-20 3 -46 5 -64 5c-73 0 -98 -23 -98 -88v-123h121v-54h-121v-454h-85v454h-76v54h76v110c0 105 48 157 145 157c24 0 49 -4 102 -16v-45z" />
    <glyph glyph-name="g" unicode="g" horiz-adv-x="565" 
d="M488 -39c0 -78 -20 -121 -70 -151c-41 -24 -91 -36 -157 -36c-44 0 -95 9 -180 31v57c63 -15 119 -22 169 -22c118 0 153 30 153 132v59c-5 -2 -8 -3 -11 -4c-76 -29 -107 -37 -137 -37c-127 0 -211 100 -211 250c0 156 106 274 245 274c40 0 69 -7 117 -26v20h82v-547z
M403 68v376c-24 6 -58 10 -86 10c-114 0 -180 -75 -180 -206c0 -122 60 -192 166 -192c35 0 70 4 100 12z" />
    <glyph glyph-name="h" unicode="h" 
d="M483 0h-85v307c0 112 -28 146 -119 146c-36 0 -75 -5 -118 -16v-437h-85v774h85v-297c95 35 124 42 165 42c49 0 97 -20 122 -50c25 -31 35 -70 35 -144v-325z" />
    <glyph glyph-name="i" unicode="i" horiz-adv-x="237" 
d="M175 660c0 -38 -20 -59 -57 -59c-35 0 -56 21 -56 58c0 34 21 55 56 55c37 0 57 -19 57 -54zM161 0h-85v508h85v-508z" />
    <glyph glyph-name="j" unicode="j" horiz-adv-x="243" 
d="M181 659c0 -37 -20 -58 -56 -58c-37 0 -57 20 -57 58c0 34 21 55 56 55c37 0 57 -19 57 -55zM167 -85c0 -63 -11 -91 -44 -115c-22 -16 -53 -25 -84 -25c-17 0 -54 4 -76 8v47c13 -1 18 -1 34 -1c66 0 85 19 85 86v593h85v-593z" />
    <glyph glyph-name="k" unicode="k" horiz-adv-x="497" 
d="M161 0h-85v774h85v-774zM489 0h-111l-206 282l215 226h102l-222 -216z" />
    <glyph glyph-name="l" unicode="l" horiz-adv-x="237" 
d="M161 0h-85v774h85v-774z" />
    <glyph glyph-name="m" unicode="m" horiz-adv-x="879" 
d="M805 0h-85v309c0 110 -28 144 -119 144c-37 0 -89 -7 -131 -19c8 -16 13 -42 13 -76v-358h-85v330c0 91 -29 122 -116 122c-37 0 -82 -5 -121 -15v-437h-85v508h83v-32c100 35 133 43 171 43c49 0 87 -15 118 -46c6 2 11 3 14 4c68 22 120 37 145 41c6 1 19 2 32 2
c119 0 166 -55 166 -194v-326z" />
    <glyph glyph-name="n" unicode="n" horiz-adv-x="556" 
d="M483 0h-85v307c0 112 -28 146 -119 146c-36 0 -75 -5 -118 -16v-437h-85v508h83v-32c94 35 125 43 167 43c49 0 97 -20 122 -50c25 -31 35 -70 35 -144v-325z" />
    <glyph glyph-name="o" unicode="o" horiz-adv-x="562" 
d="M517 261c0 -170 -90 -272 -240 -272c-143 0 -233 98 -233 254c0 174 89 276 240 276c144 0 233 -98 233 -258zM424 258c0 136 -50 209 -145 209c-88 0 -142 -79 -142 -210c0 -144 48 -216 145 -216c90 0 142 79 142 217z" />
    <glyph glyph-name="p" unicode="p" horiz-adv-x="565" 
d="M520 268c0 -157 -105 -274 -246 -274c-38 0 -79 9 -113 25v-245h-85v734h83v-31c4 2 8 3 10 4c83 30 110 37 140 37c127 0 211 -99 211 -250zM427 260c0 122 -60 192 -166 192c-34 0 -71 -4 -100 -12v-376c23 -6 57 -10 86 -10c114 0 180 75 180 206z" />
    <glyph glyph-name="q" unicode="q" horiz-adv-x="565" 
d="M489 -226h-85v256c-87 -33 -115 -40 -151 -40c-123 0 -209 103 -209 250c0 160 110 276 262 276c38 0 66 -4 105 -15l78 15v-742zM404 68v389c-22 3 -41 5 -57 5c-136 0 -210 -73 -210 -207c0 -125 61 -198 165 -198c37 0 59 2 102 11z" />
    <glyph glyph-name="r" unicode="r" horiz-adv-x="347" 
d="M343 421c-27 14 -61 21 -102 21c-23 0 -54 -4 -80 -10v-432h-85v508h83v-38c73 32 110 45 130 45c21 0 38 -4 54 -13v-81z" />
    <glyph glyph-name="s" unicode="s" horiz-adv-x="413" 
d="M367 143c0 -93 -71 -152 -181 -152c-33 0 -78 8 -141 26v55c57 -15 94 -20 140 -20c66 0 101 28 101 79c0 30 -14 50 -45 67l-94 48c-65 33 -94 74 -94 132c0 84 64 139 161 139c34 0 67 -6 130 -25v-54c-44 13 -82 19 -119 19c-61 0 -92 -23 -92 -66
c0 -32 15 -50 62 -74l95 -51c53 -28 77 -66 77 -123z" />
    <glyph glyph-name="t" unicode="t" horiz-adv-x="363" 
d="M346 17c-72 -18 -99 -23 -127 -23c-88 0 -125 39 -125 130v330h-76v54h76v127l85 34v-161h167v-54h-167v-310c0 -63 20 -83 82 -83c25 0 60 3 85 7v-51z" />
    <glyph glyph-name="u" unicode="u" horiz-adv-x="556" 
d="M480 0h-83v32c-90 -34 -124 -43 -167 -43c-49 0 -97 20 -122 50c-26 31 -35 70 -35 144v325h85v-307c0 -112 28 -146 119 -146c36 0 76 5 118 16v437h85v-508z" />
    <glyph glyph-name="v" unicode="v" horiz-adv-x="476" 
d="M471 508l-195 -508h-85l-186 508h99l139 -431l146 431h82z" />
    <glyph glyph-name="w" unicode="w" horiz-adv-x="739" 
d="M734 508l-164 -508h-79l-119 421l-121 -421h-82l-164 508h93l116 -418l122 418h84l119 -426l116 426h79z" />
    <glyph glyph-name="x" unicode="x" horiz-adv-x="459" 
d="M458 0h-96l-143 213l-131 -213h-88l184 265l-161 243h96l121 -185l110 185h82l-157 -236z" />
    <glyph glyph-name="y" unicode="y" horiz-adv-x="479" 
d="M474 508l-246 -629c-30 -78 -64 -105 -130 -105c-13 0 -28 3 -51 9v50c13 -1 21 -2 30 -2c53 0 67 13 97 90l31 79l-200 508h99l145 -409l143 409h82z" />
    <glyph glyph-name="z" unicode="z" horiz-adv-x="445" 
d="M420 0h-393v63l288 391h-274v54h367v-60l-285 -394h297v-54z" />
    <glyph glyph-name="braceleft" unicode="{" horiz-adv-x="337" 
d="M274 -226h-46c-53 0 -82 9 -102 31c-20 23 -23 38 -23 122v222c0 87 -8 106 -56 125c48 19 56 37 56 125v221c0 85 3 100 23 123c20 22 49 31 102 31h46v-54h-31c-52 0 -62 -14 -62 -84v-251c0 -60 -13 -91 -46 -108l-6 -3c39 -19 52 -47 52 -112v-250
c0 -71 10 -84 62 -84h31v-54z" />
    <glyph glyph-name="bar" unicode="|" horiz-adv-x="530" 
d="M307 -177h-85v883h85v-883z" />
    <glyph glyph-name="braceright" unicode="}" horiz-adv-x="337" 
d="M291 274c-46 -17 -56 -39 -56 -125v-222c0 -84 -3 -99 -23 -122c-20 -22 -49 -31 -102 -31h-46v54h31c52 0 62 13 62 84v250c0 65 13 92 52 112l-6 3c-33 17 -46 48 -46 108v251c0 70 -10 84 -62 84h-31v54h46c53 0 82 -9 102 -31c20 -23 23 -38 23 -123v-221
c0 -87 10 -108 56 -125z" />
    <glyph glyph-name="asciitilde" unicode="~" horiz-adv-x="706" 
d="M608 743c-41 -84 -89 -122 -152 -122c-17 0 -49 8 -79 19c-5 2 -9 4 -14 6l-19 9l-20 8l-20 9c-26 12 -49 18 -66 18c-36 0 -61 -21 -91 -76l-49 32c46 93 82 125 146 125c30 0 60 -9 119 -36c61 -28 76 -33 102 -33c38 0 61 17 92 71z" />
    <glyph glyph-name="Adieresis" unicode="&#xc4;" horiz-adv-x="616" 
d="M459 844c0 -37 -21 -59 -58 -59c-39 0 -58 18 -58 56c0 39 20 60 60 60c37 0 56 -20 56 -57zM274 844c0 -37 -21 -59 -58 -59c-39 0 -58 18 -58 56c0 39 20 60 59 60c37 0 57 -20 57 -57zM610 0h-92l-88 249h-254l-85 -249h-83l266 706h81zM408 308l-105 305l-104 -305
h209z" />
    <glyph glyph-name="Aring" unicode="&#xc5;" horiz-adv-x="616" 
d="M409 855c0 -58 -40 -98 -98 -98c-65 0 -103 36 -103 96c0 58 42 98 102 98s99 -38 99 -96zM610 0h-92l-88 249h-254l-85 -249h-83l266 706h81zM357 854c0 32 -17 49 -48 49c-30 0 -48 -19 -48 -48c0 -32 17 -50 48 -50c29 0 48 19 48 49zM408 308l-105 305l-104 -305h209
z" />
    <glyph glyph-name="Ccedilla" unicode="&#xc7;" horiz-adv-x="609" 
d="M581 25c-84 -19 -133 -28 -180 -32c-5 -1 -15 -1 -28 -1v-28c44 -10 68 -37 68 -76c0 -31 -17 -58 -48 -77c-10 -6 -25 -12 -62 -26l-16 38c40 17 52 30 52 60c0 27 -14 44 -44 54v57c-179 19 -275 137 -275 340c0 233 137 380 353 380c54 0 106 -10 180 -34v-52
c-56 16 -112 24 -167 24c-173 0 -270 -109 -270 -304c0 -187 88 -288 250 -288c56 0 131 8 187 20v-55z" />
    <glyph glyph-name="Eacute" unicode="&#xc9;" horiz-adv-x="496" 
d="M403 877l-176 -118l-37 31l133 149zM469 0h-387v706h370v-59h-281v-249h225v-59h-225v-280h298v-59z" />
    <glyph glyph-name="Ntilde" unicode="&#xd1;" horiz-adv-x="684" 
d="M526 870c-5 -6 -9 -11 -11 -13c-56 -67 -71 -78 -107 -78c-16 0 -29 5 -62 23l-33 18c-3 2 -8 5 -14 9c-16 9 -25 12 -33 12c-18 0 -22 -3 -76 -50l-33 27c5 6 9 11 11 14c57 68 71 78 107 78c16 0 29 -5 62 -23l33 -19c36 -20 37 -20 48 -20c17 0 21 3 76 49zM602 0
h-102l-347 608v-608h-71v706h108l341 -598v598h71v-706z" />
    <glyph glyph-name="Odieresis" unicode="&#xd6;" horiz-adv-x="726" 
d="M513 844c0 -37 -21 -59 -58 -59c-39 0 -58 18 -58 56c0 39 20 60 60 60c37 0 56 -20 56 -57zM328 844c0 -37 -21 -59 -58 -59c-39 0 -58 18 -58 56c0 39 20 60 59 60c37 0 57 -20 57 -57zM678 370c0 -239 -117 -382 -311 -382c-203 0 -319 127 -319 348
c0 239 117 382 312 382c201 0 318 -127 318 -348zM582 361c0 194 -76 297 -220 297c-141 0 -218 -109 -218 -308s75 -302 220 -302c142 0 218 109 218 313z" />
    <glyph glyph-name="Udieresis" unicode="&#xdc;" horiz-adv-x="648" 
d="M474 844c0 -37 -21 -59 -58 -59c-39 0 -58 18 -58 56c0 39 20 60 60 60c37 0 56 -20 56 -57zM289 844c0 -37 -21 -59 -58 -59c-39 0 -58 18 -58 56c0 39 20 60 60 60c36 0 56 -20 56 -57zM581 259c0 -102 -13 -146 -58 -194c-49 -52 -113 -76 -206 -76
c-169 0 -258 87 -258 253v464h89v-458c0 -133 56 -195 177 -195c122 0 185 66 185 195v458h71v-447z" />
    <glyph glyph-name="aacute" unicode="&#xe1;" horiz-adv-x="497" 
d="M384 718l-163 -133l-38 26l119 161zM423 0h-82v31c-4 -1 -7 -2 -9 -3c-103 -35 -104 -35 -136 -35c-91 0 -151 57 -151 143s50 135 148 145c48 5 71 6 145 6v71c0 67 -27 93 -96 93c-42 0 -93 -6 -152 -16v50c98 24 143 32 182 32c52 0 93 -14 118 -41s33 -57 33 -132
v-344zM338 68v172c-69 -3 -76 -3 -109 -8c-63 -8 -93 -37 -93 -89c0 -57 37 -86 109 -86c30 0 58 3 93 11z" />
    <glyph glyph-name="agrave" unicode="&#xe0;" horiz-adv-x="497" 
d="M313 611l-38 -26l-163 133l83 54zM423 0h-82v31c-4 -1 -7 -2 -9 -3c-103 -35 -104 -35 -136 -35c-91 0 -151 57 -151 143s50 135 148 145c48 5 71 6 145 6v71c0 67 -27 93 -96 93c-42 0 -93 -6 -152 -16v50c98 24 143 32 182 32c52 0 93 -14 118 -41s33 -57 33 -132v-344
zM338 68v172c-69 -3 -76 -3 -109 -8c-63 -8 -93 -37 -93 -89c0 -57 37 -86 109 -86c30 0 58 3 93 11z" />
    <glyph glyph-name="acircumflex" unicode="&#xe2;" horiz-adv-x="497" 
d="M417 611l-31 -28l-137 85l-137 -85l-31 28l168 163zM423 0h-82v31c-4 -1 -7 -2 -9 -3c-103 -35 -104 -35 -136 -35c-91 0 -151 57 -151 143s50 135 148 145c48 5 71 6 145 6v71c0 67 -27 93 -96 93c-42 0 -93 -6 -152 -16v50c98 24 143 32 182 32c52 0 93 -14 118 -41
s33 -57 33 -132v-344zM338 68v172c-69 -3 -76 -3 -109 -8c-63 -8 -93 -37 -93 -89c0 -57 37 -86 109 -86c30 0 58 3 93 11z" />
    <glyph glyph-name="adieresis" unicode="&#xe4;" horiz-adv-x="497" 
d="M395 668c0 -36 -20 -57 -56 -57c-38 0 -56 17 -56 54c0 38 20 58 57 58c36 0 55 -19 55 -55zM213 668c0 -36 -20 -57 -56 -57c-38 0 -56 17 -56 54c0 38 20 58 57 58c36 0 55 -19 55 -55zM423 0h-82v31c-4 -1 -7 -2 -9 -3c-103 -35 -104 -35 -136 -35
c-91 0 -151 57 -151 143s50 135 148 145c48 5 71 6 145 6v71c0 67 -27 93 -96 93c-42 0 -93 -6 -152 -16v50c98 24 143 32 182 32c52 0 93 -14 118 -41s33 -57 33 -132v-344zM338 68v172c-69 -3 -76 -3 -109 -8c-63 -8 -93 -37 -93 -89c0 -57 37 -86 109 -86
c30 0 58 3 93 11z" />
    <glyph glyph-name="atilde" unicode="&#xe3;" horiz-adv-x="497" 
d="M425 705c-5 -5 -9 -10 -12 -13c-54 -67 -68 -77 -103 -77c-15 0 -27 5 -59 23l-31 18c-2 1 -8 4 -14 8c-16 9 -24 12 -32 12c-17 0 -21 -3 -74 -49l-31 27c5 6 9 10 11 13c55 68 68 77 103 77c15 0 30 -6 59 -22l32 -18c3 -2 8 -5 14 -9c15 -9 23 -12 32 -12
c17 0 20 2 73 49zM423 0h-82v31c-4 -1 -7 -2 -9 -3c-103 -35 -104 -35 -136 -35c-91 0 -151 57 -151 143s50 135 148 145c48 5 71 6 145 6v71c0 67 -27 93 -96 93c-42 0 -93 -6 -152 -16v50c98 24 143 32 182 32c52 0 93 -14 118 -41s33 -57 33 -132v-344zM338 68v172
c-69 -3 -76 -3 -109 -8c-63 -8 -93 -37 -93 -89c0 -57 37 -86 109 -86c30 0 58 3 93 11z" />
    <glyph glyph-name="aring" unicode="&#xe5;" horiz-adv-x="497" 
d="M340 680c0 -53 -37 -90 -89 -90c-59 0 -94 33 -94 88c0 52 38 89 93 89c54 0 90 -34 90 -87zM423 0h-82v31c-4 -1 -7 -2 -9 -3c-103 -35 -104 -35 -136 -35c-91 0 -151 57 -151 143s50 135 148 145c48 5 71 6 145 6v71c0 67 -27 93 -96 93c-42 0 -93 -6 -152 -16v50
c98 24 143 32 182 32c52 0 93 -14 118 -41s33 -57 33 -132v-344zM292 678c0 29 -15 45 -44 45c-26 0 -43 -17 -43 -44c0 -28 16 -45 43 -45s44 17 44 44zM338 68v172c-69 -3 -76 -3 -109 -8c-63 -8 -93 -37 -93 -89c0 -57 37 -86 109 -86c30 0 58 3 93 11z" />
    <glyph glyph-name="ccedilla" unicode="&#xe7;" horiz-adv-x="469" 
d="M438 20c-89 -22 -123 -28 -159 -29v-25c44 -11 67 -38 67 -77c0 -48 -24 -71 -109 -102l-16 37c41 17 53 31 53 61c0 26 -14 43 -45 53v57c-122 21 -185 104 -185 246c0 174 96 275 261 275c38 0 77 -7 133 -26v-49c-45 11 -78 15 -123 15c-120 0 -178 -67 -178 -205
c0 -135 57 -195 186 -195c33 0 80 5 115 12v-48z" />
    <glyph glyph-name="eacute" unicode="&#xe9;" horiz-adv-x="518" 
d="M394 718l-163 -133l-38 26l119 161zM473 254h-337c1 -3 1 -6 1 -7v-18c2 -120 58 -173 183 -173c34 0 71 3 130 11v-48c-87 -20 -137 -28 -173 -28c-151 0 -233 87 -233 248c0 174 86 278 228 278c99 0 164 -47 188 -138c9 -31 12 -61 13 -125zM379 305
c0 114 -33 159 -115 159s-127 -56 -128 -159h243z" />
    <glyph glyph-name="egrave" unicode="&#xe8;" horiz-adv-x="518" 
d="M324 611l-38 -26l-163 133l83 54zM473 254h-337c1 -3 1 -6 1 -7v-18c2 -120 58 -173 183 -173c34 0 71 3 130 11v-48c-87 -20 -137 -28 -173 -28c-151 0 -233 87 -233 248c0 174 86 278 228 278c99 0 164 -47 188 -138c9 -31 12 -61 13 -125zM379 305
c0 114 -33 159 -115 159s-127 -56 -128 -159h243z" />
    <glyph glyph-name="ecircumflex" unicode="&#xea;" horiz-adv-x="518" 
d="M434 611l-31 -28l-137 85l-137 -85l-31 28l168 163zM473 254h-337c1 -3 1 -6 1 -7v-18c2 -120 58 -173 183 -173c34 0 71 3 130 11v-48c-87 -20 -137 -28 -173 -28c-151 0 -233 87 -233 248c0 174 86 278 228 278c99 0 164 -47 188 -138c9 -31 12 -61 13 -125zM379 305
c0 114 -33 159 -115 159s-127 -56 -128 -159h243z" />
    <glyph glyph-name="edieresis" unicode="&#xeb;" horiz-adv-x="518" 
d="M406 668c0 -36 -20 -57 -56 -57c-38 0 -56 17 -56 54c0 38 20 58 57 58c36 0 55 -19 55 -55zM224 668c0 -36 -20 -57 -56 -57c-38 0 -56 17 -56 54c0 38 20 58 57 58c36 0 55 -19 55 -55zM473 254h-337c1 -3 1 -6 1 -7v-18c2 -120 58 -173 183 -173c34 0 71 3 130 11v-48
c-87 -20 -137 -28 -173 -28c-151 0 -233 87 -233 248c0 174 86 278 228 278c99 0 164 -47 188 -138c9 -31 12 -61 13 -125zM379 305c0 114 -33 159 -115 159s-127 -56 -128 -159h243z" />
    <glyph glyph-name="iacute" unicode="&#xed;" horiz-adv-x="237" 
d="M254 718l-163 -133l-38 26l119 161zM161 0h-85v508h85v-508z" />
    <glyph glyph-name="igrave" unicode="&#xec;" horiz-adv-x="237" 
d="M176 611l-38 -26l-163 133l83 54zM160 0h-85v508h85v-508z" />
    <glyph glyph-name="icircumflex" unicode="&#xee;" horiz-adv-x="411" 
d="M362 620l-31 -28l-126 76l-126 -76l-30 28l156 154zM248 0h-85v508h85v-508z" />
    <glyph glyph-name="idieresis" unicode="&#xef;" horiz-adv-x="237" 
d="M256 668c0 -36 -20 -57 -56 -57c-38 0 -56 17 -56 54c0 38 20 58 57 58c36 0 55 -19 55 -55zM94 668c0 -36 -20 -57 -56 -57c-38 0 -56 17 -56 54c0 38 20 58 57 58c36 0 55 -19 55 -55zM161 0h-85v508h85v-508z" />
    <glyph glyph-name="ntilde" unicode="&#xf1;" horiz-adv-x="556" 
d="M460 705c-5 -5 -9 -10 -12 -13c-54 -67 -68 -77 -103 -77c-15 0 -27 5 -59 23l-31 18c-2 1 -8 4 -14 8c-16 9 -24 12 -32 12c-17 0 -21 -3 -74 -49l-31 27c5 6 9 10 11 13c55 68 68 77 103 77c15 0 30 -6 59 -22l32 -18c3 -2 8 -5 14 -9c15 -9 23 -12 32 -12
c17 0 20 2 73 49zM483 0h-85v307c0 112 -28 146 -119 146c-36 0 -75 -5 -118 -16v-437h-85v508h83v-32c94 35 125 43 167 43c49 0 97 -20 122 -50c25 -31 35 -70 35 -144v-325z" />
    <glyph glyph-name="oacute" unicode="&#xf3;" horiz-adv-x="562" 
d="M416 718l-163 -133l-38 26l119 161zM517 261c0 -170 -90 -272 -240 -272c-143 0 -233 98 -233 254c0 174 89 276 240 276c144 0 233 -98 233 -258zM424 258c0 136 -50 209 -145 209c-88 0 -142 -79 -142 -210c0 -144 48 -216 145 -216c90 0 142 79 142 217z" />
    <glyph glyph-name="ograve" unicode="&#xf2;" horiz-adv-x="562" 
d="M346 611l-38 -26l-163 133l83 54zM517 261c0 -170 -90 -272 -240 -272c-143 0 -233 98 -233 254c0 174 89 276 240 276c144 0 233 -98 233 -258zM424 258c0 136 -50 209 -145 209c-88 0 -142 -79 -142 -210c0 -144 48 -216 145 -216c90 0 142 79 142 217z" />
    <glyph glyph-name="ocircumflex" unicode="&#xf4;" horiz-adv-x="562" 
d="M450 611l-31 -28l-137 85l-137 -85l-31 28l168 163zM517 261c0 -170 -90 -272 -240 -272c-143 0 -233 98 -233 254c0 174 89 276 240 276c144 0 233 -98 233 -258zM424 258c0 136 -50 209 -145 209c-88 0 -142 -79 -142 -210c0 -144 48 -216 145 -216
c90 0 142 79 142 217z" />
    <glyph glyph-name="odieresis" unicode="&#xf6;" horiz-adv-x="562" 
d="M428 668c0 -36 -20 -57 -56 -57c-38 0 -56 17 -56 54c0 38 20 58 57 58c36 0 55 -19 55 -55zM246 668c0 -36 -20 -57 -56 -57c-38 0 -56 17 -56 54c0 38 20 58 57 58c36 0 55 -19 55 -55zM517 261c0 -170 -90 -272 -240 -272c-143 0 -233 98 -233 254
c0 174 89 276 240 276c144 0 233 -98 233 -258zM424 258c0 136 -50 209 -145 209c-88 0 -142 -79 -142 -210c0 -144 48 -216 145 -216c90 0 142 79 142 217z" />
    <glyph glyph-name="otilde" unicode="&#xf5;" horiz-adv-x="562" 
d="M459 705c-5 -5 -9 -10 -12 -13c-54 -67 -68 -77 -103 -77c-15 0 -27 5 -59 23l-31 18c-2 1 -8 4 -14 8c-16 9 -24 12 -32 12c-17 0 -21 -3 -74 -49l-31 27c5 6 9 10 11 13c55 68 68 77 103 77c15 0 30 -6 59 -22l32 -18c3 -2 8 -5 14 -9c15 -9 23 -12 32 -12
c17 0 20 2 73 49zM517 261c0 -170 -90 -272 -240 -272c-143 0 -233 98 -233 254c0 174 89 276 240 276c144 0 233 -98 233 -258zM424 258c0 136 -50 209 -145 209c-88 0 -142 -79 -142 -210c0 -144 48 -216 145 -216c90 0 142 79 142 217z" />
    <glyph glyph-name="uacute" unicode="&#xfa;" horiz-adv-x="556" 
d="M414 718l-163 -133l-38 26l119 161zM480 0h-83v32c-90 -34 -124 -43 -167 -43c-49 0 -97 20 -122 50c-26 31 -35 70 -35 144v325h85v-307c0 -112 28 -146 119 -146c36 0 76 5 118 16v437h85v-508z" />
    <glyph glyph-name="ugrave" unicode="&#xf9;" horiz-adv-x="556" 
d="M343 611l-38 -26l-163 133l83 54zM480 0h-83v32c-90 -34 -124 -43 -167 -43c-49 0 -97 20 -122 50c-26 31 -35 70 -35 144v325h85v-307c0 -112 28 -146 119 -146c36 0 76 5 118 16v437h85v-508z" />
    <glyph glyph-name="ucircumflex" unicode="&#xfb;" horiz-adv-x="556" 
d="M447 611l-31 -28l-137 85l-137 -85l-31 28l168 163zM480 0h-83v32c-90 -34 -124 -43 -167 -43c-49 0 -97 20 -122 50c-26 31 -35 70 -35 144v325h85v-307c0 -112 28 -146 119 -146c36 0 76 5 118 16v437h85v-508z" />
    <glyph glyph-name="udieresis" unicode="&#xfc;" horiz-adv-x="556" 
d="M426 668c0 -36 -20 -57 -56 -57c-38 0 -56 17 -56 54c0 38 20 58 57 58c36 0 55 -19 55 -55zM244 668c0 -36 -20 -57 -56 -57c-38 0 -56 17 -56 54c0 38 20 58 57 58c36 0 55 -19 55 -55zM480 0h-83v32c-90 -34 -124 -43 -167 -43c-49 0 -97 20 -122 50
c-26 31 -35 70 -35 144v325h85v-307c0 -112 28 -146 119 -146c36 0 76 5 118 16v437h85v-508z" />
    <glyph glyph-name="dagger" unicode="&#x2020;" horiz-adv-x="449" 
d="M422 483l-185 39l37 -137v-171c0 -159 -15 -294 -50 -440c-34 148 -49 281 -49 440v171l37 137l-185 -39v103l185 -38l-43 226h113l-45 -226l185 38v-103z" />
    <glyph glyph-name="degree" unicode="&#xb0;" horiz-adv-x="398" 
d="M349 531c0 -85 -65 -152 -149 -152c-85 0 -150 67 -150 153c0 83 67 151 150 151c85 0 149 -65 149 -152zM292 530c0 55 -40 96 -93 96c-52 0 -93 -43 -93 -98c0 -48 43 -92 91 -92c54 0 95 40 95 94z" />
    <glyph glyph-name="cent" unicode="&#xa2;" 
d="M468 136c-61 -15 -94 -22 -127 -26v-76h-43v76c-128 9 -196 90 -196 232c0 143 71 235 196 253v70h43v-67c43 0 71 -6 127 -25v-46c-39 10 -73 15 -108 15h-19v-372c9 -1 16 -1 20 -1c31 0 75 5 107 12v-45zM298 176v360c-74 -21 -110 -81 -110 -185s31 -152 110 -175z
" />
    <glyph glyph-name="sterling" unicode="&#xa3;" 
d="M501 0h-438v73c45 5 62 32 62 100v168h-62v52h62v110c0 84 4 105 25 137c31 47 92 72 176 72c46 0 82 -7 158 -32v-52c-50 13 -97 20 -137 20c-73 0 -113 -19 -128 -62c-5 -16 -6 -23 -6 -75v-118h147v-52h-147v-133c0 -64 -14 -94 -66 -139h354v-69z" />
    <glyph glyph-name="section" unicode="&#xa7;" horiz-adv-x="511" 
d="M464 267c0 -77 -34 -128 -131 -195c60 -35 82 -71 82 -132c0 -87 -71 -144 -179 -144c-35 0 -66 5 -133 23v53c54 -13 86 -18 123 -18c72 0 110 26 110 76c0 38 -14 54 -77 88l-60 34c-58 31 -74 41 -95 61c-33 32 -52 79 -52 128c0 78 32 126 131 195
c-59 38 -80 72 -80 132c0 87 71 144 179 144c32 0 59 -5 133 -23v-53c-52 13 -85 18 -123 18c-72 0 -110 -27 -110 -77c0 -37 15 -54 77 -88l58 -32c64 -36 74 -42 94 -62c34 -32 53 -79 53 -128zM379 248c0 68 -20 93 -115 144l-34 19c-68 -51 -93 -92 -93 -151
c0 -67 21 -94 114 -144l35 -18c67 49 93 92 93 150z" />
    <glyph glyph-name="bullet" unicode="&#x2022;" horiz-adv-x="706" 
d="M502 359c0 -81 -66 -147 -146 -147c-82 0 -148 66 -148 147s66 147 148 147c80 0 146 -66 146 -147z" />
    <glyph glyph-name="paragraph" unicode="&#xb6;" horiz-adv-x="616" 
d="M541 645h-64v-871h-67v871h-111v-871h-67v559h-16c-114 0 -194 76 -194 184c0 122 83 189 234 189h285v-61z" />
    <glyph glyph-name="germandbls" unicode="&#xdf;" horiz-adv-x="593" 
d="M553 142c0 -89 -71 -151 -175 -151c-37 0 -77 7 -148 26v54c56 -14 94 -19 141 -19c65 0 101 28 101 77c0 29 -11 46 -46 66l-87 51c-70 40 -96 76 -96 131c0 50 22 82 86 122l37 24c42 26 53 41 53 70c0 48 -43 75 -121 75c-70 0 -113 -21 -129 -62
c-7 -17 -8 -27 -8 -94v-512h-85v492c0 105 3 124 29 159c35 47 104 72 196 72c133 0 208 -46 208 -128c0 -44 -24 -79 -72 -107l-64 -36c-34 -19 -46 -35 -46 -61c0 -33 9 -44 63 -75l87 -51c51 -29 76 -70 76 -123z" />
    <glyph glyph-name="registered" unicode="&#xae;" horiz-adv-x="802" 
d="M754 353c0 -195 -158 -353 -353 -353s-353 158 -353 353s158 353 353 353s353 -158 353 -353zM705 353c0 168 -136 304 -304 304s-304 -136 -304 -304s136 -304 304 -304s304 136 304 304zM577 141h-81l-156 202h-11v-202h-62v424h106c60 0 83 -4 106 -16
c33 -18 50 -48 50 -89c0 -67 -37 -105 -115 -115zM464 453c0 52 -25 72 -89 72h-46v-147h45c61 0 90 24 90 75z" />
    <glyph glyph-name="copyright" unicode="&#xa9;" horiz-adv-x="802" 
d="M754 353c0 -195 -158 -353 -353 -353s-353 158 -353 353s158 353 353 353s353 -158 353 -353zM705 353c0 168 -136 304 -304 304s-304 -136 -304 -304s136 -304 304 -304s304 136 304 304zM549 156c-76 -16 -104 -20 -135 -20c-129 0 -202 74 -202 205
c0 140 86 228 222 228c35 0 68 -6 115 -21v-38c-37 10 -71 15 -107 15c-105 0 -164 -63 -164 -176c0 -110 53 -166 155 -166c32 0 79 5 116 13v-40z" />
    <glyph glyph-name="trademark" unicode="&#x2122;" horiz-adv-x="820" 
d="M772 304h-55v345l-121 -345h-52l-123 342v-342h-49v402h83l121 -331l116 331h80v-402zM314 665h-122v-361h-60v361h-123v41h305v-41z" />
    <glyph glyph-name="acute" unicode="&#xb4;" horiz-adv-x="530" 
d="M401 718l-163 -133l-38 26l119 161z" />
    <glyph glyph-name="dieresis" unicode="&#xa8;" horiz-adv-x="530" 
d="M412 668c0 -36 -20 -57 -56 -57c-38 0 -56 17 -56 54c0 38 20 58 57 58c36 0 55 -19 55 -55zM230 668c0 -36 -20 -57 -56 -57c-38 0 -56 17 -56 54c0 38 20 58 57 58c36 0 55 -19 55 -55z" />
    <glyph glyph-name="notequal" unicode="&#x2260;" horiz-adv-x="547" 
d="M538 140h-294l-83 -165l-46 23l71 142h-171v55h199l69 138h-268v55h296l79 158l47 -24l-68 -134h169v-55h-196l-70 -138h266v-55z" />
    <glyph glyph-name="AE" unicode="&#xc6;" horiz-adv-x="734" 
d="M713 0h-383v327h-150l-135 -327h-80l313 706h418v-59h-283v-262h226v-58h-226v-268h300v-59zM330 385v294l-125 -294h125z" />
    <glyph glyph-name="Oslash" unicode="&#xd8;" horiz-adv-x="726" 
d="M678 370c0 -238 -117 -382 -312 -382c-74 0 -130 14 -182 47l-41 -63h-58l61 93c-67 65 -98 152 -98 271c0 239 117 383 312 383c71 0 130 -15 181 -48l40 63h58l-60 -93c67 -64 99 -152 99 -271zM501 610c-41 34 -83 49 -139 49c-141 0 -218 -109 -218 -309
c0 -97 14 -161 47 -215zM582 361c0 92 -15 158 -48 210l-310 -475c41 -34 83 -48 140 -48c142 0 218 109 218 313z" />
    <glyph glyph-name="infinity" unicode="&#x221e;" horiz-adv-x="710" 
d="M686 266c0 -91 -56 -152 -140 -152c-63 0 -131 40 -190 112c-19 -22 -24 -27 -31 -35c-43 -48 -102 -76 -157 -76c-86 0 -143 59 -143 148c0 86 61 149 144 149c64 0 129 -38 187 -111c55 74 118 111 187 111c83 0 143 -61 143 -146zM636 264c0 56 -39 96 -94 96
c-31 0 -70 -16 -103 -43c-17 -14 -31 -29 -44 -46c-3 -5 -5 -8 -5 -8c72 -78 103 -97 158 -97c53 0 88 39 88 98zM323 265c-68 72 -106 95 -156 95c-56 0 -92 -38 -92 -97c0 -56 36 -96 87 -96c45 0 88 22 134 67c8 9 16 17 22 24c3 4 5 7 5 7z" />
    <glyph glyph-name="plusminus" unicode="&#xb1;" horiz-adv-x="547" 
d="M537 360h-236v-232h-55v232h-236v55h236v244h55v-244h236v-55zM533 0h-522v55h522v-55z" />
    <glyph glyph-name="lessequal" unicode="&#x2264;" horiz-adv-x="547" 
d="M524 117l-495 231v55l495 233v-62l-417 -198l417 -198v-61zM524 0h-495v55h495v-55z" />
    <glyph glyph-name="greaterequal" unicode="&#x2265;" horiz-adv-x="547" 
d="M524 348l-495 -231v61l417 198l-417 198v62l495 -233v-55zM524 0h-495v55h495v-55z" />
    <glyph glyph-name="yen" unicode="&#xa5;" 
d="M547 706l-152 -284h119v-52h-146l-27 -51h165v-52h-181v-267h-85v267h-179v52h163l-27 51h-143v52h115l-154 284h99l177 -358l167 358h89z" />
    <glyph glyph-name="mu" unicode="&#xb5;" horiz-adv-x="574" 
d="M565 108c-14 -79 -57 -121 -120 -121c-50 0 -76 27 -92 93c-53 -62 -104 -93 -154 -93c-34 0 -57 11 -98 46c0 -37 1 -48 12 -85c16 -57 19 -72 19 -92c0 -45 -20 -74 -50 -74c-28 0 -49 30 -49 69c0 27 1 30 17 93c8 30 12 54 12 76v478h88v-330c0 -69 34 -110 91 -110
c43 0 76 22 111 72v368h88v-367c0 -55 20 -91 49 -91c24 0 45 29 49 69z" />
    <glyph glyph-name="partialdiff" unicode="&#x2202;" horiz-adv-x="492" 
d="M460 399c0 -120 -36 -256 -84 -323c-42 -56 -98 -86 -162 -86c-107 0 -188 85 -188 197c0 117 91 223 192 223c53 0 88 -15 153 -66c5 50 6 71 6 105c0 160 -59 253 -161 253c-32 0 -65 -9 -109 -31l-41 50c55 21 89 28 128 28c152 0 266 -149 266 -350zM364 311
c-41 41 -66 54 -104 54c-81 0 -147 -93 -147 -208c0 -86 33 -137 89 -137c42 0 86 34 111 85c16 33 28 69 35 106c11 57 18 98 16 100z" />
    <glyph glyph-name="summation" unicode="&#x2211;" horiz-adv-x="710" 
d="M692 87l-54 -209h-624l241 406l-232 465h597l10 -164h-27c-17 100 -47 123 -161 123h-267l188 -368l-201 -350h327c115 0 146 17 177 97h26z" />
    <glyph glyph-name="product" unicode="&#x220f;" horiz-adv-x="820" 
d="M800 -123h-289v26h3c67 0 87 27 87 115v573c0 62 -4 84 -18 97c-18 16 -29 17 -172 17c-139 0 -151 -1 -169 -17c-14 -14 -18 -34 -18 -97v-573c0 -88 20 -115 87 -115h3v-26h-289v26h3c67 0 88 27 88 115v589c0 87 -21 114 -88 114h-3v27h775v-27h-3
c-33 0 -60 -11 -74 -30c-11 -18 -14 -33 -14 -84v-589c0 -88 21 -115 88 -115h3v-26z" />
    <glyph glyph-name="pi" unicode="&#x3c0;" horiz-adv-x="547" 
d="M528 157c-2 -50 -7 -71 -23 -100c-24 -45 -58 -70 -95 -70c-63 0 -99 67 -99 183c0 55 10 166 21 239h-108l-13 -128c-3 -37 -2 -29 -8 -79c-10 -83 -14 -115 -18 -132c-13 -55 -38 -83 -74 -83c-30 0 -54 24 -54 55c0 22 9 37 40 66c34 31 47 52 51 80l26 221h-46
c-48 0 -64 -10 -98 -62h-20c34 114 74 151 163 151h348v-89h-125c-8 -53 -13 -144 -13 -220c0 -69 22 -105 64 -105c33 0 52 25 57 73h24z" />
    <glyph glyph-name="integral" unicode="&#x222b;" horiz-adv-x="273" 
d="M291 867c0 -18 -15 -31 -36 -31c-16 0 -24 6 -40 32c-2 4 -7 6 -13 6c-19 0 -29 -23 -29 -64c0 -13 1 -39 3 -68c3 -47 4 -98 4 -168v-343c0 -107 -10 -207 -25 -260c-14 -49 -49 -78 -92 -78c-37 0 -61 17 -61 44c0 19 15 33 36 33c13 0 21 -6 30 -22
c6 -13 13 -18 21 -18c19 0 31 23 31 60c0 12 -1 44 -3 72c-3 58 -4 102 -4 169v343c0 105 10 207 25 260c14 49 49 78 92 78c38 0 61 -17 61 -45z" />
    <glyph glyph-name="ordfeminine" unicode="&#xaa;" horiz-adv-x="288" 
d="M253 419h-52v16c-37 -15 -57 -20 -78 -20c-53 0 -88 32 -88 81c0 44 24 71 72 79c20 4 50 6 93 6v36c0 34 -14 47 -52 47c-23 0 -57 -4 -88 -9v33c54 13 82 18 106 18c63 0 87 -27 87 -97v-190zM266 309h-244v46h244v-46zM200 461v88c-54 -3 -65 -4 -78 -8
c-20 -7 -30 -20 -30 -40c0 -32 18 -46 59 -46c15 0 26 1 49 6z" />
    <glyph glyph-name="ordmasculine" unicode="&#xba;" horiz-adv-x="315" 
d="M293 562c0 -94 -52 -151 -137 -151c-82 0 -134 55 -134 142c0 96 51 153 137 153c83 0 134 -55 134 -144zM279 309h-244v46h244v-46zM235 561c0 73 -27 111 -78 111c-48 0 -77 -42 -77 -112c0 -77 26 -115 78 -115c49 0 77 42 77 116z" />
    <glyph glyph-name="Omega" unicode="&#x2126;" horiz-adv-x="765" 
d="M733 0h-291l18 154c77 44 127 133 127 226c0 145 -89 259 -204 259c-114 0 -203 -114 -203 -259c0 -94 50 -182 127 -226l18 -154h-291v152h24c7 -43 29 -62 69 -62h145l-3 38c-128 44 -201 136 -201 252c0 164 145 303 316 303c170 0 315 -139 315 -303
c0 -116 -73 -208 -201 -252l-3 -38h145c40 0 62 19 69 62h24v-152z" />
    <glyph glyph-name="ae" unicode="&#xe6;" horiz-adv-x="798" 
d="M753 243h-336v-5v-10c0 -115 58 -172 175 -172c38 0 87 4 136 11v-48c-87 -20 -137 -28 -173 -28c-68 0 -121 20 -156 59c-77 -44 -123 -59 -180 -59c-110 0 -174 55 -174 150c0 76 45 128 124 143c42 8 60 9 169 10v74c0 58 -30 84 -99 84c-38 0 -92 -6 -150 -17v50
c94 23 145 32 188 32c64 0 97 -17 120 -62c46 43 95 62 161 62c97 0 159 -45 183 -134c9 -31 11 -55 12 -140zM660 294c0 123 -33 172 -119 172c-82 0 -124 -58 -124 -172h243zM338 74v172c-10 -1 -18 -2 -50 -3c-119 -7 -151 -28 -151 -98c0 -59 36 -91 102 -91
c33 0 66 7 99 20z" />
    <glyph glyph-name="oslash" unicode="&#xf8;" horiz-adv-x="562" 
d="M517 261c0 -170 -90 -272 -240 -272c-44 0 -85 10 -123 30l-29 -45h-53l47 71c-50 47 -75 114 -75 198c0 174 89 276 240 276c44 0 84 -10 123 -30l29 45h52l-45 -71c49 -46 74 -115 74 -202zM371 434c-29 25 -53 33 -92 33c-88 0 -142 -79 -142 -210
c0 -63 8 -107 25 -144zM424 258c0 56 -8 100 -25 138l-209 -322c29 -25 52 -33 92 -33c90 0 142 79 142 217z" />
    <glyph glyph-name="questiondown" unicode="&#xbf;" horiz-adv-x="454" 
d="M307 458c0 -41 -22 -63 -63 -63c-40 0 -61 21 -61 61c0 42 22 63 63 63c40 0 61 -21 61 -61zM409 -177c-88 -26 -139 -37 -181 -37c-140 0 -214 62 -214 177c0 67 23 114 93 189l71 77c32 34 34 38 34 68v48h73v-54c0 -39 -4 -49 -44 -98l-86 -106
c-32 -41 -45 -73 -45 -117c0 -78 46 -115 142 -115c44 0 91 6 157 21v-53z" />
    <glyph glyph-name="exclamdown" unicode="&#xa1;" horiz-adv-x="288" 
d="M206 458c0 -41 -22 -63 -63 -63c-40 0 -61 21 -61 61c0 41 22 63 63 63c40 0 61 -21 61 -61zM196 -204h-104l21 548h62z" />
    <glyph glyph-name="logicalnot" unicode="&#xac;" horiz-adv-x="530" 
d="M494 0h-85v203h-374v79h459v-282z" />
    <glyph glyph-name="radical" unicode="&#x221a;" horiz-adv-x="547" 
d="M513 904l-152 -939l-241 494l-94 -46l-16 34l146 71l194 -393l126 784z" />
    <glyph glyph-name="florin" unicode="&#x192;" horiz-adv-x="555" 
d="M476 756l-4 -47c-38 4 -48 5 -63 5c-42 0 -69 -13 -83 -39c-7 -14 -8 -22 -13 -76l-7 -91h122l-4 -51h-122l-43 -516c-6 -74 -17 -104 -47 -131c-24 -23 -62 -36 -100 -36c-18 0 -35 3 -69 11l4 47c21 -3 24 -3 39 -3c63 0 86 26 92 104l40 524h-76l4 51h76l8 94
c5 65 8 82 21 106c22 41 69 67 121 67c24 0 50 -5 104 -19z" />
    <glyph glyph-name="approxequal" unicode="&#x2248;" horiz-adv-x="547" 
d="M525 373c-30 -56 -78 -85 -140 -85c-23 0 -44 3 -66 10l-16 5c-44 14 -17 6 -81 25c-35 10 -45 12 -63 12c-40 0 -56 -10 -102 -63l-43 34c40 57 87 84 145 84c29 0 53 -5 124 -28c70 -22 81 -24 102 -24c36 0 58 14 102 63zM525 217c-30 -57 -78 -86 -140 -86
c-23 0 -44 3 -66 10l-16 5c-18 6 -33 10 -33 10l-48 15c-34 10 -45 12 -63 12c-40 0 -56 -10 -102 -63l-43 34c40 57 87 84 145 84c28 0 52 -5 124 -28c73 -22 80 -24 102 -24c36 0 58 13 102 64z" />
    <glyph glyph-name="Delta" unicode="&#x2206;" horiz-adv-x="609" 
d="M605 0h-599l319 685zM477 51l-188 456l-213 -456h401z" />
    <glyph glyph-name="guillemotleft" unicode="&#xab;" horiz-adv-x="410" 
d="M353 73h-58l-105 192l105 193h58l-94 -193zM211 73h-57l-105 192l105 193h57l-94 -193z" />
    <glyph glyph-name="guillemotright" unicode="&#xbb;" horiz-adv-x="410" 
d="M360 265l-105 -192h-58l94 192l-94 193h58zM218 265l-104 -192h-58l94 192l-94 193h58z" />
    <glyph glyph-name="ellipsis" unicode="&#x2026;" horiz-adv-x="822" 
d="M749 54c0 -43 -22 -65 -65 -65c-41 0 -63 22 -63 63c0 42 23 65 65 65c41 0 63 -22 63 -63zM475 54c0 -43 -22 -65 -65 -65c-41 0 -63 22 -63 63c0 42 23 65 65 65c41 0 63 -22 63 -63zM201 54c0 -43 -22 -65 -65 -65c-41 0 -63 22 -63 63c0 42 23 65 65 65
c41 0 63 -22 63 -63z" />
    <glyph glyph-name="nbspace" unicode="&#xa0;" horiz-adv-x="200" 
 />
    <glyph glyph-name="Agrave" unicode="&#xc0;" horiz-adv-x="616" 
d="M359 790l-38 -31l-175 118l79 62zM610 0h-92l-88 249h-254l-85 -249h-83l266 706h81zM408 308l-105 305l-104 -305h209z" />
    <glyph glyph-name="Atilde" unicode="&#xc3;" horiz-adv-x="616" 
d="M492 870c-5 -6 -9 -11 -11 -13c-56 -67 -71 -78 -107 -78c-16 0 -29 5 -62 23l-33 18c-3 2 -8 5 -14 9c-16 9 -25 12 -33 12c-18 0 -22 -3 -76 -50l-33 27c5 6 9 11 11 14c57 68 71 78 107 78c16 0 29 -5 62 -23l33 -19c36 -20 37 -20 48 -20c17 0 21 3 76 49zM610 0h-92
l-88 249h-254l-85 -249h-83l266 706h81zM408 308l-105 305l-104 -305h209z" />
    <glyph glyph-name="Otilde" unicode="&#xd5;" horiz-adv-x="726" 
d="M547 870c-5 -6 -9 -11 -11 -13c-56 -67 -71 -78 -107 -78c-16 0 -29 5 -62 23l-33 18c-3 2 -8 5 -14 9c-16 9 -25 12 -33 12c-18 0 -22 -3 -76 -50l-33 27c5 6 9 11 11 14c57 68 71 78 107 78c16 0 29 -5 62 -23l33 -19c36 -20 37 -20 48 -20c17 0 21 3 76 49zM678 370
c0 -239 -117 -382 -311 -382c-203 0 -319 127 -319 348c0 239 117 382 312 382c201 0 318 -127 318 -348zM582 361c0 194 -76 297 -220 297c-141 0 -218 -109 -218 -308s75 -302 220 -302c142 0 218 109 218 313z" />
    <glyph glyph-name="OE" unicode="&#x152;" horiz-adv-x="896" 
d="M869 0h-382v7c-45 -11 -78 -15 -124 -15c-197 0 -314 128 -314 344c0 238 117 378 316 378c45 0 77 -4 122 -16v8h365v-59h-282v-249h226v-59h-226v-280h299v-59zM487 82v538c-31 24 -70 35 -121 35c-144 0 -222 -107 -222 -304c0 -195 76 -299 218 -299
c52 0 94 10 125 30z" />
    <glyph glyph-name="oe" unicode="&#x153;" horiz-adv-x="891" 
d="M847 283c0 -4 0 -16 -1 -29h-336c0 -58 3 -82 15 -110c23 -60 76 -89 160 -89c39 0 81 4 136 12v-48c-88 -21 -139 -29 -173 -29c-81 0 -137 27 -183 88c-64 -67 -109 -89 -187 -89c-144 0 -234 98 -234 255c0 172 89 275 240 275c87 0 142 -28 187 -96
c39 62 101 95 176 95c130 0 200 -82 200 -235zM753 305c1 112 -36 162 -119 162c-76 0 -124 -63 -124 -162h243zM424 259c0 136 -51 209 -145 209c-88 0 -142 -80 -142 -210c0 -144 49 -217 145 -217c90 0 142 80 142 218z" />
    <glyph glyph-name="endash" unicode="&#x2013;" horiz-adv-x="558" 
d="M508 235h-459v69h459v-69z" />
    <glyph glyph-name="emdash" unicode="&#x2014;" horiz-adv-x="729" 
d="M729 239h-729v63h729v-63z" />
    <glyph glyph-name="quotedblleft" unicode="&#x201c;" horiz-adv-x="440" 
d="M367 543c0 -37 -23 -59 -62 -59c-46 0 -68 29 -68 88c0 75 23 108 101 145l28 -41c-45 -26 -58 -43 -58 -77h3c30 3 56 -23 56 -56zM203 543c0 -37 -23 -59 -62 -59c-46 0 -68 29 -68 88c0 75 23 108 101 145l28 -41c-45 -26 -58 -43 -58 -77h3c30 3 56 -23 56 -56z" />
    <glyph glyph-name="quotedblright" unicode="&#x201d;" horiz-adv-x="440" 
d="M367 629c0 -76 -23 -108 -102 -145l-27 41c45 25 58 43 57 77h-3c-33 0 -55 22 -55 56c0 37 23 59 62 59c46 0 68 -29 68 -88zM203 629c0 -76 -23 -109 -102 -145l-27 41c45 25 58 43 57 77h-3c-33 0 -55 22 -55 56c0 37 23 59 62 59c46 0 68 -29 68 -88z" />
    <glyph glyph-name="quoteleft" unicode="&#x2018;" horiz-adv-x="277" 
d="M203 543c0 -37 -23 -59 -62 -59c-46 0 -68 29 -68 88c0 75 23 108 101 145l28 -41c-45 -26 -58 -43 -58 -77h3c30 3 56 -23 56 -56z" />
    <glyph glyph-name="quoteright" unicode="&#x2019;" horiz-adv-x="277" 
d="M203 629c0 -76 -23 -109 -102 -145l-27 41c45 25 58 43 57 77h-3c-33 0 -55 22 -55 56c0 37 23 59 62 59c46 0 68 -29 68 -88z" />
    <glyph glyph-name="divide" unicode="&#xf7;" horiz-adv-x="547" 
d="M333 455c0 -34 -28 -62 -62 -62c-33 0 -61 28 -61 62c0 33 28 61 61 61c34 0 62 -27 62 -61zM534 232h-524v55h524v-55zM333 57c0 -33 -28 -61 -62 -61c-33 0 -61 28 -61 61c0 34 28 62 61 62c34 0 62 -28 62 -62z" />
    <glyph glyph-name="lozenge" unicode="&#x25ca;" horiz-adv-x="492" 
d="M464 372l-196 -372h-60l-190 375l195 362h63zM401 372l-157 308l-164 -305l159 -317z" />
    <glyph glyph-name="ydieresis" unicode="&#xff;" horiz-adv-x="479" 
d="M394 668c0 -36 -20 -57 -56 -57c-38 0 -56 17 -56 54c0 38 20 58 57 58c36 0 55 -19 55 -55zM212 668c0 -36 -20 -57 -56 -57c-38 0 -56 17 -56 54c0 38 20 58 57 58c36 0 55 -19 55 -55zM474 508l-246 -629c-30 -78 -64 -105 -130 -105c-13 0 -28 3 -51 9v50
c13 -1 21 -2 30 -2c53 0 67 13 97 90l31 79l-200 508h99l145 -409l143 409h82z" />
    <glyph glyph-name="Ydieresis" unicode="&#x178;" horiz-adv-x="567" 
d="M444 844c0 -37 -21 -59 -58 -59c-39 0 -58 18 -58 56c0 39 20 60 60 60c37 0 56 -20 56 -57zM259 844c0 -37 -21 -59 -58 -59c-39 0 -58 18 -58 56c0 39 20 60 59 60c37 0 57 -20 57 -57zM566 706l-231 -416v-290h-89v289l-240 417h99l194 -353l178 353h89z" />
    <glyph glyph-name="fraction" unicode="&#x2044;" horiz-adv-x="119" 
d="M328 706l-477 -706h-59l477 706h59z" />
    <glyph glyph-name="currency" unicode="&#xa4;" horiz-adv-x="554" 
d="M518 170l-47 -46l-62 63c-42 -30 -83 -44 -132 -44c-48 0 -91 14 -133 45l-62 -63l-44 44l62 63c-30 42 -44 84 -44 133c0 48 14 90 43 131l-62 63l46 46l63 -62c40 29 82 43 131 43c48 0 92 -15 133 -44l63 62l43 -44l-62 -62c30 -42 45 -85 45 -133
c0 -49 -14 -91 -44 -132zM437 365c0 88 -72 159 -160 159s-159 -72 -159 -159c0 -88 71 -160 159 -160c89 0 160 71 160 160z" />
    <glyph glyph-name="guilsinglleft" unicode="&#x2039;" horiz-adv-x="285" 
d="M228 73h-74l-105 192l105 193h74l-94 -193z" />
    <glyph glyph-name="guilsinglright" unicode="&#x203a;" horiz-adv-x="285" 
d="M235 265l-104 -192h-75l94 192l-94 193h75z" />
    <glyph glyph-name="fi" unicode="&#xfb01;" horiz-adv-x="531" 
d="M468 705c0 -31 -21 -50 -56 -50c-38 0 -58 24 -57 67c-15 2 -21 2 -41 2c-95 0 -132 -36 -132 -127v-89h121v-54h-121v-454h-85v454h-76v54h76v67c0 78 9 109 39 142c36 37 95 58 167 58c37 0 96 -12 133 -27c21 -9 32 -23 32 -43zM457 0h-85v508h85v-508z" />
    <glyph glyph-name="fl" unicode="&#xfb02;" horiz-adv-x="533" 
d="M457 0h-85v714c-32 6 -45 7 -71 7c-84 0 -119 -36 -119 -123v-90h121v-54h-121v-454h-85v454h-76v54h76v68c0 84 6 107 32 140c33 40 84 59 159 59c44 0 85 -5 169 -22v-753z" />
    <glyph glyph-name="daggerdbl" unicode="&#x2021;" horiz-adv-x="449" 
d="M422 -38l-185 38l45 -226h-113l43 226l-185 -38v103l185 -39l-37 158v180l37 158l-185 -39v103l185 -38l-43 226h113l-45 -226l185 38v-103l-185 39l37 -158v-180l-37 -158l185 39v-103z" />
    <glyph glyph-name="periodcentered" unicode="&#xb7;" horiz-adv-x="274" 
d="M201 263c0 -43 -22 -65 -65 -65c-41 0 -63 22 -63 63c0 42 22 65 65 65c41 0 63 -22 63 -63z" />
    <glyph glyph-name="quotesinglbase" unicode="&#x201a;" horiz-adv-x="277" 
d="M203 19c0 -75 -23 -108 -102 -144l-27 40c45 26 58 44 57 78h-3c-38 3 -55 21 -55 55c0 38 23 59 62 59c46 0 68 -29 68 -88z" />
    <glyph glyph-name="quotedblbase" unicode="&#x201e;" horiz-adv-x="440" 
d="M367 19c0 -75 -23 -108 -102 -144l-27 40c45 26 58 44 57 78h-3c-38 3 -55 21 -55 55c0 38 23 59 62 59c46 0 68 -29 68 -88zM203 19c0 -75 -23 -108 -102 -144l-27 40c45 26 58 44 57 78h-3c-38 3 -55 21 -55 55c0 38 23 59 62 59c46 0 68 -29 68 -88z" />
    <glyph glyph-name="perthousand" unicode="&#x2030;" horiz-adv-x="982" 
d="M346 565c0 -87 -65 -154 -150 -154c-92 0 -152 59 -152 150c0 92 61 155 151 155c93 0 151 -58 151 -151zM593 706l-477 -706h-59l477 706h59zM937 145c0 -89 -64 -155 -150 -155c-94 0 -152 58 -152 151c0 91 62 155 151 155c94 0 151 -57 151 -151zM605 145
c0 -89 -64 -155 -150 -155c-93 0 -152 58 -152 151c0 91 62 155 151 155c94 0 151 -57 151 -151zM283 563c0 68 -32 105 -89 105c-54 0 -87 -40 -87 -106c0 -64 33 -102 87 -102s89 41 89 103zM874 143c0 67 -32 105 -89 105c-54 0 -87 -40 -87 -106c0 -64 33 -102 87 -102
s89 41 89 103zM542 143c0 67 -32 105 -89 105c-54 0 -87 -40 -87 -106c0 -64 33 -102 87 -102s89 41 89 103z" />
    <glyph glyph-name="Acircumflex" unicode="&#xc2;" horiz-adv-x="616" 
d="M481 787l-33 -28l-140 73l-140 -73l-34 28l174 151zM610 0h-92l-88 249h-254l-85 -249h-83l266 706h81zM408 308l-105 305l-104 -305h209z" />
    <glyph glyph-name="Ecircumflex" unicode="&#xca;" horiz-adv-x="496" 
d="M422 787l-33 -28l-140 73l-140 -73l-34 28l174 151zM469 0h-387v706h370v-59h-281v-249h225v-59h-225v-280h298v-59z" />
    <glyph glyph-name="Aacute" unicode="&#xc1;" horiz-adv-x="616" 
d="M463 877l-176 -118l-37 31l133 149zM610 0h-92l-88 249h-254l-85 -249h-83l266 706h81zM408 308l-105 305l-104 -305h209z" />
    <glyph glyph-name="Edieresis" unicode="&#xcb;" horiz-adv-x="496" 
d="M412 844c0 -37 -21 -59 -58 -59c-39 0 -58 18 -58 56c0 39 20 60 60 60c37 0 56 -20 56 -57zM227 844c0 -37 -21 -59 -58 -59c-39 0 -58 18 -58 56c0 39 20 60 59 60c37 0 57 -20 57 -57zM469 0h-387v706h370v-59h-281v-249h225v-59h-225v-280h298v-59z" />
    <glyph glyph-name="Egrave" unicode="&#xc8;" horiz-adv-x="496" 
d="M342 790l-38 -31l-175 118l79 62zM469 0h-387v706h370v-59h-281v-249h225v-59h-225v-280h298v-59z" />
    <glyph glyph-name="Iacute" unicode="&#xcd;" horiz-adv-x="253" 
d="M282 877l-176 -118l-37 31l133 149zM171 0h-89v706h89v-706z" />
    <glyph glyph-name="Icircumflex" unicode="&#xce;" horiz-adv-x="253" 
d="M287 794l-30 -27l-130 65l-129 -65l-32 27l161 144zM171 0h-89v706h89v-706z" />
    <glyph glyph-name="Idieresis" unicode="&#xcf;" horiz-adv-x="253" 
d="M268 844c0 -37 -21 -59 -58 -59c-39 0 -58 18 -58 56c0 39 20 60 60 60c37 0 56 -20 56 -57zM100 844c0 -37 -21 -59 -58 -59c-39 0 -58 18 -58 56c0 39 20 60 59 60c37 0 57 -20 57 -57zM170 0h-89v706h89v-706z" />
    <glyph glyph-name="Igrave" unicode="&#xcc;" horiz-adv-x="253" 
d="M178 790l-38 -31l-175 118l79 62zM171 0h-89v706h89v-706z" />
    <glyph glyph-name="Oacute" unicode="&#xd3;" horiz-adv-x="726" 
d="M518 877l-176 -118l-37 31l133 149zM678 370c0 -239 -117 -382 -311 -382c-203 0 -319 127 -319 348c0 239 117 382 312 382c201 0 318 -127 318 -348zM582 361c0 194 -76 297 -220 297c-141 0 -218 -109 -218 -308s75 -302 220 -302c142 0 218 109 218 313z" />
    <glyph glyph-name="Ocircumflex" unicode="&#xd4;" horiz-adv-x="726" 
d="M536 787l-33 -28l-140 73l-140 -73l-34 28l174 151zM678 370c0 -239 -117 -382 -311 -382c-203 0 -319 127 -319 348c0 239 117 382 312 382c201 0 318 -127 318 -348zM582 361c0 194 -76 297 -220 297c-141 0 -218 -109 -218 -308s75 -302 220 -302
c142 0 218 109 218 313z" />
    <glyph glyph-name="apple" horiz-adv-x="787" 
d="M568 684c0 -87 -85 -164 -180 -164c2 97 69 163 179 175c1 -5 1 -9 1 -11zM730 169c-59 -121 -134 -196 -197 -196c-18 0 -38 5 -64 17c-25 11 -30 12 -67 12c-25 0 -34 -2 -56 -11c-30 -14 -46 -18 -66 -18c-102 0 -224 184 -224 337c0 122 92 220 206 220
c26 0 52 -6 90 -20c22 -8 40 -12 51 -12c9 0 23 3 40 10c49 19 63 22 92 22c76 0 133 -23 176 -71c-59 -45 -81 -84 -81 -140c0 -67 38 -124 100 -150z" />
    <glyph glyph-name="Ograve" unicode="&#xd2;" horiz-adv-x="726" 
d="M414 790l-38 -31l-175 118l79 62zM678 370c0 -239 -117 -382 -311 -382c-203 0 -319 127 -319 348c0 239 117 382 312 382c201 0 318 -127 318 -348zM582 361c0 194 -76 297 -220 297c-141 0 -218 -109 -218 -308s75 -302 220 -302c142 0 218 109 218 313z" />
    <glyph glyph-name="Uacute" unicode="&#xda;" horiz-adv-x="663" 
d="M491 877l-176 -118l-37 31l133 149zM595 256c0 -95 -16 -146 -61 -194c-49 -51 -114 -75 -208 -75c-169 0 -258 87 -258 252v467h89v-460c0 -133 56 -195 177 -195s180 64 180 195v460h81v-450z" />
    <glyph glyph-name="Ucircumflex" unicode="&#xdb;" horiz-adv-x="663" 
d="M509 787l-33 -28l-140 73l-140 -73l-34 28l174 151zM595 256c0 -95 -16 -146 -61 -194c-49 -51 -114 -75 -208 -75c-169 0 -258 87 -258 252v467h89v-460c0 -133 56 -195 177 -195s180 64 180 195v460h81v-450z" />
    <glyph glyph-name="Ugrave" unicode="&#xd9;" horiz-adv-x="663" 
d="M401 790l-38 -31l-175 118l79 62zM595 256c0 -95 -16 -146 -61 -194c-49 -51 -114 -75 -208 -75c-169 0 -258 87 -258 252v467h89v-460c0 -133 56 -195 177 -195s180 64 180 195v460h81v-450z" />
    <glyph glyph-name="dotlessi" unicode="&#x131;" horiz-adv-x="237" 
d="M161 0h-85v508h85v-508z" />
    <glyph glyph-name="circumflex" unicode="&#x2c6;" horiz-adv-x="530" 
d="M434 611l-31 -28l-137 85l-137 -85l-31 28l168 163z" />
    <glyph glyph-name="tilde" unicode="&#x2dc;" horiz-adv-x="530" 
d="M443 705c-5 -5 -9 -10 -12 -13c-54 -67 -68 -77 -103 -77c-15 0 -27 5 -59 23l-31 18c-2 1 -8 4 -14 8c-16 9 -24 12 -32 12c-17 0 -21 -3 -74 -49l-31 27c5 6 9 10 11 13c55 68 68 77 103 77c15 0 30 -6 59 -22l32 -18c3 -2 8 -5 14 -9c15 -9 23 -12 32 -12
c17 0 20 2 73 49z" />
    <glyph glyph-name="macron" unicode="&#xaf;" horiz-adv-x="530" 
d="M409 638h-288v65h288v-65z" />
    <glyph glyph-name="breve" unicode="&#x2d8;" horiz-adv-x="530" 
d="M444 718c-65 -82 -107 -108 -179 -108c-71 0 -116 27 -178 108l33 30c51 -45 97 -65 146 -65c54 0 101 21 147 65z" />
    <glyph glyph-name="dotaccent" unicode="&#x2d9;" horiz-adv-x="530" 
d="M321 665c0 -36 -21 -57 -56 -57c-39 0 -57 17 -57 54c0 39 20 59 58 59c36 0 55 -19 55 -56z" />
    <glyph glyph-name="ring" unicode="&#x2da;" horiz-adv-x="530" 
d="M356 680c0 -53 -37 -90 -89 -90c-59 0 -94 33 -94 88c0 52 38 89 93 89c54 0 90 -34 90 -87zM308 678c0 29 -15 45 -44 45c-26 0 -43 -17 -43 -44c0 -28 16 -45 43 -45s44 17 44 44z" />
    <glyph glyph-name="cedilla" unicode="&#xb8;" horiz-adv-x="530" 
d="M373 -111c0 -31 -17 -58 -47 -76c-10 -6 -25 -12 -62 -26l-16 37c41 17 53 31 53 61c0 26 -14 44 -45 54v61h50v-34c43 -10 67 -37 67 -77z" />
    <glyph glyph-name="hungarumlaut" unicode="&#x2dd;" horiz-adv-x="530" 
d="M446 774l-92 -169h-40l40 169h92zM301 774l-92 -169h-40l40 169h92z" />
    <glyph glyph-name="ogonek" unicode="&#x2db;" horiz-adv-x="530" 
d="M364 -165l-14 -40c-103 32 -133 57 -133 110c0 44 29 71 104 95h29c-40 -24 -57 -50 -57 -85c0 -38 20 -60 71 -80z" />
    <glyph glyph-name="caron" unicode="&#x2c7;" horiz-adv-x="530" 
d="M434 739l-168 -159l-168 159l31 28l137 -85l137 85z" />
    </font>
</defs>
</svg>
