<svg xmlns="http://www.w3.org/2000/svg" width="20" height="20" viewBox="0 0 20 20">
    <path fill="#FFB400" fill-rule="nonzero" d="M14.1 8.75l-4.073 2.5v-2c0-.5-.564-.813-.94-.5l-4.073 2.5v-2c0-.5-.564-.813-.94-.5l-3.76 2.313c-.189.124-.314.312-.314.5v7.812c0 .313.313.625.627.625h13.787c.314 0 .627-.313.627-.625V9.25c.063-.5-.501-.813-.94-.5zm-9.65 5c0 .313-.314.625-.627.625H2.57c-.314 0-.627-.313-.627-.625v-.625c0-.313.313-.625.627-.625h1.253c.313 0 .627.313.627.625v.625zm4.387 0c0 .313-.314.625-.627.625H6.956c-.313 0-.626-.313-.626-.625v-.625c0-.313.313-.625.626-.625H8.21c.313 0 .627.313.627.625v.625zM17.047 0c.313 0 .563.25.626.563l2.319 18.75c.063.375-.25.687-.627.687h-3.133c.062-.188.125-.438.125-.625V9.25c0-1.063-.815-1.875-1.88-1.875-.313 0-.627.063-.94.25l.877-7.063c.063-.312.314-.562.627-.562zm-4.45 12.5c.313 0 .627.313.627.625v.625c0 .313-.314.625-.627.625h-1.254c-.313 0-.626-.313-.626-.625v-.625c0-.313.313-.625.626-.625h1.254z"/>
</svg>
