<svg xmlns="http://www.w3.org/2000/svg" width="12" height="29" viewBox="0 0 12 29">
    <path fill="#FFB400" fill-rule="nonzero" d="M3.496 7.25c.264 0 .462.194.528.421l1.35 6.094.198-4.96a.528.528 0 0 1-.363-.485v-.26c0-.291.231-.518.527-.518h.495c.296 0 .527.227.527.518v.26a.528.528 0 0 1-.363.486l.198 4.96 1.383-6.062a.527.527 0 0 1 .528-.422h2.108c.823 0 1.45.681 1.383 1.46l-1.054 7.552a1.107 1.107 0 0 1-1.12 1.004h-.263L8.174 28.32c-.033.39-.428.681-.922.681H4.748c-.494 0-.89-.292-.922-.68L2.442 17.297H2.18a1.13 1.13 0 0 1-1.12-1.004L.005 8.74A1.372 1.372 0 0 1 1.388 7.25zM6.6 0c1.657 0 3 1.623 3 3.625S8.257 7.25 6.6 7.25s-3-1.623-3-3.625S4.943 0 6.6 0z"/>
</svg>
