<svg xmlns="http://www.w3.org/2000/svg" width="19" height="19" viewBox="0 0 19 19">
    <path fill="#FFB400" fill-rule="nonzero" d="M17.016 0H2.02C.915 0 0 .913 0 2.016v14.93C0 18.087.915 19 2.02 19h14.958c1.105 0 2.02-.913 2.02-2.016V2.016C19.054.913 18.14 0 17.015 0zM5.43 14.93a.688.688 0 0 1-.667.666h-.667a.688.688 0 0 1-.667-.666V11.22c0-.361.324-.665.667-.665h.667c.362 0 .667.323.667.665v3.709zm3.41 0a.688.688 0 0 1-.667.666h-.666a.688.688 0 0 1-.667-.666V6.105c0-.361.324-.666.667-.666h.666c.362 0 .667.324.667.666v8.825zm3.411 0a.688.688 0 0 1-.667.666h-.667a.688.688 0 0 1-.667-.666V4.09c0-.362.324-.667.667-.667h.667c.362 0 .667.324.667.666v10.84zm3.373 0a.688.688 0 0 1-.667.666h-.667a.688.688 0 0 1-.667-.666V8.463c0-.36.324-.665.667-.665h.667c.362 0 .667.323.667.665v6.467z"/>
</svg>
