<svg xmlns="http://www.w3.org/2000/svg" width="31" height="31" viewBox="0 0 31 31">
    <path fill="#000" fill-rule="evenodd" d="M8.2 2.418l1.85 1.848c.562.564.923 1.21 1.054 1.733.13.524.044.853-.137 1.03a3370.147 3370.147 0 0 1-3.223 3.23.651.651 0 0 0 0 .919l11.985 11.985a.651.651 0 0 0 .92 0l3.232-3.223c.174-.178.503-.268 1.027-.134.526.128 1.17.489 1.733 1.053l1.85 1.847c.562.565.923 1.21 1.054 1.734.13.524.043.853-.137 1.03-1.126 1.123-2.257 2.275-3.223 3.235-1.03 1.03-2.915 1.201-5.292.407-2.374-.788-5.126-2.528-7.619-5.018L6.82 17.639c-2.493-2.493-4.23-5.245-5.018-7.62-.794-2.376-.623-4.267.407-5.297L5.44 1.5c.175-.177.506-.268 1.027-.134.526.131 1.172.489 1.734 1.053M6.787.097c-.812-.2-1.682-.11-2.275.477L1.289 3.806C-.236 5.327-.314 7.8.56 10.427c.876 2.627 2.723 5.513 5.339 8.131l6.455 6.455c2.615 2.618 5.498 4.46 8.125 5.338 2.624.876 5.1.795 6.624-.727 1.085-1.076 2.156-2.155 3.23-3.229.59-.59.68-1.463.473-2.275-.2-.806-.686-1.626-1.399-2.339l-1.844-1.841c-.71-.713-1.528-1.199-2.336-1.402-.812-.201-1.685-.114-2.275.477l-2.767 2.766-11.063-11.06 2.772-2.767c.588-.59.678-1.463.474-2.272-.203-.808-.689-1.629-1.402-2.341L9.123 1.499C8.413.786 7.596.301 6.787.097"/>
</svg>
