<svg xmlns="http://www.w3.org/2000/svg" width="68" height="70" viewBox="0 0 68 70">
    <defs>
        <filter id="a" width="136.3%" height="139.5%" x="-18.2%" y="-19.7%" filterUnits="objectBoundingBox">
            <feOffset dy="5" in="SourceAlpha" result="shadowOffsetOuter1"/>
            <feGaussianBlur in="shadowOffsetOuter1" result="shadowBlurOuter1" stdDeviation="7"/>
            <feColorMatrix in="shadowBlurOuter1" result="shadowMatrixOuter1" values="0 0 0 0 0 0 0 0 0 0 0 0 0 0 0 0 0 0 0.0932856206 0"/>
            <feMerge>
                <feMergeNode in="shadowMatrixOuter1"/>
                <feMergeNode in="SourceGraphic"/>
            </feMerge>
        </filter>
    </defs>
    <g fill="none" fill-rule="evenodd" filter="url(#a)" transform="translate(-67 -20)">
        <path fill="#B5B5B5" d="M94.22 54.472a4.673 4.673 0 0 1-4.673-4.675 4.674 4.674 0 1 1 9.348 0 4.674 4.674 0 0 1-4.674 4.675"/>
        <path fill="#5C5C60" d="M99.752 49.797c0-3.05-2.482-5.53-5.531-5.53a5.536 5.536 0 0 0-5.53 5.53 5.538 5.538 0 0 0 5.53 5.532 5.54 5.54 0 0 0 5.531-5.532m-9.35 0a3.822 3.822 0 0 1 3.819-3.818 3.823 3.823 0 0 1 3.819 3.818 3.824 3.824 0 0 1-3.82 3.819 3.823 3.823 0 0 1-3.817-3.819"/>
        <path fill="#5C5C60" d="M106.41 29.053H82.022a.856.856 0 0 0-.857.857v12.258a.856.856 0 1 0 1.713 0v-4.415c5.265-1.381 6.504-5.368 6.791-6.988h8.99c.291 1.627 1.535 5.644 6.858 7.008.011.003.024.002.036.004v24.366c-.012.002-.025 0-.036.001-5.41 1.388-6.61 5.523-6.872 7.093h-8.959c-.262-1.565-1.456-5.667-6.808-7.072V47.721a.856.856 0 1 0-1.713 0v22.372c0 .474.382.857.857.857h24.386a.856.856 0 0 0 .856-.857V29.91a.856.856 0 0 0-.856-.857zm-23.531 6.91v-5.198h5.058c-.292 1.325-1.346 4.04-5.058 5.197zm17.514-5.198h5.16v5.229c-3.823-1.144-4.877-3.89-5.16-5.229zm-17.514 33.19c3.823 1.188 4.823 3.99 5.077 5.282h-5.077v-5.282zm17.5 5.282c.263-1.299 1.292-4.148 5.175-5.312v5.312h-5.175z"/>
        <path fill="#5C5C60" d="M81.537 45.59c.095.052.21.063.327.063a.838.838 0 0 0 .79-.526.863.863 0 0 0-.19-.926.852.852 0 0 0-1.21 0 .863.863 0 0 0-.254.6.68.68 0 0 0 .075.326c.042.105.104.2.178.284.085.072.179.137.284.179"/>
        <path fill="#FEFEFF" d="M93.236 40.93v-5.666a.864.864 0 0 1 1.725 0v5.666a.865.865 0 0 1-.862.862.865.865 0 0 1-.863-.862M93.236 65.203v-5.666a.864.864 0 0 1 1.725 0v5.666a.865.865 0 0 1-.862.862.865.865 0 0 1-.863-.862"/>
        <path fill="#FFF" d="M116.448 50.473H96.862a3.276 3.276 0 0 0-3.265 3.266v13.058a3.275 3.275 0 0 0 3.265 3.264h19.586a3.275 3.275 0 0 0 3.265-3.264v-13.06a3.275 3.275 0 0 0-3.265-3.264"/>
        <path fill="#5C5C60" d="M102.728 64.138h9.795v-1.632h-9.795zM102.728 66.645h3.266v-1.632h-3.266z"/>
        <path fill="#B5B5B5" d="M97.23 67.011h3.5a.555.555 0 0 0 .554-.554v-3.5a.556.556 0 0 0-.554-.555h-3.5a.554.554 0 0 0-.552.556v3.499a.552.552 0 0 0 .553.554"/>
        <path fill="#5C5C60" d="M100.73 67.868h-3.5a1.4 1.4 0 0 1-.997-.415 1.4 1.4 0 0 1-.412-1v-3.495c0-.779.633-1.413 1.41-1.413h3.499c.778 0 1.41.634 1.41 1.413v3.498c0 .778-.632 1.412-1.41 1.412zm-3.196-1.713h2.894v-2.897h-2.894v2.897z"/>
        <path fill="#B5B5B5" d="M93.595 58.634h26.118v-3.266H93.595z"/>
        <path fill="#5C5C60" d="M116.45 49.618H96.861a4.123 4.123 0 0 0-4.12 4.12V66.798a4.125 4.125 0 0 0 4.12 4.12h19.587a4.125 4.125 0 0 0 4.12-4.12V53.738a4.123 4.123 0 0 0-4.12-4.12zm-21.996 8.16h24.403v-1.553H94.454v1.553zm24.402 9.019a2.41 2.41 0 0 1-2.407 2.408H96.862a2.41 2.41 0 0 1-2.408-2.408V59.49h24.402v7.307zM94.454 54.513v-.774a2.41 2.41 0 0 1 2.408-2.41h19.587a2.41 2.41 0 0 1 2.407 2.409v.775H94.454z"/>
    </g>
</svg>
