<svg xmlns="http://www.w3.org/2000/svg" xmlns:xlink="http://www.w3.org/1999/xlink" width="38" height="45" viewBox="0 0 38 45">
    <defs>
        <path id="a" d="M.788.651h21.365v42.75H.788z"/>
        <path id="b" d="M0 .001h37.965v43.967H0z"/>
    </defs>
    <g fill="none" fill-rule="evenodd">
        <path fill="#FFF" d="M6.659 16.15l5.615-5.615v-.001l4.143-4.141c1.3-1.299 4.155-1.299 5.455 0 .606.607.969 1.628.969 2.727 0 1.1-.363 2.12-.97 2.728L11.106 22.615a.842.842 0 0 0-.244.586V41.91l-7.754-7.757A7.399 7.399 0 0 1 .923 28.88v-3.905c0-1.32.34-2.588.982-3.703"/>
        <path fill="#B4B4B4" d="M26.958 18.11c-1.321-1.197-3.317-1.96-5.551-1.96-3.976 0-7.196 2.412-7.196 5.388s3.22 5.387 7.196 5.387c1.469 0 2.836-.33 3.975-.896 0 0 .828-.404 1.576-.759"/>
        <path fill="#FFF" d="M33.677 32.058H28.5a3.4 3.4 0 0 1-3.4-3.4v-.038a3.4 3.4 0 0 1 3.4-3.4h5.177c1.877 0 3.401 1.523 3.401 3.4v.038c0 1.878-1.524 3.4-3.4 3.4"/>
        <path fill="#FFF" d="M33.677 25.258H28.5a3.4 3.4 0 0 1-3.4-3.4v-.038a3.4 3.4 0 0 1 3.4-3.4h5.177c1.877 0 3.401 1.523 3.401 3.4v.038c0 1.878-1.524 3.4-3.4 3.4M33.677 18.382H28.5a3.4 3.4 0 0 1-3.4-3.4v-.038a3.4 3.4 0 0 1 3.4-3.4h5.177c1.877 0 3.401 1.523 3.401 3.4v.038c0 1.878-1.524 3.4-3.4 3.4M33.677 38.845H28.5a3.4 3.4 0 0 1-3.4-3.4v-.037a3.4 3.4 0 0 1 3.4-3.4h5.177c1.877 0 3.401 1.522 3.401 3.4v.038c0 1.877-1.524 3.4-3.4 3.4"/>
        <g transform="translate(0 .162)">
            <mask id="c" fill="#fff">
                <use xlink:href="#b"/>
            </mask>
            <path fill="#5D5D61" d="M37.965 21.672c0-1.405-.685-2.641-1.727-3.428a4.325 4.325 0 0 0 1.727-3.46 4.31 4.31 0 0 0-4.306-4.306h-.902V2.693A2.695 2.695 0 0 0 30.066.001H12.562a2.696 2.696 0 0 0-2.693 2.692v8.787L6 15.35a.906.906 0 0 0 1.281 1.28l9.758-9.757c.956-.955 3.217-.956 4.174-.001.435.434.704 1.234.704 2.088 0 .852-.269 1.653-.704 2.087l-10.77 10.77a1.731 1.731 0 0 0-.504 1.223v16.522l-6.211-6.21a6.51 6.51 0 0 1-1.918-4.633v-3.905c0-1.148.298-2.272.86-3.252a.904.904 0 0 0-.333-1.236.903.903 0 0 0-1.235.333A8.356 8.356 0 0 0 0 24.813v3.905c0 2.233.869 4.333 2.448 5.912l7.606 7.609a2.698 2.698 0 0 0 1.544 1.542l.151.151v-.103c.259.082.529.139.814.139h17.502a2.697 2.697 0 0 0 2.693-2.693v-1.686h.901c2.375 0 4.306-1.931 4.306-4.343 0-1.375-.66-2.587-1.666-3.376a4.326 4.326 0 0 0 1.666-3.41c0-1.376-.66-2.59-1.666-3.378a4.322 4.322 0 0 0 1.666-3.41zm-12.47 3.126c-.311.15-.53.257-.534.26-1.054.523-2.289.8-3.572.8-3.469 0-6.291-2.01-6.291-4.482 0-2.47 2.822-4.482 6.29-4.482 1.71 0 3.293.514 4.477 1.386a4.33 4.33 0 0 0-1.688 3.429 4.29 4.29 0 0 0 1.318 3.089zm10.66-9.978a2.498 2.498 0 0 1-2.496 2.495h-5.176c-1.376 0-2.496-1.12-2.496-2.532a2.498 2.498 0 0 1 2.496-2.495h5.176c1.376 0 2.495 1.12 2.495 2.532zM30.945 2.693V4.35c-.008 0-.018.003-.028.003-1.485 0-2.694-1.132-2.694-2.525l.003-.015h1.839c.485 0 .88.395.88.881zm-18.384-.881h1.78l.001.015c0 1.384-1.193 2.507-2.664 2.522V2.693c0-.486.395-.881.883-.881zm9.932 10.514c.772-.773 1.234-2.032 1.234-3.367 0-1.336-.462-2.595-1.234-3.37-1.67-1.666-5.07-1.665-6.735.002l-3.875 3.876h-.205V6.16c2.47-.016 4.475-1.952 4.475-4.333l-.001-.015h10.262l-.002.015c0 2.39 2.021 4.335 4.505 4.335l.028-.001v4.317h-2.463c-2.374 0-4.306 1.93-4.306 4.342 0 .23.034.452.069.672a10.25 10.25 0 0 0-2.857-.408c-.626 0-1.232.06-1.817.166l2.922-2.924zm-9.197 9.197c.103 3.4 3.69 6.146 8.092 6.146 1.04 0 2.053-.166 3.001-.457a4.331 4.331 0 0 0-.213 1.284c0 1.375.66 2.588 1.668 3.377a4.32 4.32 0 0 0-1.668 3.411c0 1.968 1.335 3.613 3.14 4.125a4.218 4.218 0 0 0-.904 2.608c0 .047.01.094.012.14H15.88c.003-.014.007-.029.008-.043a4.563 4.563 0 0 0-.862-3.297 4.229 4.229 0 0 0-2.898-1.698c-.13-.015-.257-.012-.386-.016l-.016-14.01 1.57-1.57zm-1.55 20.083l-.002-2.684c.054.004.11-.01.167-.004a2.43 2.43 0 0 1 1.662.98c.422.566.606 1.276.518 1.999-.011.09-.044.172-.062.26h-1.467a.883.883 0 0 1-.816-.55zm19.2-.331a.884.884 0 0 1-.882.882h-1.818c-.003-.048-.023-.092-.023-.14 0-1.107.757-2.074 1.882-2.407l-.006-.021h.847v1.686zm5.207-5.99a2.497 2.497 0 0 1-2.495 2.493h-5.176c-1.376 0-2.496-1.118-2.496-2.532 0-1.29.99-2.343 2.25-2.469.083.004.16.025.246.025h5.176c.085 0 .164-.02.248-.025a2.499 2.499 0 0 1 2.247 2.507zm0-6.79a2.49 2.49 0 0 1-2.247 2.471c-.084-.005-.163-.025-.248-.025h-5.176c-.084 0-.163.02-.247.025a2.502 2.502 0 0 1-2.249-2.507c0-1.29.99-2.344 2.25-2.47.083.005.16.025.246.025h5.176c.085 0 .164-.02.248-.025a2.5 2.5 0 0 1 2.247 2.507zm-2.495-4.342h-5.176c-.084 0-.163.02-.247.025a2.5 2.5 0 0 1-2.249-2.506 2.498 2.498 0 0 1 2.496-2.495h5.176c1.376 0 2.495 1.12 2.495 2.532 0 1.29-.988 2.343-2.247 2.469-.084-.004-.163-.025-.248-.025z" mask="url(#c)"/>
        </g>
        <path fill="#5D5D61" d="M3.37 19c.078.077.178.144.29.2a.918.918 0 0 0 .99-.2c.078-.09.145-.19.19-.29a.825.825 0 0 0 0-.701.87.87 0 0 0-.19-.29.931.931 0 0 0-.99-.2.753.753 0 0 0-.29.2.753.753 0 0 0-.2.29.95.95 0 0 0 0 .701c.044.111.111.2.2.29"/>
    </g>
</svg>
