<svg xmlns="http://www.w3.org/2000/svg" width="62" height="48" viewBox="0 0 62 48">
    <g fill="none" fill-rule="evenodd">
        <path fill="#B4B4B4" d="M36.04 41.535s.563.444 2.471.666c1.908.22 4.91-.011 5.913-.333 1-.323 4.91-2.026 5.787-2.91.876-.885 1.943-1.973 2.165-2.636.222-.662.427-.845.427-.845l1.086 3.16s-.552 2.64-1.708 3.562c-1.156.923-4.681 2.696-5.897 2.943-1.217.247-5.517.806-6.521.571-1-.236-2.629-1.041-2.847-1.322-.219-.28-.876-2.856-.876-2.856"/>
        <path fill="#FFF" d="M50.779 43.109s1.851.059 3.025.045c1.171-.014 4.619-.643 5.518-.954.899-.31 1.97-1.069 1.97-1.069s.422 1.575.203 2.173c-.22.6-.122 1.01-.995 1.592-.875.582-3.478 1.359-4.615 1.49-1.14.132-4.36.44-6.144.24-1.782-.2-4.004-.912-4.004-.912l-.279-.429 5.32-2.176z"/>
        <path fill="#5C5C60" d="M61.802 39.999c-.254-1.986-4.197-3.068-8.117-3.257a.559.559 0 0 0-.562.509.536.536 0 0 0 .51.56c4.647.226 7.123 1.533 7.123 2.39 0 1.01-3.2 2.417-8.413 2.417-.673 0-1.322-.024-1.926-.07a.535.535 0 1 0-.083 1.068c.631.048 1.307.073 2.01.073 3.37 0 6.761-.616 8.424-1.803v1.786c0 1.009-3.2 2.417-8.414 2.417-2.796 0-5.437-.443-7.064-1.186a.534.534 0 1 0-.445.974c1.786.816 4.522 1.283 7.509 1.283 4.714 0 9.485-1.197 9.485-3.488V40.18a.545.545 0 0 0-.037-.182M36.973 36.51a.54.54 0 0 0 .382.159.513.513 0 0 0 .376-.158.514.514 0 0 0 .157-.375.539.539 0 0 0-.157-.382.54.54 0 0 0-.58-.112.646.646 0 0 0-.178.112.568.568 0 0 0-.157.382.46.46 0 0 0 .046.204.51.51 0 0 0 .111.17"/>
        <path fill="#5C5C60" d="M54.229 37.813l-1.15-3.529c-.016-.046-.044-.08-.07-.12-.952-2.461-5.494-3.114-10.463-1.471-1.58.524-3.066 1.24-4.293 2.076a.536.536 0 0 0 .602.886c1.147-.78 2.539-1.453 4.029-1.946 4.776-1.58 8.593-.806 9.16.909.569 1.716-2.033 4.614-6.81 6.195-2.196.726-4.385 1.003-6.166.776-1.613-.205-2.705-.816-2.994-1.679l-.003-.005v-.003c-.266-.81.19-1.676.623-2.262a.536.536 0 0 0-.863-.635c-.834 1.13-1.102 2.25-.776 3.236a.02.02 0 0 0 .002.007l1.148 3.518c.372 1.13 1.505 1.947 3.187 2.298.043.01.886.185 2.202.185.36 0 .758-.015 1.183-.047a17.885 17.885 0 0 0 3.943-.844c5.053-1.674 8.352-4.99 7.509-7.545m-7.846 6.527c-1.254.416-2.5.683-3.697.795-1.801.14-3.06-.116-3.074-.12-1.294-.27-2.142-.832-2.39-1.581l-.454-1.394c.598.294 1.318.504 2.165.611.447.058.918.085 1.406.085 1.62 0 3.429-.31 5.231-.906 3.52-1.166 6.182-3.13 7.185-5.083l.456 1.4c.635 1.922-2.493 4.758-6.828 6.193"/>
        <path fill="#5C5C60" d="M45.97 34.368a.536.536 0 0 0-.616-.441c-.17.028-.97.172-1.849.464a.53.53 0 0 0-.51-.126.536.536 0 0 0-.376.474c-.656.304-1.252.7-1.542 1.21-.237.414-.269.87-.093 1.321.37.946 1.436.806 2.52.52l.345 1.142c-.732.22-1.46.357-1.863.372a.535.535 0 0 0 .02 1.07h.022c.364-.014 1.25-.15 2.18-.431a.534.534 0 0 0 .556.165.527.527 0 0 0 .374-.497c.743-.315 1.41-.734 1.737-1.275.28-.47.302-.984.059-1.491-.435-.91-1.594-.681-2.71-.369l-.327-1.084c.574-.189 1.17-.331 1.632-.408a.536.536 0 0 0 .44-.616m-3.987 2.515a.432.432 0 0 1 .025-.404c.144-.252.478-.483.891-.688l.293.975c-.514.131-1.075.242-1.209.117m3.986.425c.087.18.084.317-.011.475-.175.29-.593.554-1.101.78l-.322-1.06c.558-.154 1.276-.325 1.434-.195"/>
        <path fill="#FFF" d="M5.29 31.998h17.495V6.304H5.289z"/>
        <path fill="#B5B5B5" d="M16.152 36.824a2.115 2.115 0 1 1-4.23 0 2.115 2.115 0 0 1 4.23 0"/>
        <path fill="#5C5C60" d="M14.037 39.808a2.989 2.989 0 0 1-2.984-2.984 2.988 2.988 0 0 1 2.984-2.984 2.988 2.988 0 0 1 2.985 2.984 2.989 2.989 0 0 1-2.985 2.984m0-4.228c-.686 0-1.245.558-1.245 1.244a1.247 1.247 0 0 0 2.49 0c0-.686-.559-1.244-1.245-1.244M9.88 27.121h1.386v-1.387H9.879zM13.344 27.121h1.386v-1.387h-1.386zM16.808 27.121h1.388v-1.387h-1.388z"/>
        <path fill="#5C5C60" d="M25.776 0H2.297A2.3 2.3 0 0 0 0 2.297v22.727a.87.87 0 1 0 1.74 0V2.297c0-.308.25-.558.557-.558h23.479c.309 0 .559.25.559.558v37.765c0 .309-.25.559-.559.559H2.297a.559.559 0 0 1-.558-.56v-8.28a.87.87 0 0 0-1.739 0v8.28a2.3 2.3 0 0 0 2.297 2.299h23.479a2.3 2.3 0 0 0 2.298-2.298V2.297A2.3 2.3 0 0 0 25.776 0"/>
        <path fill="#5C5C60" d="M4.42 32.867h19.234V5.434H4.42v27.433zm1.738-1.739h15.757V7.174H6.158v23.954zM11.266 4.251h5.543V2.865h-5.543zM.592 28.518a.88.88 0 0 0 .33.073.88.88 0 0 0 .332-.073.853.853 0 0 0 .535-.802.88.88 0 0 0-.064-.333.728.728 0 0 0-.193-.276.723.723 0 0 0-.278-.193.888.888 0 0 0-.662 0 .876.876 0 0 0-.545.802c0 .235.096.449.256.62.085.074.182.139.289.182"/>
        <path fill="#FFF" d="M15.36 28.775H5.329V8.82H38.21v19.956H19.904"/>
        <path fill="#B5B5B5" d="M25.43 18.792a3.826 3.826 0 1 1-7.653 0 3.826 3.826 0 0 1 7.652 0"/>
        <path fill="#5C5C60" d="M21.603 23.488a4.7 4.7 0 0 0 4.695-4.695 4.7 4.7 0 0 0-4.695-4.696 4.702 4.702 0 0 0-4.695 4.696 4.701 4.701 0 0 0 4.695 4.695m0-7.652a2.959 2.959 0 0 1 2.956 2.957 2.959 2.959 0 0 1-2.956 2.956 2.96 2.96 0 0 1-2.956-2.956 2.96 2.96 0 0 1 2.956-2.957"/>
        <path fill="#5C5C60" d="M38.211 7.95H5.329a.87.87 0 0 0-.87.869v19.956c0 .48.39.87.87.87h10.03a.87.87 0 0 0 0-1.74l-3.486.001c-1.046-3.778-3.841-5.212-5.674-5.55V15.32c1.847-.338 4.672-1.79 5.698-5.63h19.677c1.04 3.89 3.922 5.326 5.768 5.641v7.015c-1.832.312-4.684 1.734-5.743 5.56H19.904a.87.87 0 0 0 0 1.74H38.21a.87.87 0 0 0 .87-.87V8.818a.87.87 0 0 0-.87-.87zM10.053 27.906H6.2v-3.758c1.074.276 2.953 1.13 3.854 3.758zM6.2 13.53v-3.84h3.88c-.89 2.69-2.795 3.562-3.88 3.84zm31.143 14.377h-3.923c.918-2.683 2.861-3.519 3.923-3.776v3.776zm0-14.359c-1.072-.259-3.041-1.112-3.949-3.858h3.949v3.858z"/>
        <path fill="#5C5C60" d="M18.134 28.293a.893.893 0 0 0-1.23 0 .872.872 0 0 0-.256.608c0 .237.085.45.256.62.086.086.171.14.278.194a.879.879 0 0 0 .951-.193.9.9 0 0 0 .257-.62.907.907 0 0 0-.064-.331.85.85 0 0 0-.192-.278"/>
        <path fill="#FEFEFF" d="M14.347 19.598H9.711a.708.708 0 0 1-.705-.705c0-.388.317-.706.705-.706h4.636c.388 0 .706.318.706.706a.708.708 0 0 1-.706.705M33.474 19.598h-4.637a.707.707 0 0 1-.705-.705c0-.388.318-.706.705-.706h4.637c.387 0 .704.318.704.706a.707.707 0 0 1-.704.705"/>
    </g>
</svg>
