<svg xmlns="http://www.w3.org/2000/svg" width="30" height="31" viewBox="0 0 30 31">
    <defs>
        <filter id="a" width="242.5%" height="236%" x="-71.2%" y="-67.8%" filterUnits="objectBoundingBox">
            <feOffset dy="2" in="SourceAlpha" result="shadowOffsetOuter1"/>
            <feGaussianBlur in="shadowOffsetOuter1" result="shadowBlurOuter1" stdDeviation="2.5"/>
            <feColorMatrix in="shadowBlurOuter1" result="shadowMatrixOuter1" values="0 0 0 0 0 0 0 0 0 0 0 0 0 0 0 0 0 0 0.2890625 0"/>
            <feMerge>
                <feMergeNode in="shadowMatrixOuter1"/>
                <feMergeNode in="SourceGraphic"/>
            </feMerge>
        </filter>
    </defs>
    <g fill="none" fill-rule="evenodd" transform="translate(1)">
        <rect width="28" height="28" fill="#EC1C24" rx="7"/>
        <g filter="url(#a)" transform="translate(4.516 4.516)">
            <path fill="#DD7B7B" d="M15.27 13.746c-1.2 1.809-3.033 3.312-5.821 3.923C.109 15.622 1.483 3.563 1.483 3.563c.65.075 1.279.083 1.88.042l.125.091-.125-.09c3.53-.242 6.086-2.179 6.086-2.179s3.499 2.653 7.965 2.136c0 0 .675 5.934-2.144 10.183m3.544-11.235C13.564 3.12 9.45 0 9.45 0S5.334 3.12.083 2.511c0 0-1.615 14.179 9.366 16.585 10.98-2.406 9.365-16.585 9.365-16.585"/>
            <path fill="#930E0E" d="M14.539 13.346c-1.062 1.561-2.668 2.854-5.09 3.385V2.365s-.93.704-2.42 1.265c1.49-.561 2.42-1.265 2.42-1.265s3.095 2.347 7.045 1.89c0 0 .606 5.327-1.955 9.09M9.45 1.428S6.893 3.364 3.363 3.605l.125.091-.125-.09c-.601.04-1.23.032-1.88-.043 0 0-1.374 12.059 7.966 14.106 2.788-.611 4.62-2.114 5.82-3.923 2.82-4.249 2.145-10.183 2.145-10.183-4.466.517-7.965-2.136-7.965-2.136"/>
            <path fill="#B72626" d="M9.449 1.468v16.16c2.724-.597 4.531-2.051 5.727-3.808 2.88-4.234 2.198-10.227 2.198-10.227-4.444.515-7.925-2.125-7.925-2.125"/>
            <path fill="#7B2020" d="M9.449 13.878H6.884a.719.719 0 0 1-.717-.717V8.665c0-.395.322-.717.717-.717h.014v-.866c0-1.622 1.126-2.965 2.55-3.106v.638c-1.1.139-1.963 1.187-1.963 2.45v.884h1.964v5.93"/>
            <path fill="#A63B3B" d="M12.51 13.878H9.45v-5.93h2.46v-.885c0-1.355-.995-2.465-2.212-2.465-.084 0-.167.006-.248.016v-.638c.082-.009.165-.013.248-.013 1.54 0 2.8 1.404 2.8 3.12v.865h.013c.395 0 .718.322.718.717v4.496a.719.719 0 0 1-.718.717"/>
            <path fill="#F05F5F" d="M9.108 11.945v.212h.662v-.212a1.997 1.997 0 0 1-.662 0"/>
            <path fill="#FDDBDB" d="M9.439 3.705c-1.54 0-2.8 1.403-2.8 3.119v.865h.587v-.884c0-1.356.996-2.465 2.213-2.465s2.213 1.11 2.213 2.465v.884h.587v-.865c0-1.716-1.26-3.12-2.8-3.12"/>
            <path fill="#EB2F2F" d="M9.439 9.152a.88.88 0 0 1 .33 1.696v1.309h-.661v-1.309a.881.881 0 0 1 .33-1.696zm2.813-1.463H6.625a.72.72 0 0 0-.717.717v4.496a.72.72 0 0 0 .717.717h3.848c1.114-.629 2.002-1.683 2.497-2.973v-2.24a.72.72 0 0 0-.718-.717z"/>
            <path fill="#EB2F2F" d="M10.473 13.62h1.78a.72.72 0 0 0 .717-.718v-2.256c-.495 1.29-1.383 2.344-2.497 2.973"/>
            <path fill="#7F1B1C" d="M10.32 10.033a.88.88 0 1 0-1.212.815v1.097a1.988 1.988 0 0 0 .662 0v-1.097a.88.88 0 0 0 .55-.815"/>
        </g>
    </g>
</svg>
