<svg xmlns="http://www.w3.org/2000/svg" width="60" height="60" viewBox="0 0 60 60">
    <g fill="#FF161F" fill-rule="evenodd">
        <path d="M44.8 45h-1.6c-3.16-1.34-5.2-4.32-5.2-7.64V35h12v2.36c0 3.32-2.03 6.3-5.2 7.64m5.2 9.64V57H38v-2.36c0-3.32 2.03-6.3 5.2-7.64h1.61c3.16 1.34 5.19 4.32 5.19 7.64m2-17.28V35h1c.55 0 1-.45 1-1s-.45-1-1-1H35c-.55 0-1 .45-1 1s.45 1 1 1h1v2.36c0 3.53 1.85 6.75 4.83 8.64-2.98 1.89-4.83 5.1-4.83 8.64V57h-1c-.55 0-1 .45-1 1s.45 1 1 1h18c.55 0 1-.45 1-1s-.45-1-1-1h-1v-2.36c0-3.53-1.85-6.75-4.83-8.64 2.98-1.89 4.83-5.1 4.83-8.64M30 31.88c-1.1 0-2-.9-2-2s.9-2 2-2 2 .9 2 2-.9 2-2 2m1-5.86V15.88c0-.55-.45-1-1-1s-1 .45-1 1v10.14A3.996 3.996 0 0 0 26.1 29H19c-.55 0-1 .45-1 1s.45 1 1 1h7.18c.49 1.66 2.01 2.88 3.82 2.88 2.21 0 4-1.79 4-4 0-1.86-1.28-3.41-3-3.86M30 9.88c.55 0 1-.45 1-1v-1c0-.55-.45-1-1-1s-1 .45-1 1v1c0 .55.45 1 1 1M52 30.88c.55 0 1-.45 1-1s-.45-1-1-1h-1c-.55 0-1 .45-1 1s.45 1 1 1h1zM8 28.88c-.55 0-1 .45-1 1s.45 1 1 1h1c.55 0 1-.45 1-1s-.45-1-1-1H8zM45.56 15.74l.71-.71a.994.994 0 0 0 0-1.41.995.995 0 0 0-1.41 0l-.71.71a.994.994 0 0 0 .71 1.7c.26 0 .5-.1.7-.29M14.44 44.02l-.71.71a.995.995 0 0 0 .71 1.7c.26 0 .51-.1.71-.29l.71-.71a.996.996 0 0 0 0-1.41c-.39-.39-1.03-.39-1.42 0M15.86 14.32l-.71-.71a.996.996 0 1 0-1.41 1.41l.71.71c.2.2.45.29.71.29.26 0 .51-.1.71-.29.38-.38.38-1.02-.01-1.41"/>
        <path d="M30 0C13.46 0 0 13.46 0 30c0 13.83 9.36 25.8 22.76 29.12a.992.992 0 0 0 1.21-.73.995.995 0 0 0-.73-1.21A27.95 27.95 0 0 1 2 30C2 14.56 14.56 2 30 2s28 12.56 28 28c0 3.47-.63 6.86-1.88 10.09-.2.51.06 1.09.57 1.29.51.2 1.09-.06 1.29-.57C59.32 37.35 60 33.71 60 30 60 13.46 46.54 0 30 0"/>
    </g>
</svg>
