<svg xmlns="http://www.w3.org/2000/svg" width="640" height="150" viewBox="0 0 640 150">
    <path fill="#F4F4F4" fill-opacity=".203" fill-rule="evenodd" d="M436.672 128.71h-35.825V120h35.825v8.71zm.968 1.935h-38.73v-11.613h38.73v11.613zM316.61 81.29h-6.777v-6.774h6.777v6.774zm2.905 0h-.968v-6.774h.968v6.774zm1.936.968h-12.587v-9.677h12.587v9.677zm-4.84 14.516h-6.778V90h6.777v6.774zm2.904 0h-.968V90h.968v6.774zm1.936 1.936h-12.587v-9.678h12.587v9.678zm115.22 44.516h-35.825v-8.71h35.825v8.71zm.968 1.935h-38.73v-11.613h38.73v11.613zm-63.903-12.58H371.8V13.548h1.937v119.033zm7.746-19.355h-1.937V20.323h1.937v92.903zm7.745-25.161h-1.936V26.129h1.936v61.936zm-72.617 25.16h-6.777v-6.773h6.777v6.774zm2.905 0h-.968v-6.773h.968v6.774zm1.936.969h-12.587v-9.678h12.587v9.678zm15.492 14.516h-6.778v-6.775h6.778v6.775zm2.905 0h-.969v-6.775h.969v6.775zm.968 1.935H328.23v-9.677h12.587v9.677zm-3.873-17.42h-6.778v-6.773h6.778v6.774zm2.905 0h-.969v-6.773h.969v6.774zm.968.969H328.23v-9.678h12.587v9.678zM316.61 128.71h-6.777v-6.775h6.777v6.775zm2.905 0h-.968v-6.775h.968v6.775zm1.936 1.935h-12.587v-9.677h12.587v9.677zm15.492-33.87h-6.778V90h6.778v6.774zm2.905 0h-.969V90h.969v6.774zm.968 1.935H328.23v-9.678h12.587v9.678zm-3.873-17.42h-6.778v-6.774h6.778v6.774zm2.905 0h-.969v-6.774h.969v6.774zm.968.968H328.23v-9.677h12.587v9.677zm117.156 27.097h-8.714v-5.807h8.714v5.807zm.968.968h-11.619v-8.71h11.619v8.71zm-.968-13.549h-8.714v-5.806h8.714v5.806zm.968.968h-11.619v-8.71h11.619v8.71zM356.309 81.29h-6.778v-6.774h6.778v6.774zm2.904 0h-.968v-6.774h.968v6.774zm1.937.968h-12.587v-9.677h12.587v9.677zm96.823 39.677h-8.714v-5.806h8.714v5.806zm.968.968h-11.619v-8.71h11.619v8.71zm-.968-39.677h-8.714v-5.807h8.714v5.807zm.968 1.935h-11.619v-8.71h11.619v8.71zm-.968-27.096h-8.714v-5.807h8.714v5.807zM458.94 60h-11.619v-8.71h11.619V60zm-.968 10.645h-8.714V64.84h8.714v5.806zm.968 1.936h-11.619v-8.71h11.619v8.71zm-22.27-2.904h-35.824v-8.71h35.825v8.71zm.969 1.936h-38.73V60h38.73v11.613zm-.968 28.064h-35.825v-8.71h35.825v8.71zm.968.968h-38.73V89.032h38.73v11.613zm-.968-15.484h-35.825v-8.71h35.825v8.71zm.968.968h-38.73V74.516h38.73V86.13zm20.333 48.387h-8.714v-5.806h8.714v5.806zm.968.968h-11.619v-8.71h11.619v8.71zm-22.27-94.839h-35.824v-8.71h35.825v8.71zm.969 1.936h-38.73V30.968h38.73V42.58zm-.968 71.613h-35.825v-8.71h35.825v8.71zm.968.967h-38.73v-11.613h38.73v11.613zm-.968-60h-35.825v-8.71h35.825v8.71zm.968 1.936h-38.73V45.484h38.73v11.613zM60.998 92.903H40.666V86.13h20.332v6.774zm0-8.71H40.666v-1.935h20.332v1.936zm1.937 10.646H39.697V81.29h23.238V94.84zm-1.937-19.355H40.666V68.71h20.332v6.774zm0-7.742H40.666v-2.903h20.332v2.903zm1.937 8.71H39.697V62.903h23.238v13.549zm424.837 71.613h8.178c2.016 0 3.657-1.47 3.657-3.275s-1.641-3.273-3.657-3.273c-.394 0-.783.057-1.158.17a.802.802 0 0 1-1.01-.61c-.151-.75-.585-1.397-1.186-1.871a.783.783 0 0 1-.898-.513 3.983 3.983 0 0 0-1.512-.306c-1.845 0-3.405 1.235-3.629 2.872a.8.8 0 0 1-.457.62c-1.224.566-1.985 1.681-1.985 2.911 0 1.806 1.64 3.275 3.657 3.275zm12.264-.049c.288.03.577.049.869.049h15.975c4.356 0 7.9-3.195 7.9-7.122 0-3.926-3.544-7.12-7.9-7.12-.843 0-1.677.12-2.479.358a.799.799 0 0 1-1.012-.607c-.686-3.38-3.953-5.832-7.769-5.832-3.982 0-7.352 2.681-7.84 6.238a.8.8 0 0 1-.458.618c-1.532.706-2.776 1.866-3.525 3.247a4.873 4.873 0 0 1 1.562 2.047c.276-.04.556-.061.837-.061 2.904 0 5.267 2.183 5.267 4.865 0 1.284-.545 2.45-1.427 3.32zm24.745-30.089c-6.096-.181-11.457-3.54-14.687-8.572a9.547 9.547 0 0 1-4.678 1.26v15.08c4.182.074 7.79 2.688 8.927 6.385a10.172 10.172 0 0 1 2.126-.225c3.577 0 6.697 1.86 8.312 4.597v-18.525zm.766-22.204c.445 0 .805.36.805.805v13.263l5.87-8.095a.804.804 0 1 1 1.302.947l-7.172 9.891v4.536c8.838-.594 15.857-8.38 15.857-17.87 0-9.875-7.6-17.91-16.943-17.91-9.344 0-16.945 8.035-16.945 17.91 0 9.691 7.32 17.603 16.422 17.897v-4.563l-7.172-9.89a.805.805 0 1 1 1.302-.948l5.87 8.095V96.528c0-.444.36-.805.804-.805zm14.725 52.342h10.716v-10.176h18.267v10.176h10.715V27.097h-39.698v59.79c2.499 3.322 3.998 7.526 3.998 12.096 0 4.571-1.498 8.777-3.998 12.1v36.982zm27.11 0h-15.49v-8.71h15.49v8.71zM579.97 26.129h-39.698v-3.87h39.698v3.87zm-74.554 76.56v6.666a7.954 7.954 0 0 0 3.873-1.05 20.955 20.955 0 0 1-2.372-8.628l-1.501 3.012zm.1-32.044c-2.466 2.79-11.719 13.819-11.719 22.22 0 8.454 4.599 15.45 10.527 16.49v-6.737l-5.777-11.384a.81.81 0 0 1 .346-1.086.796.796 0 0 1 1.077.35l4.354 8.58V80.454c0-.446.358-.807.8-.807.44 0 .799.361.799.807v18.964l1.633-3.22c.64-5.002 3.064-9.41 6.574-12.47-2.773-5.853-7.067-11.233-8.615-13.082zm76.39 77.42h9.021v-12.392a.8.8 0 0 1 .803-.799h16.223a.8.8 0 0 1 .802.8v12.39h2.869v-12.39a.8.8 0 0 1 .802-.8h16.221a.8.8 0 0 1 .802.8v12.39h9.583V60h-57.126v88.065zm25.174 0h-14.523v-11.613h14.523v11.613zm20.333 0H612.89v-11.613h14.523v11.613zm7.746-90h-49.38v-9.678h49.38v9.678zM484.722 140.84c.522-2.213 2.656-3.832 5.144-3.832.697 0 1.367.127 1.982.358.847-1.574 2.18-2.876 3.867-3.744.713-3.708 3.95-6.55 7.936-7.105v-15.118c-6.821-1.014-12.142-8.709-12.142-18.025 0-10.225 12.249-23.308 12.77-23.86a.8.8 0 0 1 1.177.016c.337.376 5.844 6.582 9.314 13.73 2.965-2.14 6.549-3.395 10.408-3.395 4.985 0 9.51 2.095 12.835 5.49V20.648h32.088V3.871h1.601v16.778h9.472v37.643h2.957V46.671h52.38v11.621H640v91.697h-58.826V150h-43.161v-36.73c-3.082 3.144-7.2 5.17-11.754 5.45v29.712a.802.802 0 0 1-1.601 0v-2.975c-1.618 2.705-4.745 4.543-8.33 4.543h-15.973c-.982 0-1.947-.143-2.875-.414a5.599 5.599 0 0 1-1.834.311h-8.2c-2.904 0-5.267-2.189-5.267-4.88 0-1.73.964-3.296 2.543-4.177zM356.31 96.774h-6.778V90h6.778v6.774zm2.904 0h-.968V90h.968v6.774zm1.937 1.936h-12.587v-9.678h12.587v9.678zm-214.947 39.677h-9.683v-9.677h9.683v9.677zm.968.968h-12.587v-12.58h12.587v12.58zM91.014 75.484H70.68V68.71h20.333v6.774zm0-7.742H70.68v-2.903h20.333v2.903zm1.936 8.71H69.713V62.903H92.95v13.549zm-1.936 16.451H70.68V86.13h20.333v6.774zm0-8.71H70.68v-1.935h20.333v1.936zM92.95 94.84H69.713V81.29H92.95V94.84zm-1.936 15.484H70.68v-6.775h20.333v6.775zm0-8.71H70.68v-1.936h20.333v1.936zm1.936 10.645H69.713V98.71H92.95v13.548zm8.714-56.129H1.936v-6.774h99.728v6.774zm-4.841 90.968H1.936v-5.807h94.887v5.807zm-29.047-7.742H35.825v-21.29h31.951v21.29zm1.187-23.105v23.105H96.68v-46.83h-2.482V86.74h4.561V58.065H3.873v81.29h29.796V116.25h35.294zm85.954-25.282H95.855v-2.903h59.062v2.903zm-1.937 56.129H98.76V92.903h54.22v54.194zM0 57.702V47.42h102.839v10.283h-2.199v28.742h56.213v5.8h-2.492v55.82H96.947v-.227H0v-8.653h2.197V57.702H0zm61.967 78.75H40.666v-6.775h21.3v6.775zm1.936 1.935H38.73v-9.677h25.174v9.677zm-32.92-70.645H10.651v-2.903h20.332v2.903zm0 7.742H10.651V68.71h20.332v6.774zm.969.968H8.714V62.903h23.238v13.549zm30.015 49.354H40.666v-3.87h21.3v3.87zm1.936.968H38.73V120h25.174v6.774zm-32.92-42.58H10.651v-1.936h20.332v1.936zm0 8.71H10.651v-6.775h20.332v6.774zm.969 1.935H8.714V81.29h23.238V94.84zm-.969 6.774H10.651v-1.936h20.332v1.936zm0 8.71H10.651v-6.775h20.332v6.775zm.969 1.935H8.714V98.71h23.238v13.548zm29.046-1.935H40.666v-6.775h20.332v6.775zm0-8.71H40.666v-1.936h20.332v1.936zm1.937 10.645H39.697V98.71h23.238v13.548zm83.268 9.677h-9.683v-9.677h9.683v9.677zm.968 1.936h-12.587v-12.58h12.587v12.58zm36.583 11.613h3.324c.419 0 .759.433.759.968 0 .534-.34.967-.759.967h-3.324c-.419 0-.759-.433-.759-.967 0-.535.34-.968.76-.968zm181.269-68.71h-61.967v-5.806h61.967v5.806zm-61.967 80.323h6.382v-13.222h49.37v13.222h6.215V68.71h-61.967v78.387zm30.983.968H311.77v-11.613h22.27v11.613zm23.238 0h-22.27v-11.613h22.27v11.613zm9.682-.968h28.079V19.767L366.959 2.903v144.194zM355.34 60h-20.332v-5.806h20.332V60zm85.205 87.097h-44.539v-120h44.539v120zm2.904.968h2.81v-8.063h14.373v8.063h3.15v-98.71H443.45v98.71zm8.714 0h-4.84v-6.775h4.84v6.775zm6.778 0H454.1v-6.775h4.841v6.775zm15.492 0h-8.714v-98.71h8.714v98.71zm5.81 0H475.4v-98.71h4.841v98.71zM333.82 52.076h2.22V40.47h1.6v11.607h1.854v-6.79h1.599v6.79h16.022v7.415h8.44V0l30.77 18.855v6.569h46.531v21.725h39.323v101.788h-39.323v.095h-48.13v-.098h-27.572v.097h-65.066V59.49h31.732v-7.415zm22.489 61.15h-6.778v-6.774h6.778v6.774zm2.904 0h-.968v-6.774h.968v6.774zm1.937.968h-12.587v-9.678h12.587v9.678zm-93.919 32.892c.027.005.06.01.102.01h4.637a.448.448 0 0 0 .103-.01v-15.461a.417.417 0 0 0-.103-.012h-4.637a.437.437 0 0 0-.102.012v15.46zm14.524-64.828h8.714c-.96-1.168-2.554-1.935-4.358-1.935-1.803 0-3.397.767-4.356 1.935zm-.787 1.936c-.115.44-.181.898-.181 1.374 0 2.977 2.388 5.4 5.324 5.4s5.326-2.423 5.326-5.4a5.46 5.46 0 0 0-.18-1.374h-10.29zm-26.807-3.871c-1.804 0-3.398.767-4.358 1.935h8.714c-.958-1.168-2.553-1.935-4.356-1.935zm-5.145 3.87c-.114.44-.18.9-.18 1.375 0 2.977 2.388 5.4 5.325 5.4 2.936 0 5.325-2.423 5.325-5.4 0-.476-.068-.935-.181-1.374h-10.289zm18.455 45.941h1.377v-45.25l-8.306-7.72h-6.095v1.373c3.313.41 5.888 3.228 5.888 6.641 0 3.693-3.014 6.698-6.718 6.698-3.705 0-6.718-3.005-6.718-6.698 0-3.43 2.6-6.262 5.939-6.649v-2.243a.804.804 0 0 1 1.14-.726h6.88c.231 0 .438.099.585.255.007.006.015.007.02.013l8.189 7.61 8.188-7.61c.005-.006.013-.007.019-.012a.8.8 0 0 1 .586-.256h6.88a.804.804 0 0 1 1.14.726l.001 2.243c3.339.387 5.94 3.22 5.94 6.65 0 3.692-3.015 6.697-6.72 6.697-3.702 0-6.716-3.005-6.716-6.698 0-3.413 2.574-6.231 5.887-6.641v-1.373h-6.095l-8.305 7.718v45.252h1.375c.957 0 1.706.643 1.706 1.465v15.97c0 .82-.75 1.463-1.706 1.463h-4.361c-.957 0-1.705-.643-1.705-1.463v-15.97c0-.822.748-1.465 1.705-1.465zM164.602 140.59c.14 2.255 3.432 2.518 7.188 2.534a4.984 4.984 0 0 1 4.912-4.162 4.982 4.982 0 0 1 4.908 4.145h11.221a4.982 4.982 0 0 1 4.908-4.145 4.98 4.98 0 0 1 4.923 4.247c.16.01.332.018.518.018 1.028 0 1.832-.2 2.324-.58.365-.28.57-.663.606-1.101.015-.467.033-.89.05-1.299.147-3.83.177-6.001-.946-6.067-1.547-.09-2.052-2.37-2.588-4.79-.59-2.663-1.262-5.68-3.5-6.415-1.993-.65-4.717-1.039-7.287-1.039-1.334 0-2.637.1-3.876.299-2.64.42-5.014 1.285-7.056 2.57-2.374 1.493-4.306 3.564-5.744 6.153l-.167.3-.333.087c-.288.075-.856.189-1.693.34-3.11.558-8.317 1.49-8.324 4.94l-.01.748v.079c-.024 1.554-.045 2.963-.034 3.138zm12.101 7.476a3.392 3.392 0 0 0 3.388-3.388 3.391 3.391 0 0 0-3.388-3.387c-1.87 0-3.39 1.52-3.39 3.387a3.393 3.393 0 0 0 3.39 3.388zm20.332 0a3.392 3.392 0 0 0 3.389-3.388 3.392 3.392 0 0 0-3.389-3.387 3.392 3.392 0 0 0-3.389 3.387 3.392 3.392 0 0 0 3.39 3.388zm6.293-2.451c-.072 0-.14.008-.213.008-.264 0-.51-.013-.743-.03-.005.034-.007.066-.012.098.325.024.65-.002.968-.076zm3.72-10.13a2.528 2.528 0 0 0-.3-1.182h10.136l-6.03-10.443 3.9-3.01-5.26-9.142 2.783-2.96-9.572-12.94-9.575 12.94 2.783 2.96-5.172 8.986c.102 0 .203-.005.305-.005 2.762 0 5.706.421 7.877 1.127 3.145 1.028 3.964 4.7 4.623 7.658.235 1.056.719 3.236 1.171 3.562 1.41.1 2.056 1 2.332 2.449zm12.303-21.299l2.609.003c1.605.003 3.595.006 5.6.006 4.22 0 6.965-.014 8.393-.044 6.139-.131 11.048-4.498 10.944-9.732-.078-3.681-2.68-7.01-6.632-8.482l-.795-.296.337-.779a6.781 6.781 0 0 0-3.397-8.886l-.506-.23.035-.554c.012-.2.02-.405.02-.61 0-2.547-5.842-4.258-11.298-4.258-4.334 0-7.67 1.054-7.93 2.508l-.12.662-.803-.001c-4.212 0-7.639 3.458-7.639 7.708 0 2.086.812 4.038 2.284 5.496l.482.477-.389.557a10.307 10.307 0 0 0-1.68 3.994l5.045 6.864-2.222 2.379a10.703 10.703 0 0 0 7.662 3.218zm6.247 28.821c0 2.79 2.977 5.059 6.636 5.059h23.522c3.657 0 6.634-2.27 6.634-5.059 0-2.263-2.003-4.268-4.87-4.875l-.683-.145.05-.748c.002-.028.005-.055.005-.082 0-1.511-1.422-2.74-3.17-2.74h-4.158l-.165-.585c-.517-1.846-2.697-3.186-5.185-3.186h-2.487c-2.489 0-4.671 1.34-5.189 3.186l-.164.584h-2.107c-1.746 0-3.167 1.23-3.167 2.741l.019.837-.65.138c-2.868.607-4.871 2.613-4.871 4.875zm-62.9-5.477c.007-.371.011-.658.011-.721.009-4.766 6.01-5.842 9.599-6.486.605-.11.992-.186 1.24-.238 1.543-2.671 3.59-4.82 6.084-6.391 2.216-1.395 4.78-2.332 7.62-2.785.627-.1 1.27-.175 1.923-.228l5.002-8.73-2.838-3.032 11.487-15.592 5.26 7.142c.295-.93.697-1.825 1.22-2.664a9.167 9.167 0 0 1-2.286-6.092c0-4.93 3.868-8.969 8.712-9.21 1.294-2.908 7.318-3.147 9.238-3.147 6.36 0 12.8 1.995 12.8 5.808 0 .056 0 .112-.002.168a8.311 8.311 0 0 1 4.381 7.319c0 .87-.136 1.727-.406 2.557 4.115 1.816 6.787 5.491 6.873 9.553.12 6.058-5.448 11.107-12.414 11.256-1.374.028-3.962.042-7.893.043v20.402a9.272 9.272 0 0 1 1.045-.372c.234-2.191 2.25-3.91 4.694-3.91h.901c.936-2.25 3.492-3.774 6.45-3.774h2.452c2.956 0 5.512 1.524 6.447 3.774h2.923c2.445 0 4.463 1.719 4.696 3.911 3.234.926 5.442 3.439 5.442 6.284 0 3.671-3.65 6.658-8.135 6.658h-23.179c-1.35 0-2.62-.274-3.741-.752a.795.795 0 0 1-1.591-.044v-.845c-1.715-1.221-2.804-3.015-2.804-5.017 0-1.977 1.067-3.792 2.804-5.028V116.06l-4.424-.005-2.584-.003a12.22 12.22 0 0 1-7.237-2.361l4.28 7.471-3.833 2.972 6.61 11.499h-12.357c.172 1.292.108 2.956.035 4.849-.017.403-.033.82-.05 1.318a3.141 3.141 0 0 1-1.223 2.268c-.589.454-1.362.739-2.306.852v2.277a.798.798 0 0 1-1.596 0v-1.892a4.96 4.96 0 0 1-4.798 3.728 4.959 4.959 0 0 1-4.89-4.176h-11.15a4.957 4.957 0 0 1-4.89 4.176 4.959 4.959 0 0 1-4.89-4.158c-3.543-.006-8.502-.16-8.741-4.018-.012-.176-.01-.693.03-3.247v-.08zm26.107-5.175v-5.58l-.08.004c-2.451.135-4.756.762-6.493 1.765-1.779 1.028-2.875 2.407-3.087 3.884l-.022.154 9.682-.227zm.968.227l8.714-.2-.015-.148c-.19-1.811-.915-3.082-2.28-3.999-1.445-.971-3.547-1.448-6.419-1.46v5.807zm-8.396-5.8c1.963-1.08 4.54-1.754 7.257-1.897.58-.03 1.135-.045 1.646-.045 3.113 0 5.434.529 7.096 1.616 1.69 1.103 2.623 2.673 2.853 4.798l.195 1.776-23.238.52.292-1.929c.286-1.893 1.67-3.612 3.899-4.838zm-34.206 18.38h-29.047v-1.935h29.047v1.935zm-18.396-6.774h-9.683v-9.677h9.683v9.677zm.968.968h-12.587v-12.58h12.587v12.58zm16.46-33.871h-9.683v-9.678h9.683v9.678zm.968 1.935h-12.587V94.84h12.587v12.58zm-35.825 34.84h-7.745V96.773h7.745v45.484zm1.937 1.935h-11.619V95.806h11.619v48.388zm15.492-22.259h-9.683v-9.677h9.683v9.677zm.968 1.936h-12.587v-12.58h12.587v12.58zm-.968-18.387h-9.683v-9.678h9.683v9.678zm.968 1.935h-12.587V94.84h12.587v12.58zm226.566 21.29h-6.778v-6.774h6.778v6.775zm2.904 0h-.968v-6.774h.968v6.775zm1.937 1.936h-12.587v-9.677h12.587v9.677zm236.248 0h-10.65v-6.774h10.65v6.774zm1.936.968H585.78v-9.678h13.555v9.678zm33.888-12.58h-10.65v-6.775h10.65v6.774zm.969.967h-13.556v-9.677h13.556V120zm-62.935 9.677h-23.238v-1.935h23.238v1.935zm61.966.968h-10.65v-6.774h10.65v6.774zm.969.968h-13.556v-9.678h13.556v9.678zm-62.935-24.194h-23.238v-1.935h23.238v1.935zm44.538 0h-10.65v-6.774h10.65v6.774zm.968.968h-13.555V98.71h13.555v9.677zm-.968 22.258h-10.65v-6.774h10.65v6.774zm.968.968h-13.555v-9.678h13.555v9.678zm-45.506-12.58h-23.238v-1.936h23.238v1.935zm61.966-24.194h-10.65v-6.774h10.65v6.774zm.969 1.935h-13.556v-9.677h13.556v9.677zm-36.793 22.258h-10.65v-6.774h10.65v6.774zm1.936.968H585.78v-9.677h13.555V120zm-1.936-25.161h-10.65v-6.774h10.65v6.774zm1.936 1.935H585.78v-9.677h13.555v9.677zm33.888-13.548h-10.65v-6.774h10.65v6.774zm.969 1.935h-13.556v-9.677h13.556v9.677zm-62.935 10.645h-23.238v-1.935h23.238v1.935zm26.142 11.613h-10.65v-6.774h10.65v6.774zm1.936.968H585.78V98.71h13.555v9.677zm33.888-.968h-10.65v-6.774h10.65v6.774zm.969.968h-13.556V98.71h13.556v9.677zm-36.793-36.774h-10.65v-6.774h10.65v6.774zm1.936 1.935H585.78v-9.677h13.555v9.677zm33.888-1.935h-10.65v-6.774h10.65v6.774zm.969 1.935h-13.556v-9.677h13.556v9.677zm-36.793 9.678h-10.65v-6.774h10.65v6.774zm1.936 1.935H585.78v-9.677h13.555v9.677zm16.46 33.871h-10.65v-6.774h10.65v6.774zm.968.968h-13.555v-9.677h13.555V120zm-.968-36.774h-10.65v-6.774h10.65v6.774zm.968 1.935h-13.555v-9.677h13.555v9.677zm-.968 9.678h-10.65v-6.774h10.65v6.774zm.968 1.935h-13.555v-9.677h13.555v9.677zm-.968-25.161h-10.65v-6.774h10.65v6.774zm.968 1.935h-13.555v-9.677h13.555v9.677zm-45.506-35.806h-23.238v-1.936h23.238v1.936zm0 11.613h-23.238v-1.936h23.238v1.936zm0 11.613h-23.238v-1.936h23.238v1.936zm21.132-9.678h35.194c.441 0 .8.434.8.968 0 .535-.359.968-.8.968h-35.194c-.442 0-.8-.433-.8-.968 0-.534.358-.968.8-.968zm-21.132 32.904h-23.238v-1.936h23.238v1.936zm0-11.613h-23.238v-1.936h23.238v1.936z"/>
</svg>
