<svg xmlns="http://www.w3.org/2000/svg" width="47" height="40" viewBox="0 0 47 40">
    <path fill="#696969" fill-rule="evenodd" d="M39.556 33.668h3.06a.612.612 0 1 0 .018-1.224h-3.135a.613.613 0 0 0 .057 1.224zM9.023 8.842a6.94 6.94 0 0 1 6.94-6.941 6.937 6.937 0 0 1 6.94 6.94 6.94 6.94 0 0 1-6.94 6.94 6.935 6.935 0 0 1-6.94-6.94zm6.467 8.84c2.377 0 4.601.625 6.534 1.718.127-.68.559-1.289 1.297-1.505a17.394 17.394 0 0 0-3.036-1.341 8.835 8.835 0 0 0 4.519-7.712c0-4.88-3.962-8.842-8.84-8.842a8.841 8.841 0 0 0-4.648 16.363C3.992 18.452 0 23.797 0 32.073h18.546v-1.384c0-.186.023-.357.061-.517H1.986c.692-6.965 6.424-12.49 13.504-12.49zm5.704 20.576h24.483V27.853H21.194v10.405zM46.289 26.63H20.524a.612.612 0 0 0-.554.612v11.63c0 .338.274.612.612.612h25.707a.612.612 0 0 0 .612-.612V27.24a.612.612 0 0 0-.612-.612zm-12.853 3.979a2.44 2.44 0 0 1 2.448 2.448 2.439 2.439 0 0 1-2.448 2.448 2.439 2.439 0 0 1-2.449-2.448 2.44 2.44 0 0 1 2.449-2.448zm0 6.12a3.682 3.682 0 0 0 3.672-3.672 3.682 3.682 0 0 0-3.672-3.672 3.682 3.682 0 0 0-3.673 3.672 3.682 3.682 0 0 0 3.673 3.673zm-9.182-3.06h3.06a.612.612 0 1 0 .018-1.224h-3.135a.613.613 0 0 0 .057 1.224zm-.975-11.935a.613.613 0 1 0 .057 1.224h20.198a.612.612 0 0 0 .018-1.224H23.279zm-1.53 2.448a.612.612 0 1 0 .057 1.224h23.259a.611.611 0 1 0 0-1.224h-23.26a.454.454 0 0 0-.057 0zm2.477-4.256c.015.338.302.6.64.583h17.138a.612.612 0 1 0 .018-1.224H24.809a.613.613 0 0 0-.583.641z"/>
</svg>
