<svg xmlns="http://www.w3.org/2000/svg" width="41" height="41" viewBox="0 0 41 41">
    <path fill="#696969" fill-rule="evenodd" d="M18.987 4.1c.446 0 .805.361.805.806a.805.805 0 0 1-.805.806H2.24a.627.627 0 0 0-.63.624v19.357h33.68v-3.544a.805.805 0 1 1 1.61 0v8.075a2.241 2.241 0 0 1-2.241 2.236h-12.26v3.721a4.04 4.04 0 0 1 3.625 4.013.806.806 0 0 1-.806.806H11.682a.806.806 0 0 1-.806-.806 4.04 4.04 0 0 1 3.624-4.013v-3.72H2.24A2.24 2.24 0 0 1 0 30.223V6.336A2.24 2.24 0 0 1 2.24 4.1zm3.003 33.672h-7.08a2.428 2.428 0 0 0-2.285 1.616h11.65a2.43 2.43 0 0 0-2.285-1.616zm-1.202-5.313h-4.676v3.702h4.676v-3.702zm14.501-5.156H1.611v2.921c0 .344.282.624.629.624h32.419c.347 0 .63-.28.63-.624v-2.92zM18.451 28.7a.686.686 0 0 1 .483 1.166.692.692 0 0 1-.483.2.687.687 0 0 1-.684-.683.687.687 0 0 1 .684-.683zM11.93 8.2c2.347 0 4.257 1.997 4.257 4.454 0 .883-.25 1.703-.674 2.397 1.28.762 1.57 1.867 1.57 2.71v3.567a.528.528 0 0 1-.518.539.528.528 0 0 1-.517-.54v-3.566c0-.84-.388-1.438-1.209-1.864a4.198 4.198 0 0 1-1.85 1.068l.775 2.51a.554.554 0 0 1-.106.523l-1.314 1.53a.509.509 0 0 1-.386.18.508.508 0 0 1-.386-.18l-1.313-1.53a.55.55 0 0 1-.108-.521l.761-2.5a4.201 4.201 0 0 1-1.89-1.076c-.783.425-1.153 1.022-1.153 1.86v3.566a.528.528 0 0 1-.519.539.528.528 0 0 1-.517-.54v-3.565c0-.84.28-1.94 1.517-2.703a4.577 4.577 0 0 1-.679-2.404c0-2.457 1.91-4.454 4.259-4.454zm24.286 10.933a.69.69 0 0 1 .485.2.689.689 0 0 1 0 .967.688.688 0 0 1-.968 0 .686.686 0 0 1 0-.966.688.688 0 0 1 .483-.2zM12.05 17.44h-.193l-.63 2.07.732.851.73-.85-.64-2.07zM36.663.446c2.167 0 3.93 1.82 3.93 4.056v8.68c0 2.237-1.763 4.055-3.93 4.055h-7.85l-2.574 2.656a.77.77 0 0 1-.855.176.812.812 0 0 1-.486-.75v-2.108c-1.958-.228-3.484-1.949-3.484-4.03V4.503c0-2.236 1.763-4.056 3.93-4.056zm0 1.623H25.344c-1.3 0-2.359 1.091-2.359 2.433v8.68c0 1.342 1.059 2.433 2.36 2.433h.34a.8.8 0 0 1 .786.811v.935l1.462-1.51a.773.773 0 0 1 .555-.236h8.175c1.3 0 2.359-1.09 2.359-2.433v-8.68c0-1.342-1.06-2.433-2.36-2.433zM11.929 9.277c-1.777 0-3.223 1.515-3.223 3.377 0 1.863 1.446 3.379 3.223 3.379s3.222-1.516 3.222-3.38c0-1.861-1.445-3.376-3.222-3.376zm24.167 1.656c.444 0 .804.307.804.684 0 .377-.36.683-.804.683H26.77c-.444 0-.804-.306-.804-.683 0-.377.36-.684.804-.684zm0-2.733c.444 0 .804.305.804.683 0 .377-.36.684-.804.684H26.77c-.444 0-.804-.307-.804-.684 0-.378.36-.683.804-.683zm-.67-3.417c.436 0 .79.306.79.684 0 .377-.354.683-.79.683h-5.934c-.438 0-.792-.306-.792-.683 0-.378.354-.684.792-.684zm-8.776 0a.685.685 0 0 1 .683.684.687.687 0 0 1-.683.683.687.687 0 0 1-.683-.683.687.687 0 0 1 .683-.684z"/>
</svg>
