<svg xmlns="http://www.w3.org/2000/svg" width="55" height="43" viewBox="0 0 55 43">
    <g fill="none" fill-rule="evenodd">
        <path fill="#696969" d="M18.186.205c10.044 0 18.186 8.142 18.186 18.186 0 .536-.025 1.066-.07 1.59l-.028.001H51.47a3.386 3.386 0 0 1 3.375 3.376v15.546c0 1.86-1.52 3.375-3.375 3.375H25.677a3.383 3.383 0 0 1-3.375-3.375v-2.799c-1.323.307-2.7.472-4.116.472C8.142 36.577 0 28.435 0 18.391S8.142.205 18.186.205zm35.757 36.601H23.204v2.098a2.485 2.485 0 0 0 2.473 2.477H51.47a2.485 2.485 0 0 0 2.473-2.477v-2.098zM51.47 20.88H25.677a2.485 2.485 0 0 0-2.473 2.478v12.55h30.739v-12.55a2.485 2.485 0 0 0-2.473-2.478zM18.186 1.57C8.896 1.57 1.364 9.1 1.364 18.39c0 9.29 7.531 16.822 16.822 16.822 1.42 0 2.799-.177 4.116-.509V23.358a3.386 3.386 0 0 1 3.375-3.376h9.775c-.172-.009-.345-.02-.517-.026.048-.516.073-1.037.073-1.565 0-9.29-7.532-16.822-16.822-16.822zm18.963 25.064v.897H24.3v-.897h12.85zm12.331-4.187a2.463 2.463 0 1 1-1.416 4.476 2.46 2.46 0 0 1-3.876-2.011 2.455 2.455 0 1 1 3.876-2.011 2.437 2.437 0 0 1 1.416-.454zm0 .902a1.561 1.561 0 0 0 0 3.12 1.561 1.561 0 1 0 0-3.12zm-2.831 0a1.561 1.561 0 0 0 0 3.12c.276 0 .54-.064.78-.203a2.436 2.436 0 0 1-.409-1.355c0-.505.151-.966.406-1.36a1.524 1.524 0 0 0-.777-.202zm-9.5.587v.898H24.3v-.898h12.85zM18.413 8.843c.377 0 .682.306.682.682v6.366a.68.68 0 0 1-.006.084 2.729 2.729 0 1 1-1.352 0 .678.678 0 0 1-.006-.084V9.525c0-.376.306-.682.682-.682zm0 8.412a1.364 1.364 0 1 0 0 2.727 1.364 1.364 0 0 0 0-2.727zm-.227-12.73c7.658 0 13.867 6.208 13.867 13.866a.682.682 0 1 1-1.364 0c0-6.905-5.598-12.503-12.503-12.503S5.683 11.486 5.683 18.391a.682.682 0 1 1-1.364 0c0-7.658 6.209-13.867 13.867-13.867z"/>
    </g>
</svg>
