<svg xmlns="http://www.w3.org/2000/svg" width="16" height="16" viewBox="0 0 16 16">
    <path fill="#EC1C24" fill-rule="evenodd" d="M.889 11.556a.888.888 0 0 0-.889.888v1.422C0 15.062.976 16 2.222 16h11.556C15.024 16 16 15.062 16 13.866v-1.422a.889.889 0 1 0-1.778 0v1.422c0 .346-.398.356-.444.356H2.222c-.046 0-.444-.01-.444-.356v-1.422a.888.888 0 0 0-.89-.888zm7.74.683l4.499-4.5a.888.888 0 0 0 0-1.256.921.921 0 0 0-1.284 0L8.889 9.41V.889a.889.889 0 1 0-1.778 0V9.52L4.156 6.538a.873.873 0 0 0-1.496.628c0 .228.09.455.264.629l4.446 4.444a.89.89 0 0 0 1.258 0z"/>
</svg>
