<svg xmlns="http://www.w3.org/2000/svg" width="45" height="44" viewBox="0 0 45 44">
    <path fill="#696969" fill-rule="evenodd" d="M23.473 21.372h-9.737a.496.496 0 0 0-.499.494c0 .273.224.494.5.494h9.736c.276 0 .5-.221.5-.494a.496.496 0 0 0-.5-.494zM43.89 8.084l-6.118 26.533a.613.613 0 0 1-.736.458l-4.283-.967V7.542c0-.932-.766-1.69-1.71-1.69H24.33l-.41-2.897 19.507 4.4c.33.076.538.402.463.729zM31.657 34.756a.612.612 0 0 1-.615.608h-2.551c-.033-4.173-3.473-7.56-7.7-7.56-4.226 0-7.666 3.387-7.7 7.56h-2.55a.612.612 0 0 1-.615-.608V7.542c0-.335.276-.607.614-.607h20.502c.34 0 .615.272.615.607v27.214zM20.792 41.96c-3.644 0-6.608-2.932-6.608-6.535 0-3.604 2.964-6.536 6.608-6.536 3.642 0 6.607 2.932 6.607 6.536 0 3.603-2.965 6.535-6.607 6.535zM8.83 7.542V31.61l-3.224.446a.612.612 0 0 1-.694-.518L1.101 4.586a.609.609 0 0 1 .524-.686l20.304-2.81a.609.609 0 0 1 .694.518l.6 4.243H10.54c-.942 0-1.71.759-1.71 1.691zM43.67 6.3L23.756 1.808l-.05-.35a1.675 1.675 0 0 0-.663-1.116 1.715 1.715 0 0 0-1.267-.326L1.473 2.826a1.697 1.697 0 0 0-1.456 1.91l3.811 26.95c.064.45.299.845.664 1.117a1.706 1.706 0 0 0 1.266.325l3.073-.425v2.053c0 .933.767 1.692 1.71 1.692h2.626c.508 3.718 3.729 6.595 7.625 6.595 3.895 0 7.116-2.877 7.624-6.595h2.626c.786 0 1.442-.53 1.642-1.244l4.108.926a1.719 1.719 0 0 0 1.29-.216 1.68 1.68 0 0 0 .757-1.056l6.118-26.533A1.693 1.693 0 0 0 43.67 6.3zM27.846 18.9h-14.11a.496.496 0 0 0-.5.494c0 .273.224.494.5.494h14.11c.275 0 .499-.221.499-.494a.496.496 0 0 0-.5-.494zM16.1 10.112c.863 0 1.565.7 1.565 1.56a1.565 1.565 0 1 1-3.13 0c-.001-.86.702-1.56 1.565-1.56zm.014 5.12l-.355-.393.305-.956h.094l.31.956-.354.393zm-2.238.695a.25.25 0 0 0 .25-.249v-1.647c0-.387.181-.663.562-.859.254.237.569.41.918.497l-.37 1.154a.245.245 0 0 0 .053.242l.637.705a.251.251 0 0 0 .376 0l.638-.705a.25.25 0 0 0 .052-.243l-.377-1.159c.341-.087.649-.26.899-.492.398.196.586.472.586.86v1.648a.25.25 0 0 0 .252.248.25.25 0 0 0 .251-.248V14.03c0-.39-.14-.9-.762-1.252.206-.32.327-.699.327-1.107a2.064 2.064 0 0 0-2.068-2.056c-1.14 0-2.068.922-2.068 2.056 0 .41.121.79.329 1.11-.6.353-.737.861-.737 1.249v1.647a.25.25 0 0 0 .252.249zm2.508 19.544l.689.843 3.232-2.584v5.01h1.095v-4.986l3.095 2.554.701-.832-4.337-3.58-4.475 3.575z"/>
</svg>
